<?xml version="1.0" encoding="us-ascii" standalone="no"?><svg xmlns="http://www.w3.org/2000/svg" xmlns:xlink="http://www.w3.org/1999/xlink" contentStyleType="text/css" height="101px" preserveAspectRatio="none" style="width:171px;height:101px;background:#FFFFFF;" version="1.1" viewBox="0 0 171 101" width="171px" zoomAndPan="magnify"><defs/><g><!--class ClassA--><g id="elem_ClassA"><rect codeLine="1" fill="#F1F1F1" height="80.5938" id="ClassA" rx="2.5" ry="2.5" style="stroke:#181818;stroke-width:0.5;" width="150" x="7" y="7"/><ellipse cx="54.75" cy="23" fill="#ADD1B2" rx="11" ry="11" style="stroke:#181818;stroke-width:1.0;"/><path d="M57.7188,28.6406 Q57.1406,28.9375 56.5,29.0781 Q55.8594,29.2344 55.1563,29.2344 Q52.6563,29.2344 51.3281,27.5938 Q50.0156,25.9375 50.0156,22.8125 Q50.0156,19.6875 51.3281,18.0313 Q52.6563,16.375 55.1563,16.375 Q55.8594,16.375 56.5,16.5313 Q57.1563,16.6875 57.7188,16.9844 L57.7188,19.7031 Q57.0938,19.125 56.5,18.8594 Q55.9063,18.5781 55.2813,18.5781 Q53.9375,18.5781 53.25,19.6563 Q52.5625,20.7188 52.5625,22.8125 Q52.5625,24.9063 53.25,25.9844 Q53.9375,27.0469 55.2813,27.0469 Q55.9063,27.0469 56.5,26.7813 Q57.0938,26.5 57.7188,25.9219 L57.7188,28.6406 Z " fill="#000000"/><text fill="#000000" font-family="sans-serif" font-size="14" lengthAdjust="spacing" textLength="46" x="75.25" y="27.8467">ClassA</text><line style="stroke:#181818;stroke-width:0.5;" x1="8" x2="156" y1="39" y2="39"/><ellipse cx="18" cy="52.6484" fill="none" rx="3" ry="3" style="stroke:#038048;stroke-width:1.0;"/><text fill="#000000" font-family="sans-serif" font-size="14" lengthAdjust="spacing" textLength="124" x="27" y="55.9951">X : int &#171;get&#187;&#171;set&#187;</text><line style="stroke:#181818;stroke-width:0.5;" x1="8" x2="156" y1="63.2969" y2="63.2969"/><ellipse cx="18" cy="76.9453" fill="#84BE84" rx="3" ry="3" style="stroke:#038048;stroke-width:1.0;"/><text fill="#000000" font-family="sans-serif" font-size="14" lengthAdjust="spacing" textLength="113" x="27" y="80.292">MethodA() : void</text></g><!--SRC=[Iyv9B2vMS0QHZWhLN0eA2jeA4GfM2fbv9GesDkcf9NPsDZR580eYvvjQaf6VugYX2LHJbf-PmbKB0000]--></g></svg>