<?xml version="1.0" encoding="us-ascii" standalone="no"?><svg xmlns="http://www.w3.org/2000/svg" xmlns:xlink="http://www.w3.org/1999/xlink" contentStyleType="text/css" height="252px" preserveAspectRatio="none" style="width:267px;height:252px;background:#FFFFFF;" version="1.1" viewBox="0 0 267 252" width="267px" zoomAndPan="magnify"><defs/><g><!--class Class1--><g id="elem_Class1"><rect codeLine="1" fill="#F1F1F1" height="113.1875" id="Class1" rx="2.5" ry="2.5" style="stroke:#181818;stroke-width:0.5;" width="235" x="25.7391" y="7"/><ellipse cx="115.9891" cy="23" fill="#ADD1B2" rx="11" ry="11" style="stroke:#181818;stroke-width:1.0;"/><path d="M118.9579,28.6406 Q118.3798,28.9375 117.7391,29.0781 Q117.0985,29.2344 116.3954,29.2344 Q113.8954,29.2344 112.5673,27.5938 Q111.2548,25.9375 111.2548,22.8125 Q111.2548,19.6875 112.5673,18.0313 Q113.8954,16.375 116.3954,16.375 Q117.0985,16.375 117.7391,16.5313 Q118.3954,16.6875 118.9579,16.9844 L118.9579,19.7031 Q118.3329,19.125 117.7391,18.8594 Q117.1454,18.5781 116.5204,18.5781 Q115.1766,18.5781 114.4891,19.6563 Q113.8016,20.7188 113.8016,22.8125 Q113.8016,24.9063 114.4891,25.9844 Q115.1766,27.0469 116.5204,27.0469 Q117.1454,27.0469 117.7391,26.7813 Q118.3329,26.5 118.9579,25.9219 L118.9579,28.6406 Z " fill="#000000"/><text fill="#000000" font-family="sans-serif" font-size="14" lengthAdjust="spacing" textLength="46" x="136.4891" y="27.8467">Class1</text><line style="stroke:#181818;stroke-width:0.5;" x1="26.7391" x2="259.7391" y1="39" y2="39"/><ellipse cx="36.7391" cy="52.6484" fill="none" rx="3" ry="3" style="stroke:#038048;stroke-width:1.0;"/><text fill="#000000" font-family="sans-serif" font-size="14" lengthAdjust="spacing" textLength="208" x="45.7391" y="55.9951">&#171;readonly&#187; ItemA : Item &#171;get&#187;</text><ellipse cx="36.7391" cy="68.9453" fill="none" rx="3" ry="3" style="stroke:#038048;stroke-width:1.0;"/><text fill="#000000" font-family="sans-serif" font-size="14" lengthAdjust="spacing" textLength="209" x="45.7391" y="72.292">&#171;readonly&#187; ItemB : Item &#171;get&#187;</text><ellipse cx="36.7391" cy="85.2422" fill="none" rx="3" ry="3" style="stroke:#038048;stroke-width:1.0;"/><text fill="#000000" font-family="sans-serif" font-size="14" lengthAdjust="spacing" textLength="209" x="45.7391" y="88.5889">&#171;readonly&#187; ItemC : Item &#171;get&#187;</text><line style="stroke:#181818;stroke-width:0.5;" x1="26.7391" x2="259.7391" y1="95.8906" y2="95.8906"/><ellipse cx="36.7391" cy="109.5391" fill="#84BE84" rx="3" ry="3" style="stroke:#038048;stroke-width:1.0;"/><text fill="#000000" font-family="sans-serif" font-size="14" lengthAdjust="spacing" textLength="129" x="45.7391" y="112.8857">Class1(item : Item)</text></g><!--class Item--><g id="elem_Item"><rect fill="#F1F1F1" height="48" id="Item" rx="2.5" ry="2.5" style="stroke:#181818;stroke-width:0.5;" width="62" x="112.2391" y="197.19"/><ellipse cx="127.2391" cy="213.19" fill="#ADD1B2" rx="11" ry="11" style="stroke:#181818;stroke-width:1.0;"/><path d="M130.2079,218.8306 Q129.6298,219.1275 128.9891,219.2681 Q128.3485,219.4244 127.6454,219.4244 Q125.1454,219.4244 123.8173,217.7838 Q122.5048,216.1275 122.5048,213.0025 Q122.5048,209.8775 123.8173,208.2213 Q125.1454,206.565 127.6454,206.565 Q128.3485,206.565 128.9891,206.7213 Q129.6454,206.8775 130.2079,207.1744 L130.2079,209.8931 Q129.5829,209.315 128.9891,209.0494 Q128.3954,208.7681 127.7704,208.7681 Q126.4266,208.7681 125.7391,209.8463 Q125.0516,210.9088 125.0516,213.0025 Q125.0516,215.0963 125.7391,216.1744 Q126.4266,217.2369 127.7704,217.2369 Q128.3954,217.2369 128.9891,216.9713 Q129.5829,216.69 130.2079,216.1119 L130.2079,218.8306 Z " fill="#000000"/><text fill="#000000" font-family="sans-serif" font-size="14" lengthAdjust="spacing" textLength="30" x="141.2391" y="218.0367">Item</text><line style="stroke:#181818;stroke-width:0.5;" x1="113.2391" x2="173.2391" y1="229.19" y2="229.19"/><line style="stroke:#181818;stroke-width:0.5;" x1="113.2391" x2="173.2391" y1="237.19" y2="237.19"/></g><!--reverse link Class1 to Item--><g id="link_Class1_Item"><path codeLine="7" d="M19.35,129.2496 C6,142.9996 8.9991,150.12 20.2391,167.19 C40.4291,197.88 82.5491,210.88 111.8391,216.33 " fill="none" id="Class1-backto-Item" style="stroke:#181818;stroke-width:1.0;"/><polygon fill="#181818" points="27.7091,120.64,20.6597,122.1584,19.35,129.2496,26.3994,127.7312,27.7091,120.64" style="stroke:#181818;stroke-width:1.0;"/><text fill="#000000" font-family="sans-serif" font-size="13" lengthAdjust="spacing" textLength="38" x="21.2391" y="163.2569">ItemA</text></g><!--reverse link Class1 to Item--><g id="link_Class1_Item"><path codeLine="8" d="M99.1842,131.6978 C93.0142,146.6978 94.8191,151.9 100.2391,167.19 C104.0791,178.02 111.1791,188.26 118.5291,196.79 " fill="none" id="Class1-backto-Item-1" style="stroke:#181818;stroke-width:1.0;"/><polygon fill="#181818" points="103.7491,120.6,97.7674,124.6273,99.1842,131.6978,105.1659,127.6705,103.7491,120.6" style="stroke:#181818;stroke-width:1.0;"/><text fill="#000000" font-family="sans-serif" font-size="13" lengthAdjust="spacing" textLength="38" x="101.2391" y="163.2569">ItemB</text></g><!--reverse link Class1 to Item--><g id="link_Class1_Item"><path codeLine="9" d="M144.2879,132.4994 C144.4379,147.6494 144.3791,152.05 144.2391,167.19 C144.1491,176.85 143.9591,187.51 143.7791,196.71 " fill="none" id="Class1-backto-Item-2" style="stroke:#181818;stroke-width:1.0;"/><polygon fill="none" points="144.1691,120.5,140.2287,126.5393,144.2879,132.4994,148.2283,126.4601,144.1691,120.5" style="stroke:#181818;stroke-width:1.0;"/><text fill="#000000" font-family="sans-serif" font-size="13" lengthAdjust="spacing" textLength="38" x="145.2391" y="163.2569">ItemC</text></g><!--link Class1 to Item--><g id="link_Class1_Item"><path codeLine="10" d="M180.5391,120.36 C185.3691,129.95 189.5491,140.1 192.2391,150.19 C196.8491,167.54 190.3832,179.8589 177.8232,192.5289 " fill="none" id="Class1-to-Item" style="stroke:#181818;stroke-width:1.0;stroke-dasharray:7.0,7.0;"/><polygon fill="#181818" points="173.5991,196.79,182.776,193.2144,177.1192,193.2391,177.0945,187.5823,173.5991,196.79" style="stroke:#181818;stroke-width:1.0;"/></g><!--SRC=[Iyv9B2vMS0QHXWhLN0f0eArWOrEKcfYIdvTJQMUdu5cIckkeO0McWJBfgILsThZKEH6fpXcxEeWpD391CX05cborN537QUdgGlH0P1nnY3l1nFDHnPrXudfw43S00000]--></g></svg>