<?xml version="1.0" encoding="us-ascii" standalone="no"?><svg xmlns="http://www.w3.org/2000/svg" xmlns:xlink="http://www.w3.org/1999/xlink" contentStyleType="text/css" height="305px" preserveAspectRatio="none" style="width:422px;height:305px;background:#FFFFFF;" version="1.1" viewBox="0 0 422 305" width="422px" zoomAndPan="magnify"><defs/><g><path d="M17,8.9688 L17,10.9688 L25,10.9688 L25,9.9688 L20,9.9688 L20,8.9688 L17,8.9688 M17,11.9688 L17,16.4688 C17,16.7488 17.22,16.9688 17.5,16.9688 L24.5,16.9688 C24.78,16.9688 25,16.7488 25,16.4688 L25,11.9688 L17,11.9688 " fill="#000000" style="stroke:;stroke-width:0.0;stroke-dasharray:;"/><text fill="#000000" font-family="sans-serif" font-size="12" lengthAdjust="spacing" textLength="4" x="26" y="17.1387">&#160;</text><text fill="#000000" font-family="sans-serif" font-size="12" font-weight="bold" lengthAdjust="spacing" textLength="97" x="30" y="17.1387">$(SolutionDir)</text><path d="M27,22.9375 L27,24.9375 L35,24.9375 L35,23.9375 L30,23.9375 L30,22.9375 L27,22.9375 M27,25.9375 L27,30.4375 C27,30.7175 27.22,30.9375 27.5,30.9375 L34.5,30.9375 C34.78,30.9375 35,30.7175 35,30.4375 L35,25.9375 L27,25.9375 " fill="#000000" style="stroke:;stroke-width:0.0;stroke-dasharray:;"/><text fill="#000000" font-family="sans-serif" font-size="12" lengthAdjust="spacing" textLength="4" x="36" y="31.1074">&#160;</text><text fill="#000000" font-family="sans-serif" font-size="12" font-weight="bold" lengthAdjust="spacing" textLength="106" x="40" y="31.1074">generated_uml</text><path d="M37,36.9063 L37,38.9063 L45,38.9063 L45,37.9063 L40,37.9063 L40,36.9063 L37,36.9063 M37,39.9063 L37,44.4063 C37,44.6863 37.22,44.9063 37.5,44.9063 L44.5,44.9063 C44.78,44.9063 45,44.6863 45,44.4063 L45,39.9063 L37,39.9063 " fill="#000000" style="stroke:;stroke-width:0.0;stroke-dasharray:;"/><text fill="#000000" font-family="sans-serif" font-size="12" lengthAdjust="spacing" textLength="4" x="46" y="45.0762">&#160;</text><text fill="#000000" font-family="sans-serif" font-size="12" font-weight="bold" lengthAdjust="spacing" textLength="99" x="50" y="45.0762">Consoto.App1</text><text fill="#000000" font-family="sans-serif" font-size="12" lengthAdjust="spacing" textLength="120" x="210" y="45.0762">-- [Assembly Name]</text><path d="M47,50.875 L47,52.875 L55,52.875 L55,51.875 L50,51.875 L50,50.875 L47,50.875 M47,53.875 L47,58.375 C47,58.655 47.22,58.875 47.5,58.875 L54.5,58.875 C54.78,58.875 55,58.655 55,58.375 L55,53.875 L47,53.875 " fill="#000000" style="stroke:;stroke-width:0.0;stroke-dasharray:;"/><text fill="#000000" font-family="sans-serif" font-size="12" lengthAdjust="spacing" textLength="4" x="56" y="59.0449">&#160;</text><text fill="#000000" font-family="sans-serif" font-size="12" font-weight="bold" lengthAdjust="spacing" textLength="59" x="60" y="59.0449">Consoto</text><path d="M57,64.8438 L57,66.8438 L65,66.8438 L65,65.8438 L60,65.8438 L60,64.8438 L57,64.8438 M57,67.8438 L57,72.3438 C57,72.6238 57.22,72.8438 57.5,72.8438 L64.5,72.8438 C64.78,72.8438 65,72.6238 65,72.3438 L65,67.8438 L57,67.8438 " fill="#000000" style="stroke:;stroke-width:0.0;stroke-dasharray:;"/><text fill="#000000" font-family="sans-serif" font-size="12" lengthAdjust="spacing" textLength="4" x="66" y="73.0137">&#160;</text><text fill="#000000" font-family="sans-serif" font-size="12" font-weight="bold" lengthAdjust="spacing" textLength="35" x="70" y="73.0137">App1</text><text fill="#000000" font-family="sans-serif" font-size="12" lengthAdjust="spacing" textLength="100" x="210" y="73.0137">-- Consoto.App1</text><path d="M67,78.8125 L67,86.8125 L74,86.8125 L74,82.8125 L70,82.8125 L70,78.8125 L67,78.8125 M71,78.8125 L71,81.8125 L74,81.8125 L71,78.8125 " fill="#000000" style="stroke:;stroke-width:0.0;stroke-dasharray:;"/><text fill="#000000" font-family="sans-serif" font-size="12" lengthAdjust="spacing" textLength="90" x="80" y="86.9824">class001.puml</text><path d="M67,92.7813 L67,100.7813 L74,100.7813 L74,96.7813 L70,96.7813 L70,92.7813 L67,92.7813 M71,92.7813 L71,95.7813 L74,95.7813 L71,92.7813 " fill="#000000" style="stroke:;stroke-width:0.0;stroke-dasharray:;"/><text fill="#000000" font-family="sans-serif" font-size="12" lengthAdjust="spacing" textLength="90" x="80" y="100.9512">class002.puml</text><path d="M67,106.75 L67,108.75 L75,108.75 L75,107.75 L70,107.75 L70,106.75 L67,106.75 M67,109.75 L67,114.25 C67,114.53 67.22,114.75 67.5,114.75 L74.5,114.75 C74.78,114.75 75,114.53 75,114.25 L75,109.75 L67,109.75 " fill="#000000" style="stroke:;stroke-width:0.0;stroke-dasharray:;"/><text fill="#000000" font-family="sans-serif" font-size="12" lengthAdjust="spacing" textLength="4" x="76" y="114.9199">&#160;</text><text fill="#000000" font-family="sans-serif" font-size="12" font-weight="bold" lengthAdjust="spacing" textLength="77" x="80" y="114.9199">ViewModel</text><text fill="#000000" font-family="sans-serif" font-size="12" lengthAdjust="spacing" textLength="169" x="210" y="114.9199">-- Consoto.App1.ViewModel</text><path d="M77,120.7188 L77,128.7188 L84,128.7188 L84,124.7188 L80,124.7188 L80,120.7188 L77,120.7188 M81,120.7188 L81,123.7188 L84,123.7188 L81,120.7188 " fill="#000000" style="stroke:;stroke-width:0.0;stroke-dasharray:;"/><text fill="#000000" font-family="sans-serif" font-size="12" lengthAdjust="spacing" textLength="90" x="90" y="128.8887">class003.puml</text><path d="M77,134.6875 L77,142.6875 L84,142.6875 L84,138.6875 L80,138.6875 L80,134.6875 L77,134.6875 M81,134.6875 L81,137.6875 L84,137.6875 L81,134.6875 " fill="#000000" style="stroke:;stroke-width:0.0;stroke-dasharray:;"/><text fill="#000000" font-family="sans-serif" font-size="12" lengthAdjust="spacing" textLength="90" x="90" y="142.8574">class004.puml</text><path d="M67,148.6563 L67,150.6563 L75,150.6563 L75,149.6563 L70,149.6563 L70,148.6563 L67,148.6563 M67,151.6563 L67,156.1563 C67,156.4363 67.22,156.6563 67.5,156.6563 L74.5,156.6563 C74.78,156.6563 75,156.4363 75,156.1563 L75,151.6563 L67,151.6563 " fill="#000000" style="stroke:;stroke-width:0.0;stroke-dasharray:;"/><text fill="#000000" font-family="sans-serif" font-size="12" lengthAdjust="spacing" textLength="4" x="76" y="156.8262">&#160;</text><text fill="#000000" font-family="sans-serif" font-size="12" font-weight="bold" lengthAdjust="spacing" textLength="43" x="80" y="156.8262">Model</text><text fill="#000000" font-family="sans-serif" font-size="12" lengthAdjust="spacing" textLength="141" x="210" y="156.8262">-- Consoto.App1.Model</text><path d="M77,162.625 L77,170.625 L84,170.625 L84,166.625 L80,166.625 L80,162.625 L77,162.625 M81,162.625 L81,165.625 L84,165.625 L81,162.625 " fill="#000000" style="stroke:;stroke-width:0.0;stroke-dasharray:;"/><text fill="#000000" font-family="sans-serif" font-size="12" lengthAdjust="spacing" textLength="90" x="90" y="170.7949">class005.puml</text><path d="M37,176.5938 L37,178.5938 L45,178.5938 L45,177.5938 L40,177.5938 L40,176.5938 L37,176.5938 M37,179.5938 L37,184.0938 C37,184.3738 37.22,184.5938 37.5,184.5938 L44.5,184.5938 C44.78,184.5938 45,184.3738 45,184.0938 L45,179.5938 L37,179.5938 " fill="#000000" style="stroke:;stroke-width:0.0;stroke-dasharray:;"/><text fill="#000000" font-family="sans-serif" font-size="12" lengthAdjust="spacing" textLength="4" x="46" y="184.7637">&#160;</text><text fill="#000000" font-family="sans-serif" font-size="12" font-weight="bold" lengthAdjust="spacing" textLength="137" x="50" y="184.7637">Consoto.App1.Core</text><text fill="#000000" font-family="sans-serif" font-size="12" lengthAdjust="spacing" textLength="120" x="210" y="184.7637">-- [Assembly Name]</text><path d="M47,190.5625 L47,192.5625 L55,192.5625 L55,191.5625 L50,191.5625 L50,190.5625 L47,190.5625 M47,193.5625 L47,198.0625 C47,198.3425 47.22,198.5625 47.5,198.5625 L54.5,198.5625 C54.78,198.5625 55,198.3425 55,198.0625 L55,193.5625 L47,193.5625 " fill="#000000" style="stroke:;stroke-width:0.0;stroke-dasharray:;"/><text fill="#000000" font-family="sans-serif" font-size="12" lengthAdjust="spacing" textLength="4" x="56" y="198.7324">&#160;</text><text fill="#000000" font-family="sans-serif" font-size="12" font-weight="bold" lengthAdjust="spacing" textLength="59" x="60" y="198.7324">Consoto</text><path d="M57,204.5313 L57,206.5313 L65,206.5313 L65,205.5313 L60,205.5313 L60,204.5313 L57,204.5313 M57,207.5313 L57,212.0313 C57,212.3113 57.22,212.5313 57.5,212.5313 L64.5,212.5313 C64.78,212.5313 65,212.3113 65,212.0313 L65,207.5313 L57,207.5313 " fill="#000000" style="stroke:;stroke-width:0.0;stroke-dasharray:;"/><text fill="#000000" font-family="sans-serif" font-size="12" lengthAdjust="spacing" textLength="4" x="66" y="212.7012">&#160;</text><text fill="#000000" font-family="sans-serif" font-size="12" font-weight="bold" lengthAdjust="spacing" textLength="35" x="70" y="212.7012">App1</text><path d="M67,218.5 L67,220.5 L75,220.5 L75,219.5 L70,219.5 L70,218.5 L67,218.5 M67,221.5 L67,226 C67,226.28 67.22,226.5 67.5,226.5 L74.5,226.5 C74.78,226.5 75,226.28 75,226 L75,221.5 L67,221.5 " fill="#000000" style="stroke:;stroke-width:0.0;stroke-dasharray:;"/><text fill="#000000" font-family="sans-serif" font-size="12" lengthAdjust="spacing" textLength="4" x="76" y="226.6699">&#160;</text><text fill="#000000" font-family="sans-serif" font-size="12" font-weight="bold" lengthAdjust="spacing" textLength="33" x="80" y="226.6699">Core</text><text fill="#000000" font-family="sans-serif" font-size="12" lengthAdjust="spacing" textLength="133" x="210" y="226.6699">-- Consoto.App1.Core</text><path d="M77,232.4688 L77,240.4688 L84,240.4688 L84,236.4688 L80,236.4688 L80,232.4688 L77,232.4688 M81,232.4688 L81,235.4688 L84,235.4688 L81,232.4688 " fill="#000000" style="stroke:;stroke-width:0.0;stroke-dasharray:;"/><text fill="#000000" font-family="sans-serif" font-size="12" lengthAdjust="spacing" textLength="90" x="90" y="240.6387">class008.puml</text><path d="M77,246.4375 L77,254.4375 L84,254.4375 L84,250.4375 L80,250.4375 L80,246.4375 L77,246.4375 M81,246.4375 L81,249.4375 L84,249.4375 L81,246.4375 " fill="#000000" style="stroke:;stroke-width:0.0;stroke-dasharray:;"/><text fill="#000000" font-family="sans-serif" font-size="12" lengthAdjust="spacing" textLength="90" x="90" y="254.6074">class009.puml</text><path d="M87,260.4063 L87,262.4063 L95,262.4063 L95,261.4063 L90,261.4063 L90,260.4063 L87,260.4063 M87,263.4063 L87,267.9063 C87,268.1863 87.22,268.4063 87.5,268.4063 L94.5,268.4063 C94.78,268.4063 95,268.1863 95,267.9063 L95,263.4063 L87,263.4063 " fill="#000000" style="stroke:;stroke-width:0.0;stroke-dasharray:;"/><text fill="#000000" font-family="sans-serif" font-size="12" lengthAdjust="spacing" textLength="4" x="96" y="268.5762">&#160;</text><text fill="#000000" font-family="sans-serif" font-size="12" font-weight="bold" lengthAdjust="spacing" textLength="77" x="100" y="268.5762">Extensions</text><text fill="#000000" font-family="sans-serif" font-size="12" lengthAdjust="spacing" textLength="205" x="210" y="268.5762">-- Consoto.App1.Core.Extensions</text><path d="M97,274.375 L97,282.375 L104,282.375 L104,278.375 L100,278.375 L100,274.375 L97,274.375 M101,274.375 L101,277.375 L104,277.375 L101,274.375 " fill="#000000" style="stroke:;stroke-width:0.0;stroke-dasharray:;"/><text fill="#000000" font-family="sans-serif" font-size="12" lengthAdjust="spacing" textLength="90" x="110" y="282.5449">class010.puml</text><path d="M97,288.3438 L97,296.3438 L104,296.3438 L104,292.3438 L100,292.3438 L100,288.3438 L97,288.3438 M101,288.3438 L101,291.3438 L104,291.3438 L101,288.3438 " fill="#000000" style="stroke:;stroke-width:0.0;stroke-dasharray:;"/><text fill="#000000" font-family="sans-serif" font-size="12" lengthAdjust="spacing" textLength="90" x="110" y="296.5137">class011.puml</text><rect fill="none" height="2" style="stroke:#888888;stroke-width:1.0;" width="2" x="9" y="11.9844"/><rect fill="none" height="2" style="stroke:#888888;stroke-width:1.0;" width="2" x="19" y="25.9531"/><line style="stroke:#888888;stroke-width:1.0;" x1="10" x2="10" y1="14.9844" y2="26.9531"/><line style="stroke:#888888;stroke-width:1.0;" x1="10" x2="18" y1="26.9531" y2="26.9531"/><rect fill="none" height="2" style="stroke:#888888;stroke-width:1.0;" width="2" x="29" y="39.9219"/><line style="stroke:#888888;stroke-width:1.0;" x1="20" x2="20" y1="28.9531" y2="40.9219"/><line style="stroke:#888888;stroke-width:1.0;" x1="20" x2="28" y1="40.9219" y2="40.9219"/><rect fill="none" height="2" style="stroke:#888888;stroke-width:1.0;" width="2" x="39" y="53.8906"/><line style="stroke:#888888;stroke-width:1.0;" x1="30" x2="30" y1="42.9219" y2="54.8906"/><line style="stroke:#888888;stroke-width:1.0;" x1="30" x2="38" y1="54.8906" y2="54.8906"/><rect fill="none" height="2" style="stroke:#888888;stroke-width:1.0;" width="2" x="49" y="67.8594"/><line style="stroke:#888888;stroke-width:1.0;" x1="40" x2="40" y1="56.8906" y2="68.8594"/><line style="stroke:#888888;stroke-width:1.0;" x1="40" x2="48" y1="68.8594" y2="68.8594"/><line style="stroke:#888888;stroke-width:1.0;" x1="50" x2="50" y1="70.8594" y2="82.8281"/><line style="stroke:#888888;stroke-width:1.0;" x1="50" x2="58" y1="82.8281" y2="82.8281"/><line style="stroke:#888888;stroke-width:1.0;" x1="50" x2="50" y1="70.8594" y2="96.7969"/><line style="stroke:#888888;stroke-width:1.0;" x1="50" x2="58" y1="96.7969" y2="96.7969"/><rect fill="none" height="2" style="stroke:#888888;stroke-width:1.0;" width="2" x="59" y="109.7656"/><line style="stroke:#888888;stroke-width:1.0;" x1="50" x2="50" y1="70.8594" y2="110.7656"/><line style="stroke:#888888;stroke-width:1.0;" x1="50" x2="58" y1="110.7656" y2="110.7656"/><line style="stroke:#888888;stroke-width:1.0;" x1="60" x2="60" y1="112.7656" y2="124.7344"/><line style="stroke:#888888;stroke-width:1.0;" x1="60" x2="68" y1="124.7344" y2="124.7344"/><line style="stroke:#888888;stroke-width:1.0;" x1="60" x2="60" y1="112.7656" y2="138.7031"/><line style="stroke:#888888;stroke-width:1.0;" x1="60" x2="68" y1="138.7031" y2="138.7031"/><rect fill="none" height="2" style="stroke:#888888;stroke-width:1.0;" width="2" x="59" y="151.6719"/><line style="stroke:#888888;stroke-width:1.0;" x1="50" x2="50" y1="70.8594" y2="152.6719"/><line style="stroke:#888888;stroke-width:1.0;" x1="50" x2="58" y1="152.6719" y2="152.6719"/><line style="stroke:#888888;stroke-width:1.0;" x1="60" x2="60" y1="154.6719" y2="166.6406"/><line style="stroke:#888888;stroke-width:1.0;" x1="60" x2="68" y1="166.6406" y2="166.6406"/><rect fill="none" height="2" style="stroke:#888888;stroke-width:1.0;" width="2" x="29" y="179.6094"/><line style="stroke:#888888;stroke-width:1.0;" x1="20" x2="20" y1="28.9531" y2="180.6094"/><line style="stroke:#888888;stroke-width:1.0;" x1="20" x2="28" y1="180.6094" y2="180.6094"/><rect fill="none" height="2" style="stroke:#888888;stroke-width:1.0;" width="2" x="39" y="193.5781"/><line style="stroke:#888888;stroke-width:1.0;" x1="30" x2="30" y1="182.6094" y2="194.5781"/><line style="stroke:#888888;stroke-width:1.0;" x1="30" x2="38" y1="194.5781" y2="194.5781"/><rect fill="none" height="2" style="stroke:#888888;stroke-width:1.0;" width="2" x="49" y="207.5469"/><line style="stroke:#888888;stroke-width:1.0;" x1="40" x2="40" y1="196.5781" y2="208.5469"/><line style="stroke:#888888;stroke-width:1.0;" x1="40" x2="48" y1="208.5469" y2="208.5469"/><rect fill="none" height="2" style="stroke:#888888;stroke-width:1.0;" width="2" x="59" y="221.5156"/><line style="stroke:#888888;stroke-width:1.0;" x1="50" x2="50" y1="210.5469" y2="222.5156"/><line style="stroke:#888888;stroke-width:1.0;" x1="50" x2="58" y1="222.5156" y2="222.5156"/><line style="stroke:#888888;stroke-width:1.0;" x1="60" x2="60" y1="224.5156" y2="236.4844"/><line style="stroke:#888888;stroke-width:1.0;" x1="60" x2="68" y1="236.4844" y2="236.4844"/><rect fill="none" height="2" style="stroke:#888888;stroke-width:1.0;" width="2" x="69" y="249.4531"/><line style="stroke:#888888;stroke-width:1.0;" x1="60" x2="60" y1="224.5156" y2="250.4531"/><line style="stroke:#888888;stroke-width:1.0;" x1="60" x2="68" y1="250.4531" y2="250.4531"/><rect fill="none" height="2" style="stroke:#888888;stroke-width:1.0;" width="2" x="79" y="263.4219"/><line style="stroke:#888888;stroke-width:1.0;" x1="70" x2="70" y1="252.4531" y2="264.4219"/><line style="stroke:#888888;stroke-width:1.0;" x1="70" x2="78" y1="264.4219" y2="264.4219"/><line style="stroke:#888888;stroke-width:1.0;" x1="80" x2="80" y1="266.4219" y2="278.3906"/><line style="stroke:#888888;stroke-width:1.0;" x1="80" x2="88" y1="278.3906" y2="278.3906"/><line style="stroke:#888888;stroke-width:1.0;" x1="80" x2="80" y1="266.4219" y2="292.3594"/><line style="stroke:#888888;stroke-width:1.0;" x1="80" x2="88" y1="292.3594" y2="292.3594"/><!--SRC=[lPFDYi8m54RtVOgx68QHmKph3oYKWZYpr8tYHaHQUvL2sfGcCehwxjQYhKtJ4ZTkiicvttUQ9jobmZWP0ATvkW1yW_svPTJ7n07RSpw-PepkHS2Yto1fsJ-Uar4f9u4xZ31n1VhhVKYVk1ifeMCMSIOO6SMnTIFX3EqsB4USO-ZH8qpT45VvU1QWJYZLF4W9BPSyLvScxxFPS43HWGrrEJTDYyJfzsYXdMQqK5e4-3zXFbAr5ydtfQn7MgMvgsgkfNkwdasEB_drgurwjuECMO9lko8QHrBsgQZg7iZWfHysLDCvBpd-7GH6F7snlC6K59GYk8YMPIopJgPX9dz45-Do1G00]--></g></svg>