<?xml version="1.0" encoding="us-ascii" standalone="no"?><svg xmlns="http://www.w3.org/2000/svg" xmlns:xlink="http://www.w3.org/1999/xlink" contentStyleType="text/css" height="101px" preserveAspectRatio="none" style="width:193px;height:101px;background:#FFFFFF;" version="1.1" viewBox="0 0 193 101" width="193px" zoomAndPan="magnify"><defs/><g><!--class ClassA--><g id="elem_ClassA"><rect codeLine="1" fill="#F1F1F1" height="80.5938" id="ClassA" rx="2.5" ry="2.5" style="stroke:#181818;stroke-width:0.5;" width="172" x="7" y="7"/><ellipse cx="65.75" cy="23" fill="#ADD1B2" rx="11" ry="11" style="stroke:#181818;stroke-width:1.0;"/><path d="M68.7188,28.6406 Q68.1406,28.9375 67.5,29.0781 Q66.8594,29.2344 66.1563,29.2344 Q63.6563,29.2344 62.3281,27.5938 Q61.0156,25.9375 61.0156,22.8125 Q61.0156,19.6875 62.3281,18.0313 Q63.6563,16.375 66.1563,16.375 Q66.8594,16.375 67.5,16.5313 Q68.1563,16.6875 68.7188,16.9844 L68.7188,19.7031 Q68.0938,19.125 67.5,18.8594 Q66.9063,18.5781 66.2813,18.5781 Q64.9375,18.5781 64.25,19.6563 Q63.5625,20.7188 63.5625,22.8125 Q63.5625,24.9063 64.25,25.9844 Q64.9375,27.0469 66.2813,27.0469 Q66.9063,27.0469 67.5,26.7813 Q68.0938,26.5 68.7188,25.9219 L68.7188,28.6406 Z " fill="#000000"/><text fill="#000000" font-family="sans-serif" font-size="14" lengthAdjust="spacing" textLength="46" x="86.25" y="27.8467">ClassA</text><line style="stroke:#181818;stroke-width:0.5;" x1="8" x2="178" y1="39" y2="39"/><ellipse cx="18" cy="52.6484" fill="none" rx="3" ry="3" style="stroke:#038048;stroke-width:1.0;"/><text fill="#000000" font-family="sans-serif" font-size="14" lengthAdjust="spacing" textLength="124" x="27" y="55.9951">X : int &#171;get&#187;&#171;set&#187;</text><polygon fill="none" points="18,63.9453,22,67.9453,18,71.9453,14,67.9453" style="stroke:#B38D22;stroke-width:1.0;"/><text fill="#000000" font-family="sans-serif" font-size="14" lengthAdjust="spacing" textLength="146" x="27" y="72.292">A : string &#171;get&#187;&#171;set&#187;</text><line style="stroke:#181818;stroke-width:0.5;" x1="8" x2="178" y1="79.5938" y2="79.5938"/></g><!--SRC=[Iyv9B2vMS0QHZjLS2a2WhH2XOAMGcLUYO6EJdbfYPsTZKmoYm9BA2ev0oUAIeioyT7JvMW00]--></g></svg>