<?xml version="1.0" encoding="us-ascii" standalone="no"?><svg xmlns="http://www.w3.org/2000/svg" xmlns:xlink="http://www.w3.org/1999/xlink" contentStyleType="text/css" height="451px" preserveAspectRatio="none" style="width:1294px;height:451px;background:#FFFFFF;" version="1.1" viewBox="0 0 1294 451" width="1294px" zoomAndPan="magnify"><defs/><g><!--class Parent::ChiledA::GrandchildA::GreatGrandchild--><g id="elem_Parent::ChiledA::GrandchildA::GreatGrandchild"><rect codeLine="1" fill="#F1F1F1" height="64.2969" id="Parent::ChiledA::GrandchildA::GreatGrandchild" rx="2.5" ry="2.5" style="stroke:#181818;stroke-width:0.5;" width="354" x="397.5" y="379.89"/><ellipse cx="412.5" cy="395.89" fill="#ADD1B2" rx="11" ry="11" style="stroke:#181818;stroke-width:1.0;"/><path d="M415.4688,401.5306 Q414.8906,401.8275 414.25,401.9681 Q413.6094,402.1244 412.9063,402.1244 Q410.4063,402.1244 409.0781,400.4838 Q407.7656,398.8275 407.7656,395.7025 Q407.7656,392.5775 409.0781,390.9213 Q410.4063,389.265 412.9063,389.265 Q413.6094,389.265 414.25,389.4213 Q414.9063,389.5775 415.4688,389.8744 L415.4688,392.5931 Q414.8438,392.015 414.25,391.7494 Q413.6563,391.4681 413.0313,391.4681 Q411.6875,391.4681 411,392.5463 Q410.3125,393.6088 410.3125,395.7025 Q410.3125,397.7963 411,398.8744 Q411.6875,399.9369 413.0313,399.9369 Q413.6563,399.9369 414.25,399.6713 Q414.8438,399.39 415.4688,398.8119 L415.4688,401.5306 Z " fill="#000000"/><text fill="#000000" font-family="sans-serif" font-size="14" lengthAdjust="spacing" textLength="322" x="426.5" y="400.7367">Parent::ChiledA::GrandchildA::GreatGrandchild</text><line style="stroke:#181818;stroke-width:0.5;" x1="398.5" x2="750.5" y1="411.89" y2="411.89"/><line style="stroke:#181818;stroke-width:0.5;" x1="398.5" x2="750.5" y1="419.89" y2="419.89"/><ellipse cx="408.5" cy="433.5384" fill="#84BE84" rx="3" ry="3" style="stroke:#038048;stroke-width:1.0;"/><text fill="#000000" font-family="sans-serif" font-size="14" lengthAdjust="spacing" textLength="122" x="417.5" y="436.8851">GreatGrandchild()</text></g><!--class Parent::ChiledA::GrandchildB::GreatGrandchild--><g id="elem_Parent::ChiledA::GrandchildB::GreatGrandchild"><rect codeLine="5" fill="#F1F1F1" height="64.2969" id="Parent::ChiledA::GrandchildB::GreatGrandchild" rx="2.5" ry="2.5" style="stroke:#181818;stroke-width:0.5;" width="355" x="7" y="379.89"/><ellipse cx="22" cy="395.89" fill="#ADD1B2" rx="11" ry="11" style="stroke:#181818;stroke-width:1.0;"/><path d="M24.9688,401.5306 Q24.3906,401.8275 23.75,401.9681 Q23.1094,402.1244 22.4063,402.1244 Q19.9063,402.1244 18.5781,400.4838 Q17.2656,398.8275 17.2656,395.7025 Q17.2656,392.5775 18.5781,390.9213 Q19.9063,389.265 22.4063,389.265 Q23.1094,389.265 23.75,389.4213 Q24.4063,389.5775 24.9688,389.8744 L24.9688,392.5931 Q24.3438,392.015 23.75,391.7494 Q23.1563,391.4681 22.5313,391.4681 Q21.1875,391.4681 20.5,392.5463 Q19.8125,393.6088 19.8125,395.7025 Q19.8125,397.7963 20.5,398.8744 Q21.1875,399.9369 22.5313,399.9369 Q23.1563,399.9369 23.75,399.6713 Q24.3438,399.39 24.9688,398.8119 L24.9688,401.5306 Z " fill="#000000"/><text fill="#000000" font-family="sans-serif" font-size="14" lengthAdjust="spacing" textLength="323" x="36" y="400.7367">Parent::ChiledA::GrandchildB::GreatGrandchild</text><line style="stroke:#181818;stroke-width:0.5;" x1="8" x2="361" y1="411.89" y2="411.89"/><line style="stroke:#181818;stroke-width:0.5;" x1="8" x2="361" y1="419.89" y2="419.89"/><ellipse cx="18" cy="433.5384" fill="#84BE84" rx="3" ry="3" style="stroke:#038048;stroke-width:1.0;"/><text fill="#000000" font-family="sans-serif" font-size="14" lengthAdjust="spacing" textLength="122" x="27" y="436.8851">GreatGrandchild()</text></g><!--class Parent::ChiledA::GrandchildB--><g id="elem_Parent::ChiledA::GrandchildB"><rect codeLine="9" fill="#F1F1F1" height="64.2969" id="Parent::ChiledA::GrandchildB" rx="2.5" ry="2.5" style="stroke:#181818;stroke-width:0.5;" width="233" x="130" y="255.6"/><ellipse cx="145" cy="271.6" fill="#ADD1B2" rx="11" ry="11" style="stroke:#181818;stroke-width:1.0;"/><path d="M147.9688,277.2406 Q147.3906,277.5375 146.75,277.6781 Q146.1094,277.8344 145.4063,277.8344 Q142.9063,277.8344 141.5781,276.1937 Q140.2656,274.5375 140.2656,271.4125 Q140.2656,268.2875 141.5781,266.6312 Q142.9063,264.975 145.4063,264.975 Q146.1094,264.975 146.75,265.1312 Q147.4063,265.2875 147.9688,265.5844 L147.9688,268.3031 Q147.3438,267.725 146.75,267.4594 Q146.1563,267.1781 145.5313,267.1781 Q144.1875,267.1781 143.5,268.2562 Q142.8125,269.3187 142.8125,271.4125 Q142.8125,273.5062 143.5,274.5844 Q144.1875,275.6469 145.5313,275.6469 Q146.1563,275.6469 146.75,275.3812 Q147.3438,275.1 147.9688,274.5219 L147.9688,277.2406 Z " fill="#000000"/><text fill="#000000" font-family="sans-serif" font-size="14" lengthAdjust="spacing" textLength="201" x="159" y="276.4467">Parent::ChiledA::GrandchildB</text><line style="stroke:#181818;stroke-width:0.5;" x1="131" x2="362" y1="287.6" y2="287.6"/><line style="stroke:#181818;stroke-width:0.5;" x1="131" x2="362" y1="295.6" y2="295.6"/><ellipse cx="141" cy="309.2484" fill="#84BE84" rx="3" ry="3" style="stroke:#038048;stroke-width:1.0;"/><text fill="#000000" font-family="sans-serif" font-size="14" lengthAdjust="spacing" textLength="94" x="150" y="312.5951">GrandchildB()</text></g><!--class Parent::ChiledA::GrandchildA--><g id="elem_Parent::ChiledA::GrandchildA"><rect codeLine="14" fill="#F1F1F1" height="64.2969" id="Parent::ChiledA::GrandchildA" rx="2.5" ry="2.5" style="stroke:#181818;stroke-width:0.5;" width="232" x="458.5" y="255.6"/><ellipse cx="473.5" cy="271.6" fill="#ADD1B2" rx="11" ry="11" style="stroke:#181818;stroke-width:1.0;"/><path d="M476.4688,277.2406 Q475.8906,277.5375 475.25,277.6781 Q474.6094,277.8344 473.9063,277.8344 Q471.4063,277.8344 470.0781,276.1937 Q468.7656,274.5375 468.7656,271.4125 Q468.7656,268.2875 470.0781,266.6312 Q471.4063,264.975 473.9063,264.975 Q474.6094,264.975 475.25,265.1312 Q475.9063,265.2875 476.4688,265.5844 L476.4688,268.3031 Q475.8438,267.725 475.25,267.4594 Q474.6563,267.1781 474.0313,267.1781 Q472.6875,267.1781 472,268.2562 Q471.3125,269.3187 471.3125,271.4125 Q471.3125,273.5062 472,274.5844 Q472.6875,275.6469 474.0313,275.6469 Q474.6563,275.6469 475.25,275.3812 Q475.8438,275.1 476.4688,274.5219 L476.4688,277.2406 Z " fill="#000000"/><text fill="#000000" font-family="sans-serif" font-size="14" lengthAdjust="spacing" textLength="200" x="487.5" y="276.4467">Parent::ChiledA::GrandchildA</text><line style="stroke:#181818;stroke-width:0.5;" x1="459.5" x2="689.5" y1="287.6" y2="287.6"/><line style="stroke:#181818;stroke-width:0.5;" x1="459.5" x2="689.5" y1="295.6" y2="295.6"/><ellipse cx="469.5" cy="309.2484" fill="#84BE84" rx="3" ry="3" style="stroke:#038048;stroke-width:1.0;"/><text fill="#000000" font-family="sans-serif" font-size="14" lengthAdjust="spacing" textLength="93" x="478.5" y="312.5951">GrandchildA()</text></g><!--class Parent::ChiledA--><g id="elem_Parent::ChiledA"><rect codeLine="19" fill="#F1F1F1" height="64.2969" id="Parent::ChiledA" rx="2.5" ry="2.5" style="stroke:#181818;stroke-width:0.5;" width="139" x="505" y="131.3"/><ellipse cx="520" cy="147.3" fill="#ADD1B2" rx="11" ry="11" style="stroke:#181818;stroke-width:1.0;"/><path d="M522.9688,152.9406 Q522.3906,153.2375 521.75,153.3781 Q521.1094,153.5344 520.4063,153.5344 Q517.9063,153.5344 516.5781,151.8938 Q515.2656,150.2375 515.2656,147.1125 Q515.2656,143.9875 516.5781,142.3313 Q517.9063,140.675 520.4063,140.675 Q521.1094,140.675 521.75,140.8313 Q522.4063,140.9875 522.9688,141.2844 L522.9688,144.0031 Q522.3438,143.425 521.75,143.1594 Q521.1563,142.8781 520.5313,142.8781 Q519.1875,142.8781 518.5,143.9563 Q517.8125,145.0188 517.8125,147.1125 Q517.8125,149.2063 518.5,150.2844 Q519.1875,151.3469 520.5313,151.3469 Q521.1563,151.3469 521.75,151.0813 Q522.3438,150.8 522.9688,150.2219 L522.9688,152.9406 Z " fill="#000000"/><text fill="#000000" font-family="sans-serif" font-size="14" lengthAdjust="spacing" textLength="107" x="534" y="152.1467">Parent::ChiledA</text><line style="stroke:#181818;stroke-width:0.5;" x1="506" x2="643" y1="163.3" y2="163.3"/><line style="stroke:#181818;stroke-width:0.5;" x1="506" x2="643" y1="171.3" y2="171.3"/><ellipse cx="516" cy="184.9484" fill="#84BE84" rx="3" ry="3" style="stroke:#038048;stroke-width:1.0;"/><text fill="#000000" font-family="sans-serif" font-size="14" lengthAdjust="spacing" textLength="62" x="525" y="188.2951">ChiledA()</text></g><!--class Parent::ChildeB::GrandchildA::GreatGrandchild--><g id="elem_Parent::ChildeB::GrandchildA::GreatGrandchild"><rect codeLine="25" fill="#F1F1F1" height="64.2969" id="Parent::ChildeB::GrandchildA::GreatGrandchild" rx="2.5" ry="2.5" style="stroke:#181818;stroke-width:0.5;" width="355" x="787" y="379.89"/><ellipse cx="802" cy="395.89" fill="#ADD1B2" rx="11" ry="11" style="stroke:#181818;stroke-width:1.0;"/><path d="M804.9688,401.5306 Q804.3906,401.8275 803.75,401.9681 Q803.1094,402.1244 802.4063,402.1244 Q799.9063,402.1244 798.5781,400.4838 Q797.2656,398.8275 797.2656,395.7025 Q797.2656,392.5775 798.5781,390.9213 Q799.9063,389.265 802.4063,389.265 Q803.1094,389.265 803.75,389.4213 Q804.4063,389.5775 804.9688,389.8744 L804.9688,392.5931 Q804.3438,392.015 803.75,391.7494 Q803.1563,391.4681 802.5313,391.4681 Q801.1875,391.4681 800.5,392.5463 Q799.8125,393.6088 799.8125,395.7025 Q799.8125,397.7963 800.5,398.8744 Q801.1875,399.9369 802.5313,399.9369 Q803.1563,399.9369 803.75,399.6713 Q804.3438,399.39 804.9688,398.8119 L804.9688,401.5306 Z " fill="#000000"/><text fill="#000000" font-family="sans-serif" font-size="14" lengthAdjust="spacing" textLength="323" x="816" y="400.7367">Parent::ChildeB::GrandchildA::GreatGrandchild</text><line style="stroke:#181818;stroke-width:0.5;" x1="788" x2="1141" y1="411.89" y2="411.89"/><line style="stroke:#181818;stroke-width:0.5;" x1="788" x2="1141" y1="419.89" y2="419.89"/><ellipse cx="798" cy="433.5384" fill="#84BE84" rx="3" ry="3" style="stroke:#038048;stroke-width:1.0;"/><text fill="#000000" font-family="sans-serif" font-size="14" lengthAdjust="spacing" textLength="122" x="807" y="436.8851">GreatGrandchild()</text></g><!--class Parent::ChildeB::GrandchildA--><g id="elem_Parent::ChildeB::GrandchildA"><rect codeLine="29" fill="#F1F1F1" height="64.2969" id="Parent::ChildeB::GrandchildA" rx="2.5" ry="2.5" style="stroke:#181818;stroke-width:0.5;" width="233" x="786" y="255.6"/><ellipse cx="801" cy="271.6" fill="#ADD1B2" rx="11" ry="11" style="stroke:#181818;stroke-width:1.0;"/><path d="M803.9688,277.2406 Q803.3906,277.5375 802.75,277.6781 Q802.1094,277.8344 801.4063,277.8344 Q798.9063,277.8344 797.5781,276.1937 Q796.2656,274.5375 796.2656,271.4125 Q796.2656,268.2875 797.5781,266.6312 Q798.9063,264.975 801.4063,264.975 Q802.1094,264.975 802.75,265.1312 Q803.4063,265.2875 803.9688,265.5844 L803.9688,268.3031 Q803.3438,267.725 802.75,267.4594 Q802.1563,267.1781 801.5313,267.1781 Q800.1875,267.1781 799.5,268.2562 Q798.8125,269.3187 798.8125,271.4125 Q798.8125,273.5062 799.5,274.5844 Q800.1875,275.6469 801.5313,275.6469 Q802.1563,275.6469 802.75,275.3812 Q803.3438,275.1 803.9688,274.5219 L803.9688,277.2406 Z " fill="#000000"/><text fill="#000000" font-family="sans-serif" font-size="14" lengthAdjust="spacing" textLength="201" x="815" y="276.4467">Parent::ChildeB::GrandchildA</text><line style="stroke:#181818;stroke-width:0.5;" x1="787" x2="1018" y1="287.6" y2="287.6"/><line style="stroke:#181818;stroke-width:0.5;" x1="787" x2="1018" y1="295.6" y2="295.6"/><ellipse cx="797" cy="309.2484" fill="#84BE84" rx="3" ry="3" style="stroke:#038048;stroke-width:1.0;"/><text fill="#000000" font-family="sans-serif" font-size="14" lengthAdjust="spacing" textLength="93" x="806" y="312.5951">GrandchildA()</text></g><!--class Parent::ChildeB::GrandchildB--><g id="elem_Parent::ChildeB::GrandchildB"><rect codeLine="34" fill="#F1F1F1" height="64.2969" id="Parent::ChildeB::GrandchildB" rx="2.5" ry="2.5" style="stroke:#181818;stroke-width:0.5;" width="234" x="1053.5" y="255.6"/><ellipse cx="1068.5" cy="271.6" fill="#ADD1B2" rx="11" ry="11" style="stroke:#181818;stroke-width:1.0;"/><path d="M1071.4688,277.2406 Q1070.8906,277.5375 1070.25,277.6781 Q1069.6094,277.8344 1068.9063,277.8344 Q1066.4063,277.8344 1065.0781,276.1937 Q1063.7656,274.5375 1063.7656,271.4125 Q1063.7656,268.2875 1065.0781,266.6312 Q1066.4063,264.975 1068.9063,264.975 Q1069.6094,264.975 1070.25,265.1312 Q1070.9063,265.2875 1071.4688,265.5844 L1071.4688,268.3031 Q1070.8438,267.725 1070.25,267.4594 Q1069.6563,267.1781 1069.0313,267.1781 Q1067.6875,267.1781 1067,268.2562 Q1066.3125,269.3187 1066.3125,271.4125 Q1066.3125,273.5062 1067,274.5844 Q1067.6875,275.6469 1069.0313,275.6469 Q1069.6563,275.6469 1070.25,275.3812 Q1070.8438,275.1 1071.4688,274.5219 L1071.4688,277.2406 Z " fill="#000000"/><text fill="#000000" font-family="sans-serif" font-size="14" lengthAdjust="spacing" textLength="202" x="1082.5" y="276.4467">Parent::ChildeB::GrandchildB</text><line style="stroke:#181818;stroke-width:0.5;" x1="1054.5" x2="1286.5" y1="287.6" y2="287.6"/><line style="stroke:#181818;stroke-width:0.5;" x1="1054.5" x2="1286.5" y1="295.6" y2="295.6"/><ellipse cx="1064.5" cy="309.2484" fill="#84BE84" rx="3" ry="3" style="stroke:#038048;stroke-width:1.0;"/><text fill="#000000" font-family="sans-serif" font-size="14" lengthAdjust="spacing" textLength="94" x="1073.5" y="312.5951">GrandchildB()</text></g><!--class Parent::ChildeB--><g id="elem_Parent::ChildeB"><rect codeLine="38" fill="#F1F1F1" height="64.2969" id="Parent::ChildeB" rx="2.5" ry="2.5" style="stroke:#181818;stroke-width:0.5;" width="140" x="832.5" y="131.3"/><ellipse cx="847.5" cy="147.3" fill="#ADD1B2" rx="11" ry="11" style="stroke:#181818;stroke-width:1.0;"/><path d="M850.4688,152.9406 Q849.8906,153.2375 849.25,153.3781 Q848.6094,153.5344 847.9063,153.5344 Q845.4063,153.5344 844.0781,151.8938 Q842.7656,150.2375 842.7656,147.1125 Q842.7656,143.9875 844.0781,142.3313 Q845.4063,140.675 847.9063,140.675 Q848.6094,140.675 849.25,140.8313 Q849.9063,140.9875 850.4688,141.2844 L850.4688,144.0031 Q849.8438,143.425 849.25,143.1594 Q848.6563,142.8781 848.0313,142.8781 Q846.6875,142.8781 846,143.9563 Q845.3125,145.0188 845.3125,147.1125 Q845.3125,149.2063 846,150.2844 Q846.6875,151.3469 848.0313,151.3469 Q848.6563,151.3469 849.25,151.0813 Q849.8438,150.8 850.4688,150.2219 L850.4688,152.9406 Z " fill="#000000"/><text fill="#000000" font-family="sans-serif" font-size="14" lengthAdjust="spacing" textLength="108" x="861.5" y="152.1467">Parent::ChildeB</text><line style="stroke:#181818;stroke-width:0.5;" x1="833.5" x2="971.5" y1="163.3" y2="163.3"/><line style="stroke:#181818;stroke-width:0.5;" x1="833.5" x2="971.5" y1="171.3" y2="171.3"/><ellipse cx="843.5" cy="184.9484" fill="#84BE84" rx="3" ry="3" style="stroke:#038048;stroke-width:1.0;"/><text fill="#000000" font-family="sans-serif" font-size="14" lengthAdjust="spacing" textLength="63" x="852.5" y="188.2951">ChildeB()</text></g><!--class Parent--><g id="elem_Parent"><rect codeLine="44" fill="#F1F1F1" height="64.2969" id="Parent" rx="2.5" ry="2.5" style="stroke:#181818;stroke-width:0.5;" width="81" x="667" y="7"/><ellipse cx="683.8" cy="23" fill="#ADD1B2" rx="11" ry="11" style="stroke:#181818;stroke-width:1.0;"/><path d="M686.7688,28.6406 Q686.1906,28.9375 685.55,29.0781 Q684.9094,29.2344 684.2063,29.2344 Q681.7063,29.2344 680.3781,27.5938 Q679.0656,25.9375 679.0656,22.8125 Q679.0656,19.6875 680.3781,18.0313 Q681.7063,16.375 684.2063,16.375 Q684.9094,16.375 685.55,16.5313 Q686.2063,16.6875 686.7688,16.9844 L686.7688,19.7031 Q686.1438,19.125 685.55,18.8594 Q684.9563,18.5781 684.3313,18.5781 Q682.9875,18.5781 682.3,19.6563 Q681.6125,20.7188 681.6125,22.8125 Q681.6125,24.9063 682.3,25.9844 Q682.9875,27.0469 684.3313,27.0469 Q684.9563,27.0469 685.55,26.7813 Q686.1438,26.5 686.7688,25.9219 L686.7688,28.6406 Z " fill="#000000"/><text fill="#000000" font-family="sans-serif" font-size="14" lengthAdjust="spacing" textLength="45" x="698.2" y="27.8467">Parent</text><line style="stroke:#181818;stroke-width:0.5;" x1="668" x2="747" y1="39" y2="39"/><line style="stroke:#181818;stroke-width:0.5;" x1="668" x2="747" y1="47" y2="47"/><ellipse cx="678" cy="60.6484" fill="#84BE84" rx="3" ry="3" style="stroke:#038048;stroke-width:1.0;"/><text fill="#000000" font-family="sans-serif" font-size="14" lengthAdjust="spacing" textLength="55" x="687" y="63.9951">Parent()</text></g><!--reverse link Parent::ChiledA::GrandchildB to Parent::ChiledA::GrandchildB::GreatGrandchild--><g id="link_Parent::ChiledA::GrandchildB_Parent::ChiledA::GrandchildB::GreatGrandchild"><path codeLine="12" d="M223.2996,334.5131 C214.0496,352.7731 209.66,361.41 200.41,379.65 " fill="none" id="Parent::ChiledA::GrandchildB-backto-Parent::ChiledA::GrandchildB::GreatGrandchild" style="stroke:#181818;stroke-width:1.0;stroke-dasharray:7.0,7.0;"/><ellipse cx="226.9148" cy="327.3766" fill="#FFFFFF" rx="8" ry="8" style="stroke:#181818;stroke-width:1.0;"/><line style="stroke:#181818;stroke-width:1.0;" x1="223.2996" x2="230.53" y1="334.5131" y2="320.24"/><line style="stroke:#181818;stroke-width:1.0;" x1="219.7783" x2="234.0514" y1="323.7614" y2="330.9917"/></g><!--reverse link Parent::ChiledA::GrandchildA to Parent::ChiledA::GrandchildA::GreatGrandchild--><g id="link_Parent::ChiledA::GrandchildA_Parent::ChiledA::GrandchildA::GreatGrandchild"><path codeLine="17" d="M574.5,336.24 C574.5,354.5 574.5,361.41 574.5,379.65 " fill="none" id="Parent::ChiledA::GrandchildA-backto-Parent::ChiledA::GrandchildA::GreatGrandchild" style="stroke:#181818;stroke-width:1.0;stroke-dasharray:7.0,7.0;"/><ellipse cx="574.5" cy="328.24" fill="#FFFFFF" rx="8" ry="8" style="stroke:#181818;stroke-width:1.0;"/><line style="stroke:#181818;stroke-width:1.0;" x1="574.5" x2="574.5" y1="336.24" y2="320.24"/><line style="stroke:#181818;stroke-width:1.0;" x1="566.5" x2="582.5" y1="328.24" y2="328.24"/></g><!--reverse link Parent::ChiledA to Parent::ChiledA::GrandchildA--><g id="link_Parent::ChiledA_Parent::ChiledA::GrandchildA"><path codeLine="22" d="M574.5,211.94 C574.5,230.2 574.5,237.12 574.5,255.36 " fill="none" id="Parent::ChiledA-backto-Parent::ChiledA::GrandchildA" style="stroke:#181818;stroke-width:1.0;stroke-dasharray:7.0,7.0;"/><ellipse cx="574.5" cy="203.94" fill="#FFFFFF" rx="8" ry="8" style="stroke:#181818;stroke-width:1.0;"/><line style="stroke:#181818;stroke-width:1.0;" x1="574.5" x2="574.5" y1="211.94" y2="195.94"/><line style="stroke:#181818;stroke-width:1.0;" x1="566.5" x2="582.5" y1="203.94" y2="203.94"/></g><!--reverse link Parent::ChiledA to Parent::ChiledA::GrandchildB--><g id="link_Parent::ChiledA_Parent::ChiledA::GrandchildB"><path codeLine="23" d="M489.5484,196.1204 C438.8384,215.0304 385.01,235.1 331.2,255.16 " fill="none" id="Parent::ChiledA-backto-Parent::ChiledA::GrandchildB" style="stroke:#181818;stroke-width:1.0;stroke-dasharray:7.0,7.0;"/><ellipse cx="497.0442" cy="193.3252" fill="#FFFFFF" rx="8" ry="8" style="stroke:#181818;stroke-width:1.0;"/><line style="stroke:#181818;stroke-width:1.0;" x1="489.5484" x2="504.54" y1="196.1204" y2="190.53"/><line style="stroke:#181818;stroke-width:1.0;" x1="494.249" x2="499.8394" y1="185.8294" y2="200.821"/></g><!--reverse link Parent::ChildeB::GrandchildA to Parent::ChildeB::GrandchildA::GreatGrandchild--><g id="link_Parent::ChildeB::GrandchildA_Parent::ChildeB::GrandchildA::GreatGrandchild"><path codeLine="32" d="M925.7004,334.5131 C934.9504,352.7731 939.34,361.41 948.59,379.65 " fill="none" id="Parent::ChildeB::GrandchildA-backto-Parent::ChildeB::GrandchildA::GreatGrandchild" style="stroke:#181818;stroke-width:1.0;stroke-dasharray:7.0,7.0;"/><ellipse cx="922.0852" cy="327.3766" fill="#FFFFFF" rx="8" ry="8" style="stroke:#181818;stroke-width:1.0;"/><line style="stroke:#181818;stroke-width:1.0;" x1="925.7004" x2="918.47" y1="334.5131" y2="320.24"/><line style="stroke:#181818;stroke-width:1.0;" x1="914.9486" x2="929.2217" y1="330.9917" y2="323.7614"/></g><!--reverse link Parent::ChildeB to Parent::ChildeB::GrandchildA--><g id="link_Parent::ChildeB_Parent::ChildeB::GrandchildA"><path codeLine="41" d="M902.5,211.94 C902.5,230.2 902.5,237.12 902.5,255.36 " fill="none" id="Parent::ChildeB-backto-Parent::ChildeB::GrandchildA" style="stroke:#181818;stroke-width:1.0;stroke-dasharray:7.0,7.0;"/><ellipse cx="902.5" cy="203.94" fill="#FFFFFF" rx="8" ry="8" style="stroke:#181818;stroke-width:1.0;"/><line style="stroke:#181818;stroke-width:1.0;" x1="902.5" x2="902.5" y1="211.94" y2="195.94"/><line style="stroke:#181818;stroke-width:1.0;" x1="894.5" x2="910.5" y1="203.94" y2="203.94"/></g><!--reverse link Parent::ChildeB to Parent::ChildeB::GrandchildB--><g id="link_Parent::ChildeB_Parent::ChildeB::GrandchildB"><path codeLine="42" d="M986.076,202.5826 C1025.936,220.7726 1061.35,236.94 1101.25,255.14 " fill="none" id="Parent::ChildeB-backto-Parent::ChildeB::GrandchildB" style="stroke:#181818;stroke-width:1.0;stroke-dasharray:7.0,7.0;"/><ellipse cx="978.798" cy="199.2613" fill="#FFFFFF" rx="8" ry="8" style="stroke:#181818;stroke-width:1.0;"/><line style="stroke:#181818;stroke-width:1.0;" x1="986.076" x2="971.52" y1="202.5826" y2="195.94"/><line style="stroke:#181818;stroke-width:1.0;" x1="975.4767" x2="982.1193" y1="206.5393" y2="191.9833"/></g><!--reverse link Parent to Parent::ChiledA--><g id="link_Parent_Parent::ChiledA"><path codeLine="47" d="M661.4688,82.4761 C641.6088,100.7261 628.47,112.82 608.63,131.06 " fill="none" id="Parent-backto-Parent::ChiledA" style="stroke:#181818;stroke-width:1.0;stroke-dasharray:7.0,7.0;"/><ellipse cx="667.3594" cy="77.063" fill="#FFFFFF" rx="8" ry="8" style="stroke:#181818;stroke-width:1.0;"/><line style="stroke:#181818;stroke-width:1.0;" x1="661.4688" x2="673.25" y1="82.4761" y2="71.65"/><line style="stroke:#181818;stroke-width:1.0;" x1="661.9464" x2="672.7725" y1="71.1725" y2="82.9536"/></g><!--reverse link Parent to Parent::ChildeB--><g id="link_Parent_Parent::ChildeB"><path codeLine="48" d="M761.9344,74.2917 C792.1944,93.2717 820.05,110.74 852.32,130.98 " fill="none" id="Parent-backto-Parent::ChildeB" style="stroke:#181818;stroke-width:1.0;stroke-dasharray:7.0,7.0;"/><ellipse cx="755.1572" cy="70.0409" fill="#FFFFFF" rx="8" ry="8" style="stroke:#181818;stroke-width:1.0;"/><line style="stroke:#181818;stroke-width:1.0;" x1="761.9344" x2="748.38" y1="74.2917" y2="65.79"/><line style="stroke:#181818;stroke-width:1.0;" x1="750.9063" x2="759.408" y1="76.818" y2="63.2637"/></g><!--SRC=[Iyv9B2vM24WiIiqhiR9opiZCIKrnjB9oBqhCIqa6yY2SrCGIX8Y2GZMN0X1eAw19Q6XorN9n9HCoqOdw9Y8R01S4QyQhIrjFZpI74k4MHsnkSIJa5aT2Rd4arYq8ww42sAmcQ1kf6fomkIObrOdAAGdTHEB26aCNkcS8EfG8j-19WzWreqOKK02RkmawbLGDQ165S0I4Z-G6R56EImfe2G00]--></g></svg>