<?xml version="1.0" encoding="us-ascii" standalone="no"?><svg xmlns="http://www.w3.org/2000/svg" xmlns:xlink="http://www.w3.org/1999/xlink" contentStyleType="text/css" height="170px" preserveAspectRatio="none" style="width:97px;height:170px;background:#FFFFFF;" version="1.1" viewBox="0 0 97 170" width="97px" zoomAndPan="magnify"><defs/><g><!--class ILogger--><g id="elem_ILogger"><rect codeLine="1" fill="#F1F1F1" height="48" id="ILogger" rx="2.5" ry="2.5" style="stroke:#181818;stroke-width:0.5;" width="83" x="7" y="7"/><ellipse cx="22" cy="23" fill="#B4A7E5" rx="11" ry="11" style="stroke:#181818;stroke-width:1.0;"/><path d="M17.9219,18.7656 L17.9219,16.6094 L25.3125,16.6094 L25.3125,18.7656 L22.8438,18.7656 L22.8438,26.8438 L25.3125,26.8438 L25.3125,29 L17.9219,29 L17.9219,26.8438 L20.3906,26.8438 L20.3906,18.7656 L17.9219,18.7656 Z " fill="#000000"/><text fill="#000000" font-family="sans-serif" font-size="14" font-style="italic" lengthAdjust="spacing" textLength="51" x="36" y="27.8467">ILogger</text><line style="stroke:#181818;stroke-width:0.5;" x1="8" x2="89" y1="39" y2="39"/><line style="stroke:#181818;stroke-width:0.5;" x1="8" x2="89" y1="47" y2="47"/></g><!--class Logger--><g id="elem_Logger"><rect codeLine="4" fill="#F1F1F1" height="48" id="Logger" rx="2.5" ry="2.5" style="stroke:#181818;stroke-width:0.5;" width="80" x="8.5" y="115"/><ellipse cx="23.5" cy="131" fill="#ADD1B2" rx="11" ry="11" style="stroke:#181818;stroke-width:1.0;"/><path d="M26.4688,136.6406 Q25.8906,136.9375 25.25,137.0781 Q24.6094,137.2344 23.9063,137.2344 Q21.4063,137.2344 20.0781,135.5938 Q18.7656,133.9375 18.7656,130.8125 Q18.7656,127.6875 20.0781,126.0313 Q21.4063,124.375 23.9063,124.375 Q24.6094,124.375 25.25,124.5313 Q25.9063,124.6875 26.4688,124.9844 L26.4688,127.7031 Q25.8438,127.125 25.25,126.8594 Q24.6563,126.5781 24.0313,126.5781 Q22.6875,126.5781 22,127.6563 Q21.3125,128.7188 21.3125,130.8125 Q21.3125,132.9063 22,133.9844 Q22.6875,135.0469 24.0313,135.0469 Q24.6563,135.0469 25.25,134.7813 Q25.8438,134.5 26.4688,133.9219 L26.4688,136.6406 Z " fill="#000000"/><text fill="#000000" font-family="sans-serif" font-size="14" lengthAdjust="spacing" textLength="48" x="37.5" y="135.8467">Logger</text><line style="stroke:#181818;stroke-width:0.5;" x1="9.5" x2="87.5" y1="147" y2="147"/><line style="stroke:#181818;stroke-width:0.5;" x1="9.5" x2="87.5" y1="155" y2="155"/></g><!--reverse link ILogger to Logger--><g id="link_ILogger_Logger"><path codeLine="7" d="M48.5,73.26 C48.5,90.94 48.5,97.13 48.5,114.79 " fill="none" id="ILogger-backto-Logger" style="stroke:#181818;stroke-width:1.0;stroke-dasharray:7.0,7.0;"/><polygon fill="none" points="48.5,55.26,42.5,73.26,54.5,73.26,48.5,55.26" style="stroke:#181818;stroke-width:1.0;"/></g><!--SRC=[oymhIIrAIqnELV3qoKzFJorIgEQgvU9ApaaiBbP05e59szJewK4b0000]--></g></svg>