<?xml version="1.0" encoding="us-ascii" standalone="no"?><svg xmlns="http://www.w3.org/2000/svg" xmlns:xlink="http://www.w3.org/1999/xlink" contentStyleType="text/css" height="218px" preserveAspectRatio="none" style="width:318px;height:218px;background:#FFFFFF;" version="1.1" viewBox="0 0 318 218" width="318px" zoomAndPan="magnify"><defs/><g><!--class Parameters--><g id="elem_Parameters"><rect codeLine="1" fill="#F1F1F1" height="80.5938" id="Parameters" rx="2.5" ry="2.5" style="stroke:#181818;stroke-width:0.5;" width="151" x="83.5" y="131.3"/><ellipse cx="116.5" cy="147.3" fill="#ADD1B2" rx="11" ry="11" style="stroke:#181818;stroke-width:1.0;"/><path d="M119.4688,152.9406 Q118.8906,153.2375 118.25,153.3781 Q117.6094,153.5344 116.9063,153.5344 Q114.4063,153.5344 113.0781,151.8937 Q111.7656,150.2375 111.7656,147.1125 Q111.7656,143.9875 113.0781,142.3312 Q114.4063,140.675 116.9063,140.675 Q117.6094,140.675 118.25,140.8312 Q118.9063,140.9875 119.4688,141.2844 L119.4688,144.0031 Q118.8438,143.425 118.25,143.1594 Q117.6563,142.8781 117.0313,142.8781 Q115.6875,142.8781 115,143.9562 Q114.3125,145.0187 114.3125,147.1125 Q114.3125,149.2062 115,150.2844 Q115.6875,151.3469 117.0313,151.3469 Q117.6563,151.3469 118.25,151.0812 Q118.8438,150.8 119.4688,150.2219 L119.4688,152.9406 Z " fill="#000000"/><text fill="#000000" font-family="sans-serif" font-size="14" lengthAdjust="spacing" textLength="79" x="134.5" y="152.1467">Parameters</text><line style="stroke:#181818;stroke-width:0.5;" x1="84.5" x2="233.5" y1="163.3" y2="163.3"/><ellipse cx="94.5" cy="176.9484" fill="none" rx="3" ry="3" style="stroke:#038048;stroke-width:1.0;"/><text fill="#000000" font-family="sans-serif" font-size="14" lengthAdjust="spacing" textLength="124" x="103.5" y="180.2951">A : int &#171;get&#187;&#171;set&#187;</text><ellipse cx="94.5" cy="193.2453" fill="none" rx="3" ry="3" style="stroke:#038048;stroke-width:1.0;"/><text fill="#000000" font-family="sans-serif" font-size="14" lengthAdjust="spacing" textLength="125" x="103.5" y="196.592">B : int &#171;get&#187;&#171;set&#187;</text><line style="stroke:#181818;stroke-width:0.5;" x1="84.5" x2="233.5" y1="203.8937" y2="203.8937"/></g><!--class ClassA--><g id="elem_ClassA"><rect codeLine="5" fill="#F1F1F1" height="64.2969" id="ClassA" rx="2.5" ry="2.5" style="stroke:#181818;stroke-width:0.5;" width="304" x="7" y="7"/><ellipse cx="131.75" cy="23" fill="#ADD1B2" rx="11" ry="11" style="stroke:#181818;stroke-width:1.0;"/><path d="M134.7188,28.6406 Q134.1406,28.9375 133.5,29.0781 Q132.8594,29.2344 132.1563,29.2344 Q129.6563,29.2344 128.3281,27.5938 Q127.0156,25.9375 127.0156,22.8125 Q127.0156,19.6875 128.3281,18.0313 Q129.6563,16.375 132.1563,16.375 Q132.8594,16.375 133.5,16.5313 Q134.1563,16.6875 134.7188,16.9844 L134.7188,19.7031 Q134.0938,19.125 133.5,18.8594 Q132.9063,18.5781 132.2813,18.5781 Q130.9375,18.5781 130.25,19.6563 Q129.5625,20.7188 129.5625,22.8125 Q129.5625,24.9063 130.25,25.9844 Q130.9375,27.0469 132.2813,27.0469 Q132.9063,27.0469 133.5,26.7813 Q134.0938,26.5 134.7188,25.9219 L134.7188,28.6406 Z " fill="#000000"/><text fill="#000000" font-family="sans-serif" font-size="14" lengthAdjust="spacing" textLength="46" x="152.25" y="27.8467">ClassA</text><line style="stroke:#181818;stroke-width:0.5;" x1="8" x2="310" y1="39" y2="39"/><line style="stroke:#181818;stroke-width:0.5;" x1="8" x2="310" y1="47" y2="47"/><ellipse cx="18" cy="60.6484" fill="#84BE84" rx="3" ry="3" style="stroke:#038048;stroke-width:1.0;"/><text fill="#000000" font-family="sans-serif" font-size="14" lengthAdjust="spacing" textLength="278" x="27" y="63.9951">Execute(parameters : Parameters) : void</text></g><!--link ClassA to Parameters--><g id="link_ClassA_Parameters"><path codeLine="8" d="M159,71.72 C159,89.52 159,105.92 159,124.89 " fill="none" id="ClassA-to-Parameters" style="stroke:#181818;stroke-width:1.0;stroke-dasharray:7.0,7.0;"/><polygon fill="#181818" points="159,130.89,163,121.89,159,125.89,155,121.89,159,130.89" style="stroke:#181818;stroke-width:1.0;"/></g><!--SRC=[Iyv9B2vM24WiIinDBKajAbQevb800cq5HmKhXSoy4WKRc_JK4Zix6vjY40MLTC8kMSkL33RE6KGwmerohKXDBYr9rIX0s6A5PAKca5UMdva2r0xLgATdXoGF0000]--></g></svg>