<?xml version="1.0" encoding="us-ascii" standalone="no"?><svg xmlns="http://www.w3.org/2000/svg" xmlns:xlink="http://www.w3.org/1999/xlink" contentStyleType="text/css" height="959px" preserveAspectRatio="none" style="width:1616px;height:959px;background:#FFFFFF;" version="1.1" viewBox="0 0 1616 959" width="1616px" zoomAndPan="magnify"><defs/><g><!--class LogLevel--><g id="elem_LogLevel"><rect codeLine="1" fill="#F1F1F1" height="170.3438" id="LogLevel" rx="2.5" ry="2.5" style="stroke:#181818;stroke-width:0.5;" width="96" x="220" y="781.99"/><ellipse cx="236.8" cy="802.1228" fill="#EB937F" rx="11" ry="11" style="stroke:#181818;stroke-width:1.0;"/><path d="M240.9094,808.1228 L233.1906,808.1228 L233.1906,795.7322 L240.9094,795.7322 L240.9094,797.8884 L235.6438,797.8884 L235.6438,800.5603 L240.4094,800.5603 L240.4094,802.7166 L235.6438,802.7166 L235.6438,805.9666 L240.9094,805.9666 L240.9094,808.1228 Z " fill="#000000"/><text fill="#000000" font-family="sans-serif" font-size="12" font-style="italic" lengthAdjust="spacing" textLength="56" x="253.2" y="798.1287">&#171;sealed&#187;</text><text fill="#000000" font-family="sans-serif" font-size="14" lengthAdjust="spacing" textLength="60" x="251.2" y="813.9539">LogLevel</text><line style="stroke:#181818;stroke-width:0.5;" x1="221" x2="315" y1="822.2556" y2="822.2556"/><text fill="#000000" font-family="sans-serif" font-size="14" lengthAdjust="spacing" textLength="68" x="226" y="839.2507">Trace = 0</text><text fill="#000000" font-family="sans-serif" font-size="14" lengthAdjust="spacing" textLength="76" x="226" y="855.5476">Debug = 1</text><text fill="#000000" font-family="sans-serif" font-size="14" lengthAdjust="spacing" textLength="54" x="226" y="871.8445">Info = 2</text><text fill="#000000" font-family="sans-serif" font-size="14" lengthAdjust="spacing" textLength="64" x="226" y="888.1414">Warn = 3</text><text fill="#000000" font-family="sans-serif" font-size="14" lengthAdjust="spacing" textLength="62" x="226" y="904.4382">Error = 4</text><text fill="#000000" font-family="sans-serif" font-size="14" lengthAdjust="spacing" textLength="61" x="226" y="920.7351">Fatal = 5</text><line style="stroke:#181818;stroke-width:0.5;" x1="221" x2="315" y1="928.0369" y2="928.0369"/><ellipse cx="231" cy="941.6853" fill="#84BE84" rx="3" ry="3" style="stroke:#038048;stroke-width:1.0;"/><text fill="#000000" font-family="sans-serif" font-size="14" lengthAdjust="spacing" textLength="70" x="240" y="945.032">LogLevel()</text></g><!--class StructA--><g id="elem_StructA"><rect codeLine="10" fill="#F1F1F1" height="121.4531" id="StructA" rx="2.5" ry="2.5" style="stroke:#181818;stroke-width:0.5;" width="167" x="563.5" y="286.82"/><ellipse cx="616.75" cy="306.9528" fill="#F1F1F1" rx="11" ry="11" style="stroke:#181818;stroke-width:1.0;"/><path d="M616.2344,307.5153 Q614.375,306.8122 613.7188,306.0466 Q613.0781,305.2653 613.0781,303.9528 Q613.0781,302.2653 614.1563,301.2966 Q615.2344,300.3278 617.1094,300.3278 Q617.9688,300.3278 618.8125,300.5309 Q619.6719,300.7184 620.5156,301.1091 L620.5156,303.4997 Q619.7344,302.9372 618.9063,302.6559 Q618.0938,302.3591 617.2969,302.3591 Q616.4219,302.3591 615.9375,302.7184 Q615.4688,303.0778 615.4688,303.7341 Q615.4688,304.2497 615.8125,304.5934 Q616.1563,304.9216 617.25,305.3278 L618.3125,305.7341 Q619.7969,306.2809 620.5,307.1872 Q621.2188,308.0934 621.2188,309.4684 Q621.2188,311.3434 620.1094,312.2653 Q619,313.1872 616.75,313.1872 Q615.8281,313.1872 614.9063,312.9684 Q613.9844,312.7497 613.125,312.3278 L613.125,309.7966 Q614.0938,310.4841 615.0156,310.8278 Q615.9375,311.1716 616.8281,311.1716 Q617.7344,311.1716 618.2344,310.7653 Q618.7344,310.3434 618.7344,309.6091 Q618.7344,309.0466 618.3906,308.6403 Q618.0625,308.2184 617.4375,307.9684 L616.2344,307.5153 Z " fill="#000000"/><text fill="#000000" font-family="sans-serif" font-size="12" font-style="italic" lengthAdjust="spacing" textLength="56" x="635.25" y="302.9587">&#171;sealed&#187;</text><text fill="#000000" font-family="sans-serif" font-size="14" lengthAdjust="spacing" textLength="50" x="638.25" y="318.7839">StructA</text><line style="stroke:#181818;stroke-width:0.5;" x1="564.5" x2="729.5" y1="327.0856" y2="327.0856"/><ellipse cx="574.5" cy="340.7341" fill="none" rx="3" ry="3" style="stroke:#038048;stroke-width:1.0;"/><text fill="#000000" font-family="sans-serif" font-size="14" lengthAdjust="spacing" textLength="140" x="583.5" y="344.0807">X : float &#171;get&#187; &#171;set&#187;</text><ellipse cx="574.5" cy="357.0309" fill="none" rx="3" ry="3" style="stroke:#038048;stroke-width:1.0;"/><text fill="#000000" font-family="sans-serif" font-size="14" lengthAdjust="spacing" textLength="140" x="583.5" y="360.3776">Y : float &#171;get&#187; &#171;set&#187;</text><ellipse cx="574.5" cy="373.3278" fill="none" rx="3" ry="3" style="stroke:#038048;stroke-width:1.0;"/><text fill="#000000" font-family="sans-serif" font-size="14" lengthAdjust="spacing" textLength="141" x="583.5" y="376.6745">Z : float &#171;get&#187; &#171;set&#187;</text><line style="stroke:#181818;stroke-width:0.5;" x1="564.5" x2="729.5" y1="383.9763" y2="383.9763"/><ellipse cx="574.5" cy="397.6247" fill="#84BE84" rx="3" ry="3" style="stroke:#038048;stroke-width:1.0;"/><text fill="#000000" font-family="sans-serif" font-size="14" lengthAdjust="spacing" textLength="60" x="583.5" y="400.9714">StructA()</text></g><!--class Item--><g id="elem_Item"><rect codeLine="16" fill="#F1F1F1" height="268.125" id="Item" rx="2.5" ry="2.5" style="stroke:#181818;stroke-width:0.5;" width="385" x="765.5" y="213.49"/><ellipse cx="928.25" cy="233.6228" fill="#ADD1B2" rx="11" ry="11" style="stroke:#181818;stroke-width:1.0;"/><path d="M931.2188,239.2634 Q930.6406,239.5603 930,239.7009 Q929.3594,239.8572 928.6563,239.8572 Q926.1563,239.8572 924.8281,238.2166 Q923.5156,236.5603 923.5156,233.4353 Q923.5156,230.3103 924.8281,228.6541 Q926.1563,226.9978 928.6563,226.9978 Q929.3594,226.9978 930,227.1541 Q930.6563,227.3103 931.2188,227.6072 L931.2188,230.3259 Q930.5938,229.7478 930,229.4822 Q929.4063,229.2009 928.7813,229.2009 Q927.4375,229.2009 926.75,230.2791 Q926.0625,231.3416 926.0625,233.4353 Q926.0625,235.5291 926.75,236.6072 Q927.4375,237.6697 928.7813,237.6697 Q929.4063,237.6697 930,237.4041 Q930.5938,237.1228 931.2188,236.5447 L931.2188,239.2634 Z " fill="#000000"/><text fill="#000000" font-family="sans-serif" font-size="12" font-style="italic" lengthAdjust="spacing" textLength="55" x="946.75" y="229.6287">&#171;record&#187;</text><text fill="#000000" font-family="sans-serif" font-size="14" lengthAdjust="spacing" textLength="30" x="959.25" y="245.4539">Item</text><line style="stroke:#181818;stroke-width:0.5;" x1="766.5" x2="1149.5" y1="253.7556" y2="253.7556"/><polygon fill="none" points="776.5,262.4041,780.5,266.4041,776.5,270.4041,772.5,266.4041" style="stroke:#B38D22;stroke-width:1.0;"/><text fill="#000000" font-family="sans-serif" font-size="14" lengthAdjust="spacing" textLength="347" x="785.5" y="270.7507">&#171;readonly&#187; &#171;virtual&#187; EqualityContract : Type &#171;get&#187;</text><ellipse cx="776.5" cy="283.7009" fill="none" rx="3" ry="3" style="stroke:#038048;stroke-width:1.0;"/><text fill="#000000" font-family="sans-serif" font-size="14" lengthAdjust="spacing" textLength="181" x="785.5" y="287.0476">Name : string &#171;get&#187; &#171;set&#187;</text><ellipse cx="776.5" cy="299.9978" fill="none" rx="3" ry="3" style="stroke:#038048;stroke-width:1.0;"/><text fill="#000000" font-family="sans-serif" font-size="14" lengthAdjust="spacing" textLength="188" x="785.5" y="303.3445">Value : double &#171;get&#187; &#171;set&#187;</text><line style="stroke:#181818;stroke-width:0.5;" x1="766.5" x2="1149.5" y1="310.6463" y2="310.6463"/><ellipse cx="776.5" cy="324.2947" fill="#84BE84" rx="3" ry="3" style="stroke:#038048;stroke-width:1.0;"/><text fill="#000000" font-family="sans-serif" font-size="14" lengthAdjust="spacing" textLength="239" x="785.5" y="327.6414">Item(Name : string, Value : double)</text><ellipse cx="776.5" cy="340.5916" fill="#84BE84" rx="3" ry="3" style="stroke:#038048;stroke-width:1.0;"/><text fill="#000000" font-family="sans-serif" font-size="14" lengthAdjust="spacing" textLength="198" x="785.5" y="343.9382">&#171;override&#187; ToString() : string</text><polygon fill="#FFFF44" points="776.5,351.8884,780.5,355.8884,776.5,359.8884,772.5,355.8884" style="stroke:#B38D22;stroke-width:1.0;"/><text fill="#000000" font-family="sans-serif" font-size="14" lengthAdjust="spacing" textLength="359" x="785.5" y="360.2351">&#171;virtual&#187; PrintMembers(builder : StringBuilder) : bool</text><ellipse cx="776.5" cy="373.1853" fill="#84BE84" rx="3" ry="3" style="stroke:#038048;stroke-width:1.0;"/><text fill="#000000" font-family="sans-serif" font-size="14" lengthAdjust="spacing" text-decoration="underline" textLength="293" x="785.5" y="376.532">operator !=(left : Item?, right : Item?) : bool</text><ellipse cx="776.5" cy="389.4822" fill="#84BE84" rx="3" ry="3" style="stroke:#038048;stroke-width:1.0;"/><text fill="#000000" font-family="sans-serif" font-size="14" lengthAdjust="spacing" text-decoration="underline" textLength="300" x="785.5" y="392.8289">operator ==(left : Item?, right : Item?) : bool</text><ellipse cx="776.5" cy="405.7791" fill="#84BE84" rx="3" ry="3" style="stroke:#038048;stroke-width:1.0;"/><text fill="#000000" font-family="sans-serif" font-size="14" lengthAdjust="spacing" textLength="215" x="785.5" y="409.1257">&#171;override&#187; GetHashCode() : int</text><ellipse cx="776.5" cy="422.0759" fill="#84BE84" rx="3" ry="3" style="stroke:#038048;stroke-width:1.0;"/><text fill="#000000" font-family="sans-serif" font-size="14" lengthAdjust="spacing" textLength="261" x="785.5" y="425.4226">&#171;override&#187; Equals(obj : object?) : bool</text><ellipse cx="776.5" cy="438.3728" fill="#84BE84" rx="3" ry="3" style="stroke:#038048;stroke-width:1.0;"/><text fill="#000000" font-family="sans-serif" font-size="14" lengthAdjust="spacing" textLength="248" x="785.5" y="441.7195">&#171;virtual&#187; Equals(other : Item?) : bool</text><polygon fill="#FFFF44" points="776.5,449.6697,780.5,453.6697,776.5,457.6697,772.5,453.6697" style="stroke:#B38D22;stroke-width:1.0;"/><text fill="#000000" font-family="sans-serif" font-size="14" lengthAdjust="spacing" textLength="132" x="785.5" y="458.0164">Item(original : Item)</text><ellipse cx="776.5" cy="470.9666" fill="#84BE84" rx="3" ry="3" style="stroke:#038048;stroke-width:1.0;"/><text fill="#000000" font-family="sans-serif" font-size="14" lengthAdjust="spacing" textLength="336" x="785.5" y="474.3132">Deconstruct(Name : string, Value : double) : void</text></g><!--class IEquatable`1--><g id="elem_IEquatable`1"><rect fill="#F1F1F1" height="48" id="IEquatable`1" rx="2.5" ry="2.5" style="stroke:#181818;stroke-width:0.5;" width="120" x="1107" y="47.74"/><ellipse cx="1122" cy="63.74" fill="#ADD1B2" rx="11" ry="11" style="stroke:#181818;stroke-width:1.0;"/><path d="M1124.9688,69.3806 Q1124.3906,69.6775 1123.75,69.8181 Q1123.1094,69.9744 1122.4063,69.9744 Q1119.9063,69.9744 1118.5781,68.3338 Q1117.2656,66.6775 1117.2656,63.5525 Q1117.2656,60.4275 1118.5781,58.7713 Q1119.9063,57.115 1122.4063,57.115 Q1123.1094,57.115 1123.75,57.2713 Q1124.4063,57.4275 1124.9688,57.7244 L1124.9688,60.4431 Q1124.3438,59.865 1123.75,59.5994 Q1123.1563,59.3181 1122.5313,59.3181 Q1121.1875,59.3181 1120.5,60.3963 Q1119.8125,61.4588 1119.8125,63.5525 Q1119.8125,65.6463 1120.5,66.7244 Q1121.1875,67.7869 1122.5313,67.7869 Q1123.1563,67.7869 1123.75,67.5213 Q1124.3438,67.24 1124.9688,66.6619 L1124.9688,69.3806 Z " fill="#000000"/><text fill="#000000" font-family="sans-serif" font-size="14" lengthAdjust="spacing" textLength="88" x="1136" y="68.5867">IEquatable`1</text><line style="stroke:#181818;stroke-width:0.5;" x1="1108" x2="1226" y1="79.74" y2="79.74"/><line style="stroke:#181818;stroke-width:0.5;" x1="1108" x2="1226" y1="87.74" y2="87.74"/></g><!--class Parameters--><g id="elem_Parameters"><rect codeLine="33" fill="#F1F1F1" height="268.125" id="Parameters" rx="2.5" ry="2.5" style="stroke:#181818;stroke-width:0.5;" width="424" x="1185" y="213.49"/><ellipse cx="1353.25" cy="233.6228" fill="#ADD1B2" rx="11" ry="11" style="stroke:#181818;stroke-width:1.0;"/><path d="M1356.2188,239.2634 Q1355.6406,239.5603 1355,239.7009 Q1354.3594,239.8572 1353.6563,239.8572 Q1351.1563,239.8572 1349.8281,238.2166 Q1348.5156,236.5603 1348.5156,233.4353 Q1348.5156,230.3103 1349.8281,228.6541 Q1351.1563,226.9978 1353.6563,226.9978 Q1354.3594,226.9978 1355,227.1541 Q1355.6563,227.3103 1356.2188,227.6072 L1356.2188,230.3259 Q1355.5938,229.7478 1355,229.4822 Q1354.4063,229.2009 1353.7813,229.2009 Q1352.4375,229.2009 1351.75,230.2791 Q1351.0625,231.3416 1351.0625,233.4353 Q1351.0625,235.5291 1351.75,236.6072 Q1352.4375,237.6697 1353.7813,237.6697 Q1354.4063,237.6697 1355,237.4041 Q1355.5938,237.1228 1356.2188,236.5447 L1356.2188,239.2634 Z " fill="#000000"/><text fill="#000000" font-family="sans-serif" font-size="12" font-style="italic" lengthAdjust="spacing" textLength="55" x="1385.75" y="229.6287">&#171;record&#187;</text><text fill="#000000" font-family="sans-serif" font-size="14" lengthAdjust="spacing" textLength="79" x="1373.75" y="245.4539">Parameters</text><line style="stroke:#181818;stroke-width:0.5;" x1="1186" x2="1608" y1="253.7556" y2="253.7556"/><polygon fill="none" points="1196,262.4041,1200,266.4041,1196,270.4041,1192,266.4041" style="stroke:#B38D22;stroke-width:1.0;"/><text fill="#000000" font-family="sans-serif" font-size="14" lengthAdjust="spacing" textLength="347" x="1205" y="270.7507">&#171;readonly&#187; &#171;virtual&#187; EqualityContract : Type &#171;get&#187;</text><ellipse cx="1196" cy="283.7009" fill="none" rx="3" ry="3" style="stroke:#038048;stroke-width:1.0;"/><text fill="#000000" font-family="sans-serif" font-size="14" lengthAdjust="spacing" textLength="165" x="1205" y="287.0476">&#171;readonly&#187; X : int &#171;get&#187;</text><ellipse cx="1196" cy="299.9978" fill="none" rx="3" ry="3" style="stroke:#038048;stroke-width:1.0;"/><text fill="#000000" font-family="sans-serif" font-size="14" lengthAdjust="spacing" textLength="165" x="1205" y="303.3445">&#171;readonly&#187; Y : int &#171;get&#187;</text><line style="stroke:#181818;stroke-width:0.5;" x1="1186" x2="1608" y1="310.6463" y2="310.6463"/><ellipse cx="1196" cy="324.2947" fill="#84BE84" rx="3" ry="3" style="stroke:#038048;stroke-width:1.0;"/><text fill="#000000" font-family="sans-serif" font-size="14" lengthAdjust="spacing" textLength="171" x="1205" y="327.6414">Parameters(x : int, y : int)</text><ellipse cx="1196" cy="340.5916" fill="#84BE84" rx="3" ry="3" style="stroke:#038048;stroke-width:1.0;"/><text fill="#000000" font-family="sans-serif" font-size="14" lengthAdjust="spacing" textLength="71" x="1205" y="343.9382">Area() : int</text><ellipse cx="1196" cy="356.8884" fill="#84BE84" rx="3" ry="3" style="stroke:#038048;stroke-width:1.0;"/><text fill="#000000" font-family="sans-serif" font-size="14" lengthAdjust="spacing" textLength="198" x="1205" y="360.2351">&#171;override&#187; ToString() : string</text><polygon fill="#FFFF44" points="1196,368.1853,1200,372.1853,1196,376.1853,1192,372.1853" style="stroke:#B38D22;stroke-width:1.0;"/><text fill="#000000" font-family="sans-serif" font-size="14" lengthAdjust="spacing" textLength="359" x="1205" y="376.532">&#171;virtual&#187; PrintMembers(builder : StringBuilder) : bool</text><ellipse cx="1196" cy="389.4822" fill="#84BE84" rx="3" ry="3" style="stroke:#038048;stroke-width:1.0;"/><text fill="#000000" font-family="sans-serif" font-size="14" lengthAdjust="spacing" text-decoration="underline" textLength="391" x="1205" y="392.8289">operator !=(left : Parameters?, right : Parameters?) : bool</text><ellipse cx="1196" cy="405.7791" fill="#84BE84" rx="3" ry="3" style="stroke:#038048;stroke-width:1.0;"/><text fill="#000000" font-family="sans-serif" font-size="14" lengthAdjust="spacing" text-decoration="underline" textLength="398" x="1205" y="409.1257">operator ==(left : Parameters?, right : Parameters?) : bool</text><ellipse cx="1196" cy="422.0759" fill="#84BE84" rx="3" ry="3" style="stroke:#038048;stroke-width:1.0;"/><text fill="#000000" font-family="sans-serif" font-size="14" lengthAdjust="spacing" textLength="215" x="1205" y="425.4226">&#171;override&#187; GetHashCode() : int</text><ellipse cx="1196" cy="438.3728" fill="#84BE84" rx="3" ry="3" style="stroke:#038048;stroke-width:1.0;"/><text fill="#000000" font-family="sans-serif" font-size="14" lengthAdjust="spacing" textLength="261" x="1205" y="441.7195">&#171;override&#187; Equals(obj : object?) : bool</text><ellipse cx="1196" cy="454.6697" fill="#84BE84" rx="3" ry="3" style="stroke:#038048;stroke-width:1.0;"/><text fill="#000000" font-family="sans-serif" font-size="14" lengthAdjust="spacing" textLength="297" x="1205" y="458.0164">&#171;virtual&#187; Equals(other : Parameters?) : bool</text><polygon fill="#FFFF44" points="1196,465.9666,1200,469.9666,1196,473.9666,1192,469.9666" style="stroke:#B38D22;stroke-width:1.0;"/><text fill="#000000" font-family="sans-serif" font-size="14" lengthAdjust="spacing" textLength="230" x="1205" y="474.3132">Parameters(original : Parameters)</text></g><!--class ILogger--><g id="elem_ILogger"><rect codeLine="49" fill="#F1F1F1" height="162.0781" id="ILogger" rx="2.5" ry="2.5" style="stroke:#181818;stroke-width:0.5;" width="522" x="7" y="266.51"/><ellipse cx="238.25" cy="282.51" fill="#B4A7E5" rx="11" ry="11" style="stroke:#181818;stroke-width:1.0;"/><path d="M234.1719,278.2756 L234.1719,276.1194 L241.5625,276.1194 L241.5625,278.2756 L239.0938,278.2756 L239.0938,286.3538 L241.5625,286.3538 L241.5625,288.51 L234.1719,288.51 L234.1719,286.3538 L236.6406,286.3538 L236.6406,278.2756 L234.1719,278.2756 Z " fill="#000000"/><text fill="#000000" font-family="sans-serif" font-size="14" font-style="italic" lengthAdjust="spacing" textLength="51" x="258.75" y="287.3567">ILogger</text><line style="stroke:#181818;stroke-width:0.5;" x1="8" x2="528" y1="298.51" y2="298.51"/><line style="stroke:#181818;stroke-width:0.5;" x1="8" x2="528" y1="306.51" y2="306.51"/><ellipse cx="18" cy="320.1584" fill="#84BE84" rx="3" ry="3" style="stroke:#038048;stroke-width:1.0;"/><text fill="#000000" font-family="sans-serif" font-size="14" lengthAdjust="spacing" textLength="496" x="27" y="323.5051">Write(message : string, logLevel : LogLevel, exception : Exception) : void</text><ellipse cx="18" cy="336.4553" fill="#84BE84" rx="3" ry="3" style="stroke:#038048;stroke-width:1.0;"/><text fill="#000000" font-family="sans-serif" font-size="14" lengthAdjust="spacing" textLength="241" x="27" y="339.802">WriteTrace(message : string) : void</text><ellipse cx="18" cy="352.7522" fill="#84BE84" rx="3" ry="3" style="stroke:#038048;stroke-width:1.0;"/><text fill="#000000" font-family="sans-serif" font-size="14" lengthAdjust="spacing" textLength="249" x="27" y="356.0989">WriteDebug(message : string) : void</text><ellipse cx="18" cy="369.0491" fill="#84BE84" rx="3" ry="3" style="stroke:#038048;stroke-width:1.0;"/><text fill="#000000" font-family="sans-serif" font-size="14" lengthAdjust="spacing" textLength="227" x="27" y="372.3957">WriteInfo(message : string) : void</text><ellipse cx="18" cy="385.3459" fill="#84BE84" rx="3" ry="3" style="stroke:#038048;stroke-width:1.0;"/><text fill="#000000" font-family="sans-serif" font-size="14" lengthAdjust="spacing" textLength="237" x="27" y="388.6926">WriteWarn(message : string) : void</text><ellipse cx="18" cy="401.6428" fill="#84BE84" rx="3" ry="3" style="stroke:#038048;stroke-width:1.0;"/><text fill="#000000" font-family="sans-serif" font-size="14" lengthAdjust="spacing" textLength="392" x="27" y="404.9895">WriteError(message : string, exception : Exception) : void</text><ellipse cx="18" cy="417.9397" fill="#84BE84" rx="3" ry="3" style="stroke:#038048;stroke-width:1.0;"/><text fill="#000000" font-family="sans-serif" font-size="14" lengthAdjust="spacing" textLength="391" x="27" y="421.2864">WriteFatal(message : string, exception : Exception) : void</text></g><!--class Logger--><g id="elem_Logger"><rect codeLine="59" fill="#F1F1F1" height="178.375" id="Logger" rx="2.5" ry="2.5" style="stroke:#181818;stroke-width:0.5;" width="529" x="300.5" y="542.61"/><ellipse cx="536.75" cy="558.61" fill="#ADD1B2" rx="11" ry="11" style="stroke:#181818;stroke-width:1.0;"/><path d="M539.7188,564.2506 Q539.1406,564.5475 538.5,564.6881 Q537.8594,564.8444 537.1563,564.8444 Q534.6563,564.8444 533.3281,563.2038 Q532.0156,561.5475 532.0156,558.4225 Q532.0156,555.2975 533.3281,553.6413 Q534.6563,551.985 537.1563,551.985 Q537.8594,551.985 538.5,552.1413 Q539.1563,552.2975 539.7188,552.5944 L539.7188,555.3131 Q539.0938,554.735 538.5,554.4694 Q537.9063,554.1881 537.2813,554.1881 Q535.9375,554.1881 535.25,555.2663 Q534.5625,556.3288 534.5625,558.4225 Q534.5625,560.5163 535.25,561.5944 Q535.9375,562.6569 537.2813,562.6569 Q537.9063,562.6569 538.5,562.3913 Q539.0938,562.11 539.7188,561.5319 L539.7188,564.2506 Z " fill="#000000"/><text fill="#000000" font-family="sans-serif" font-size="14" lengthAdjust="spacing" textLength="48" x="557.25" y="563.4567">Logger</text><line style="stroke:#181818;stroke-width:0.5;" x1="301.5" x2="828.5" y1="574.61" y2="574.61"/><line style="stroke:#181818;stroke-width:0.5;" x1="301.5" x2="828.5" y1="582.61" y2="582.61"/><ellipse cx="311.5" cy="596.2584" fill="#84BE84" rx="3" ry="3" style="stroke:#038048;stroke-width:1.0;"/><text fill="#000000" font-family="sans-serif" font-size="14" lengthAdjust="spacing" textLength="503" x="320.5" y="599.6051">Write(message : string, logLevel : LogLevel, exception : Exception?) : void</text><ellipse cx="311.5" cy="612.5553" fill="#84BE84" rx="3" ry="3" style="stroke:#038048;stroke-width:1.0;"/><text fill="#000000" font-family="sans-serif" font-size="14" lengthAdjust="spacing" textLength="249" x="320.5" y="615.902">WriteDebug(message : string) : void</text><ellipse cx="311.5" cy="628.8522" fill="#84BE84" rx="3" ry="3" style="stroke:#038048;stroke-width:1.0;"/><text fill="#000000" font-family="sans-serif" font-size="14" lengthAdjust="spacing" textLength="227" x="320.5" y="632.1989">WriteInfo(message : string) : void</text><ellipse cx="311.5" cy="645.1491" fill="#84BE84" rx="3" ry="3" style="stroke:#038048;stroke-width:1.0;"/><text fill="#000000" font-family="sans-serif" font-size="14" lengthAdjust="spacing" textLength="241" x="320.5" y="648.4957">WriteTrace(message : string) : void</text><ellipse cx="311.5" cy="661.4459" fill="#84BE84" rx="3" ry="3" style="stroke:#038048;stroke-width:1.0;"/><text fill="#000000" font-family="sans-serif" font-size="14" lengthAdjust="spacing" textLength="237" x="320.5" y="664.7926">WriteWarn(message : string) : void</text><ellipse cx="311.5" cy="677.7428" fill="#84BE84" rx="3" ry="3" style="stroke:#038048;stroke-width:1.0;"/><text fill="#000000" font-family="sans-serif" font-size="14" lengthAdjust="spacing" textLength="399" x="320.5" y="681.0895">WriteError(message : string, exception : Exception?) : void</text><ellipse cx="311.5" cy="694.0397" fill="#84BE84" rx="3" ry="3" style="stroke:#038048;stroke-width:1.0;"/><text fill="#000000" font-family="sans-serif" font-size="14" lengthAdjust="spacing" textLength="398" x="320.5" y="697.3864">WriteFatal(message : string, exception : Exception?) : void</text><ellipse cx="311.5" cy="710.3366" fill="#84BE84" rx="3" ry="3" style="stroke:#038048;stroke-width:1.0;"/><text fill="#000000" font-family="sans-serif" font-size="14" lengthAdjust="spacing" textLength="58" x="320.5" y="713.6832">Logger()</text></g><!--class SampleModel--><g id="elem_SampleModel"><rect codeLine="71" fill="#F1F1F1" height="129.4844" id="SampleModel" rx="2.5" ry="2.5" style="stroke:#181818;stroke-width:0.5;" width="429" x="432.5" y="7"/><ellipse cx="596.25" cy="23" fill="#ADD1B2" rx="11" ry="11" style="stroke:#181818;stroke-width:1.0;"/><path d="M599.2188,28.6406 Q598.6406,28.9375 598,29.0781 Q597.3594,29.2344 596.6563,29.2344 Q594.1563,29.2344 592.8281,27.5938 Q591.5156,25.9375 591.5156,22.8125 Q591.5156,19.6875 592.8281,18.0313 Q594.1563,16.375 596.6563,16.375 Q597.3594,16.375 598,16.5313 Q598.6563,16.6875 599.2188,16.9844 L599.2188,19.7031 Q598.5938,19.125 598,18.8594 Q597.4063,18.5781 596.7813,18.5781 Q595.4375,18.5781 594.75,19.6563 Q594.0625,20.7188 594.0625,22.8125 Q594.0625,24.9063 594.75,25.9844 Q595.4375,27.0469 596.7813,27.0469 Q597.4063,27.0469 598,26.7813 Q598.5938,26.5 599.2188,25.9219 L599.2188,28.6406 Z " fill="#000000"/><text fill="#000000" font-family="sans-serif" font-size="14" lengthAdjust="spacing" textLength="93" x="616.75" y="27.8467">SampleModel</text><line style="stroke:#181818;stroke-width:0.5;" x1="433.5" x2="860.5" y1="39" y2="39"/><rect fill="none" height="6" style="stroke:#C82930;stroke-width:1.0;" width="6" x="440.5" y="49.6484"/><text fill="#000000" font-family="sans-serif" font-size="14" lengthAdjust="spacing" textLength="189" x="452.5" y="55.9951">&#171;readonly&#187; logger : ILogger</text><rect fill="none" height="6" style="stroke:#C82930;stroke-width:1.0;" width="6" x="440.5" y="65.9453"/><text fill="#000000" font-family="sans-serif" font-size="14" lengthAdjust="spacing" textLength="265" x="452.5" y="72.292">&#171;readonly&#187; structures : IList&lt;StructA&gt;</text><ellipse cx="443.5" cy="85.2422" fill="none" rx="3" ry="3" style="stroke:#038048;stroke-width:1.0;"/><text fill="#000000" font-family="sans-serif" font-size="14" lengthAdjust="spacing" textLength="323" x="452.5" y="88.5889">&#171;readonly&#187; Items : IReadOnlyList&lt;Item&gt; &#171;get&#187;</text><line style="stroke:#181818;stroke-width:0.5;" x1="433.5" x2="860.5" y1="95.8906" y2="95.8906"/><ellipse cx="443.5" cy="109.5391" fill="#84BE84" rx="3" ry="3" style="stroke:#038048;stroke-width:1.0;"/><text fill="#000000" font-family="sans-serif" font-size="14" lengthAdjust="spacing" textLength="403" x="452.5" y="112.8857">SampleModel(logger : ILogger, structures : IList&lt;StructA&gt;)</text><ellipse cx="443.5" cy="125.8359" fill="#84BE84" rx="3" ry="3" style="stroke:#038048;stroke-width:1.0;"/><text fill="#000000" font-family="sans-serif" font-size="14" lengthAdjust="spacing" textLength="383" x="452.5" y="129.1826">&#171;async&#187; Execute(parameters : Parameters) : ValueTask</text></g><!--reverse link IEquatable`1 to Item--><g id="link_IEquatable`1_Item"><path codeLine="31" d="M1138.2569,110.3969 C1118.0169,136.9069 1094.26,168.03 1059.95,212.99 " fill="none" id="IEquatable`1-backto-Item" style="stroke:#181818;stroke-width:1.0;stroke-dasharray:7.0,7.0;"/><polygon fill="none" points="1149.18,96.09,1133.488,106.7558,1143.0259,114.0379,1149.18,96.09" style="stroke:#181818;stroke-width:1.0;"/><text fill="#000000" font-family="sans-serif" font-size="13" lengthAdjust="spacing" textLength="51" x="1087.6208" y="115.9365">&lt;Item&gt;</text></g><!--reverse link IEquatable`1 to Parameters--><g id="link_IEquatable`1_Parameters"><path codeLine="48" d="M1198.1879,109.8723 C1220.4579,136.3823 1247.04,168.03 1284.81,212.99 " fill="none" id="IEquatable`1-backto-Parameters" style="stroke:#181818;stroke-width:1.0;stroke-dasharray:7.0,7.0;"/><polygon fill="none" points="1186.61,96.09,1193.5939,113.7316,1202.782,106.013,1186.61,96.09" style="stroke:#181818;stroke-width:1.0;"/><text fill="#000000" font-family="sans-serif" font-size="13" lengthAdjust="spacing" textLength="97" x="1203.2118" y="115.9365">&lt;Parameters&gt;</text></g><!--link ILogger to LogLevel--><g id="link_ILogger_LogLevel"><path codeLine="58" d="M268,428.86 C268,524.69 268,678.2 268,775.79 " fill="none" id="ILogger-to-LogLevel" style="stroke:#181818;stroke-width:1.0;stroke-dasharray:7.0,7.0;"/><polygon fill="#181818" points="268,781.79,272,772.79,268,776.79,264,772.79,268,781.79" style="stroke:#181818;stroke-width:1.0;"/></g><!--reverse link ILogger to Logger--><g id="link_ILogger_Logger"><path codeLine="69" d="M365.7582,441.4494 C402.9682,476.8094 433.72,506.04 471.84,542.27 " fill="none" id="ILogger-backto-Logger" style="stroke:#181818;stroke-width:1.0;stroke-dasharray:7.0,7.0;"/><polygon fill="none" points="352.71,429.05,361.625,445.7988,369.8913,437.1,352.71,429.05" style="stroke:#181818;stroke-width:1.0;"/></g><!--link Logger to LogLevel--><g id="link_Logger_LogLevel"><path codeLine="70" d="M452.29,721.35 C405.2,758.36 357.7078,795.673 320.9278,824.573 " fill="none" id="Logger-to-LogLevel" style="stroke:#181818;stroke-width:1.0;stroke-dasharray:7.0,7.0;"/><polygon fill="#181818" points="316.21,828.28,325.7581,825.8647,320.1415,825.1908,320.8154,819.5742,316.21,828.28" style="stroke:#181818;stroke-width:1.0;"/></g><!--reverse link SampleModel to ILogger--><g id="link_SampleModel_ILogger"><path codeLine="78" d="M548.4134,143.968 C495.0334,182.538 436.36,224.92 379.38,266.08 " fill="none" id="SampleModel-backto-ILogger" style="stroke:#181818;stroke-width:1.0;"/><polygon fill="none" points="558.14,136.94,550.934,137.2118,548.4134,143.968,555.6194,143.6962,558.14,136.94" style="stroke:#181818;stroke-width:1.0;"/><text fill="#000000" font-family="sans-serif" font-size="13" lengthAdjust="spacing" textLength="40" x="515" y="179.5569">logger</text></g><!--link SampleModel to ILogger--><g id="link_SampleModel_ILogger"><path codeLine="81" d="M539.67,136.74 C524.48,146.42 509.21,156.52 495,166.49 C450.83,197.46 408.4961,230.3181 368.7861,262.4181 " fill="none" id="SampleModel-to-ILogger" style="stroke:#181818;stroke-width:1.0;stroke-dasharray:7.0,7.0;"/><polygon fill="#181818" points="364.12,266.19,373.6338,263.6429,368.0084,263.0467,368.6046,257.4214,364.12,266.19" style="stroke:#181818;stroke-width:1.0;"/></g><!--reverse link SampleModel to StructA--><g id="link_SampleModel_StructA"><path codeLine="79" d="M647,148.94 C647,194.15 647,242.25 647,286.51 " fill="none" id="SampleModel-backto-StructA" style="stroke:#181818;stroke-width:1.0;"/><polygon fill="none" points="647,136.94,643,142.94,647,148.94,651,142.94,647,136.94" style="stroke:#181818;stroke-width:1.0;"/><text fill="#000000" font-family="sans-serif" font-size="13" lengthAdjust="spacing" textLength="65" x="648" y="179.5569">structures</text><text fill="#000000" font-family="sans-serif" font-size="13" lengthAdjust="spacing" textLength="7" x="639.5953" y="275.66">*</text></g><!--reverse link SampleModel to Item--><g id="link_SampleModel_Item"><path codeLine="80" d="M728.9262,144.8702 C754.9562,167.7902 776.33,186.61 806.51,213.18 " fill="none" id="SampleModel-backto-Item" style="stroke:#181818;stroke-width:1.0;"/><polygon fill="#181818" points="719.92,136.94,721.7797,143.9072,728.9262,144.8702,727.0665,137.903,719.92,136.94" style="stroke:#181818;stroke-width:1.0;"/><text fill="#000000" font-family="sans-serif" font-size="13" lengthAdjust="spacing" textLength="36" x="766" y="179.5569">Items</text><text fill="#000000" font-family="sans-serif" font-size="13" lengthAdjust="spacing" textLength="7" x="791.034" y="202.4919">*</text></g><!--link SampleModel to Parameters--><g id="link_SampleModel_Parameters"><path codeLine="82" d="M861.93,117.36 C957.57,140.61 1070.39,172.78 1168,213.49 C1173.52,215.79 1173.5877,215.7394 1179.1477,218.2394 " fill="none" id="SampleModel-to-Parameters" style="stroke:#181818;stroke-width:1.0;stroke-dasharray:7.0,7.0;"/><polygon fill="#181818" points="1184.62,220.7,1178.052,213.361,1180.0598,218.6495,1174.7712,220.6574,1184.62,220.7" style="stroke:#181818;stroke-width:1.0;"/></g><!--SRC=[nLPBKzim4BxxLwZXua38b3uk6HE60cqp0orJCWLwgc9lZ5l5IYKvampDV-zAyZDnNaDBSuYrgszNgzrFMa6SZCWb3ozX0enudWJA8EXs2Nbq2FxwWlf0ZibB8vt380bHEZ9IBnvo55uPuPQA68NNHhWGWWkKtXZfFLMKeVJMI0VvScxJcJjIYSHNvCPyJciYECZc46xbEz8XGyQfGdG82g7Q2h_f_Fs6-Myhv-UEpwYKfATWX4e1FXULKFI4-ucE05rWv54SjiXNoX8j1pmPCB11xXbh6l2OpOp_IIHKGXcEBtxXDrApCnuhJAv2o_vi35aiwKALDLRiexhm2f3dyGa84GM0Ktr-OnowpTnt7cuHuJNgrHMC1Y2aEqWY5e10l3LzPsNjOC0vIrTvb8ggo9yJFWP15HR_nR7BOAXtftDsqY8Y2XzoSQFvyIxcbJr-0FMHoeSp7e3P9kwb3cRA85q- -84O_0TVBRjTg1h2rOF9nN8KUvOR7EECOgIxnMIKFKScnPRg6-Y3emcF0gHYewSNLHIrtuyQfE5fXzq6yNwtsyQvaxBrcWfqgR1QDPnzCXChvdSseUiWzxMG8aPtQW4jChE3B4Udw6HTnVuBUOkuInmiANSWyewkdf_KgsBPArUlHF12swoZQp6TaRRGEBW144FTMthO3a9SFxzZRqMam1s1b3Gi7nIMTQbEta5Q1AO-Z5N4OzHUPEFy49KScaQsvBKEQPhSLaZT0BS2wkQu5T0qpfgzRxrDqsjtTZ1tiYgqszqyk-drylVhS_9CQT- -vl-cG2TFhj2Y1riByt3AAcPEbXqxgujuGqTZ1bTuVx2iaeVLUvjPsqvs8EimjeCb0gJ1HL9vwUEijXNe9cMGNr3t6NN6mhInXVPG2izT3AIrRjbclYwLizZNbzeK_0G9EYwwOkMgGicqt3wLFp6DvSJmmyFyEkga2La2DFOR-MkrKmgj0jnFWUOXQPy2LO0kKPReHNqHx1y0]--></g></svg>