<?xml version="1.0" encoding="us-ascii" standalone="no"?><svg xmlns="http://www.w3.org/2000/svg" xmlns:xlink="http://www.w3.org/1999/xlink" contentStyleType="text/css" height="252px" preserveAspectRatio="none" style="width:317px;height:252px;background:#FFFFFF;" version="1.1" viewBox="0 0 317 252" width="317px" zoomAndPan="magnify"><defs/><g><!--class PlanetBase--><g id="elem_PlanetBase"><rect codeLine="1" fill="#F1F1F1" height="113.1875" id="PlanetBase" rx="2.5" ry="2.5" style="stroke:#181818;stroke-width:0.5;" width="301" x="9" y="7"/><ellipse cx="116.25" cy="23" fill="#A9DCDF" rx="11" ry="11" style="stroke:#181818;stroke-width:1.0;"/><path d="M116.3594,18.3438 L115.2031,23.4219 L117.5313,23.4219 L116.3594,18.3438 Z M114.875,16.1094 L117.8594,16.1094 L121.2188,28.5 L118.7656,28.5 L118,25.4375 L114.7188,25.4375 L113.9688,28.5 L111.5313,28.5 L114.875,16.1094 Z " fill="#000000"/><text fill="#000000" font-family="sans-serif" font-size="14" font-style="italic" lengthAdjust="spacing" textLength="78" x="136.75" y="27.8467">PlanetBase</text><line style="stroke:#181818;stroke-width:0.5;" x1="10" x2="309" y1="39" y2="39"/><ellipse cx="20" cy="52.6484" fill="none" rx="3" ry="3" style="stroke:#038048;stroke-width:1.0;"/><text fill="#000000" font-family="sans-serif" font-size="14" lengthAdjust="spacing" textLength="181" x="29" y="55.9951">Name : string &#171;get&#187; &#171;set&#187;</text><ellipse cx="20" cy="68.9453" fill="none" rx="3" ry="3" style="stroke:#038048;stroke-width:1.0;"/><text fill="#000000" font-family="sans-serif" font-size="14" lengthAdjust="spacing" textLength="275" x="29" y="72.292">&#171;readonly&#187; Moons : IList&lt;Moon&gt; &#171;get&#187;</text><line style="stroke:#181818;stroke-width:0.5;" x1="10" x2="309" y1="79.5938" y2="79.5938"/><polygon fill="#FFFF44" points="20,88.2422,24,92.2422,20,96.2422,16,92.2422" style="stroke:#B38D22;stroke-width:1.0;"/><text fill="#000000" font-family="sans-serif" font-size="14" lengthAdjust="spacing" textLength="179" x="29" y="96.5889">PlanetBase(name : string)</text><polygon fill="#FFFF44" points="20,104.5391,24,108.5391,20,112.5391,16,108.5391" style="stroke:#B38D22;stroke-width:1.0;"/><text fill="#000000" font-family="sans-serif" font-size="14" lengthAdjust="spacing" textLength="209" x="29" y="112.8857">AddMoon(moon : Moon) : void</text></g><!--class Moon--><g id="elem_Moon"><rect fill="#F1F1F1" height="48" id="Moon" rx="2.5" ry="2.5" style="stroke:#181818;stroke-width:0.5;" width="71" x="124" y="197.19"/><ellipse cx="139" cy="213.19" fill="#ADD1B2" rx="11" ry="11" style="stroke:#181818;stroke-width:1.0;"/><path d="M141.9688,218.8306 Q141.3906,219.1275 140.75,219.2681 Q140.1094,219.4244 139.4063,219.4244 Q136.9063,219.4244 135.5781,217.7838 Q134.2656,216.1275 134.2656,213.0025 Q134.2656,209.8775 135.5781,208.2213 Q136.9063,206.565 139.4063,206.565 Q140.1094,206.565 140.75,206.7213 Q141.4063,206.8775 141.9688,207.1744 L141.9688,209.8931 Q141.3438,209.315 140.75,209.0494 Q140.1563,208.7681 139.5313,208.7681 Q138.1875,208.7681 137.5,209.8463 Q136.8125,210.9088 136.8125,213.0025 Q136.8125,215.0963 137.5,216.1744 Q138.1875,217.2369 139.5313,217.2369 Q140.1563,217.2369 140.75,216.9713 Q141.3438,216.69 141.9688,216.1119 L141.9688,218.8306 Z " fill="#000000"/><text fill="#000000" font-family="sans-serif" font-size="14" lengthAdjust="spacing" textLength="39" x="153" y="218.0367">Moon</text><line style="stroke:#181818;stroke-width:0.5;" x1="125" x2="194" y1="229.19" y2="229.19"/><line style="stroke:#181818;stroke-width:0.5;" x1="125" x2="194" y1="237.19" y2="237.19"/></g><!--reverse link PlanetBase to Moon--><g id="link_PlanetBase_Moon"><path codeLine="7" d="M122.438,131.8475 C117.208,146.9275 118.81,151.94 123.5,167.19 C126.74,177.72 132.85,188.03 139.14,196.71 " fill="none" id="PlanetBase-backto-Moon" style="stroke:#181818;stroke-width:1.0;"/><polygon fill="#181818" points="126.37,120.51,120.6248,124.8681,122.438,131.8475,128.1831,127.4894,126.37,120.51" style="stroke:#181818;stroke-width:1.0;"/><text fill="#000000" font-family="sans-serif" font-size="13" lengthAdjust="spacing" textLength="42" x="124.5" y="163.2569">Moons</text><text fill="#000000" font-family="sans-serif" font-size="13" lengthAdjust="spacing" textLength="7" x="126.3241" y="185.998">*</text></g><!--link PlanetBase to Moon--><g id="link_PlanetBase_Moon"><path codeLine="8" d="M170.68,120.49 C172.44,135.64 173.19,152.04 171.5,167.19 C170.4,177.03 169.5963,181.8896 167.3663,191.0696 " fill="none" id="PlanetBase-to-Moon" style="stroke:#181818;stroke-width:1.0;stroke-dasharray:7.0,7.0;"/><polygon fill="#181818" points="165.95,196.9,171.9614,189.0986,167.1303,192.0413,164.1875,187.2101,165.95,196.9" style="stroke:#181818;stroke-width:1.0;"/></g><!--SRC=[JKxD2i8m3BxtASAyR9Fj0QGKz2Qe-0fnBQFGfR0KGSHtDvqLcaE-vFiXmGUd5QS4Kq1ck0Sabqx83k2jG6fNSItXuk004l4qTvk-XrjDWjQpIyO8SiRYqNfrQ2E5bqZN68abSRvuJZflvXyh9u_MPhfTf8anpvtWCtghFgfwiXy6QFfcSnGZr_eu_ivz0G00]--></g></svg>