<?xml version="1.0" encoding="us-ascii" standalone="no"?><svg xmlns="http://www.w3.org/2000/svg" xmlns:xlink="http://www.w3.org/1999/xlink" contentStyleType="text/css" height="456px" preserveAspectRatio="none" style="width:925px;height:456px;background:#FFFFFF;" version="1.1" viewBox="0 0 925 456" width="925px" zoomAndPan="magnify"><defs/><g><!--class PlanetBase--><g id="elem_PlanetBase"><rect codeLine="1" fill="#F1F1F1" height="227.2656" id="PlanetBase" rx="2.5" ry="2.5" style="stroke:#181818;stroke-width:0.5;" width="390" x="183" y="7"/><ellipse cx="334.75" cy="23" fill="#A9DCDF" rx="11" ry="11" style="stroke:#181818;stroke-width:1.0;"/><path d="M334.8594,18.3438 L333.7031,23.4219 L336.0313,23.4219 L334.8594,18.3438 Z M333.375,16.1094 L336.3594,16.1094 L339.7188,28.5 L337.2656,28.5 L336.5,25.4375 L333.2188,25.4375 L332.4688,28.5 L330.0313,28.5 L333.375,16.1094 Z " fill="#000000"/><text fill="#000000" font-family="sans-serif" font-size="14" font-style="italic" lengthAdjust="spacing" textLength="78" x="355.25" y="27.8467">PlanetBase</text><line style="stroke:#181818;stroke-width:0.5;" x1="184" x2="572" y1="39" y2="39"/><ellipse cx="194" cy="52.6484" fill="none" rx="3" ry="3" style="stroke:#038048;stroke-width:1.0;"/><text fill="#000000" font-family="sans-serif" font-size="14" lengthAdjust="spacing" textLength="181" x="203" y="55.9951">Name : string &#171;get&#187; &#171;set&#187;</text><ellipse cx="194" cy="68.9453" fill="none" rx="3" ry="3" style="stroke:#038048;stroke-width:1.0;"/><text fill="#000000" font-family="sans-serif" font-size="14" lengthAdjust="spacing" textLength="285" x="203" y="72.292">Diameter : double &#171;get&#187; &#171;protected set&#187;</text><ellipse cx="194" cy="85.2422" fill="none" rx="3" ry="3" style="stroke:#038048;stroke-width:1.0;"/><text fill="#000000" font-family="sans-serif" font-size="14" lengthAdjust="spacing" textLength="258" x="203" y="88.5889">Mass : double &#171;get&#187; &#171;protected set&#187;</text><ellipse cx="194" cy="101.5391" fill="none" rx="3" ry="3" style="stroke:#038048;stroke-width:1.0;"/><text fill="#000000" font-family="sans-serif" font-size="14" lengthAdjust="spacing" textLength="345" x="203" y="104.8857">DistanceFromSun : double &#171;get&#187; &#171;protected set&#187;</text><ellipse cx="194" cy="117.8359" fill="none" rx="3" ry="3" style="stroke:#038048;stroke-width:1.0;"/><text fill="#000000" font-family="sans-serif" font-size="14" lengthAdjust="spacing" textLength="310" x="203" y="121.1826">OrbitalPeriod : double &#171;get&#187; &#171;protected set&#187;</text><ellipse cx="194" cy="134.1328" fill="none" rx="3" ry="3" style="stroke:#038048;stroke-width:1.0;"/><text fill="#000000" font-family="sans-serif" font-size="14" lengthAdjust="spacing" textLength="364" x="203" y="137.4795">SurfaceTemperature : double &#171;get&#187; &#171;protected set&#187;</text><ellipse cx="194" cy="150.4297" fill="none" rx="3" ry="3" style="stroke:#038048;stroke-width:1.0;"/><text fill="#000000" font-family="sans-serif" font-size="14" lengthAdjust="spacing" textLength="275" x="203" y="153.7764">&#171;readonly&#187; Moons : IList&lt;Moon&gt; &#171;get&#187;</text><line style="stroke:#181818;stroke-width:0.5;" x1="184" x2="572" y1="161.0781" y2="161.0781"/><polygon fill="#FFFF44" points="194,169.7266,198,173.7266,194,177.7266,190,173.7266" style="stroke:#B38D22;stroke-width:1.0;"/><text fill="#000000" font-family="sans-serif" font-size="14" lengthAdjust="spacing" textLength="179" x="203" y="178.0732">PlanetBase(name : string)</text><polygon fill="#FFFF44" points="194,186.0234,198,190.0234,194,194.0234,190,190.0234" style="stroke:#B38D22;stroke-width:1.0;"/><text fill="#000000" font-family="sans-serif" font-size="14" lengthAdjust="spacing" textLength="209" x="203" y="194.3701">AddMoon(moon : Moon) : void</text><ellipse cx="194" cy="207.3203" fill="#84BE84" rx="3" ry="3" style="stroke:#038048;stroke-width:1.0;"/><text fill="#000000" font-family="sans-serif" font-size="14" font-style="italic" lengthAdjust="spacing" textLength="89" x="203" y="210.667">Orbit() : Task</text><ellipse cx="194" cy="223.6172" fill="#84BE84" rx="3" ry="3" style="stroke:#038048;stroke-width:1.0;"/><text fill="#000000" font-family="sans-serif" font-size="14" font-style="italic" lengthAdjust="spacing" textLength="102" x="203" y="226.9639">Rotate() : Task</text></g><!--class Moon--><g id="elem_Moon"><rect codeLine="22" fill="#F1F1F1" height="137.75" id="Moon" rx="2.5" ry="2.5" style="stroke:#181818;stroke-width:0.5;" width="608" x="7" y="311.27"/><ellipse cx="280.75" cy="331.4028" fill="#ADD1B2" rx="11" ry="11" style="stroke:#181818;stroke-width:1.0;"/><path d="M283.7188,337.0434 Q283.1406,337.3403 282.5,337.4809 Q281.8594,337.6372 281.1563,337.6372 Q278.6563,337.6372 277.3281,335.9966 Q276.0156,334.3403 276.0156,331.2153 Q276.0156,328.0903 277.3281,326.4341 Q278.6563,324.7778 281.1563,324.7778 Q281.8594,324.7778 282.5,324.9341 Q283.1563,325.0903 283.7188,325.3872 L283.7188,328.1059 Q283.0938,327.5278 282.5,327.2622 Q281.9063,326.9809 281.2813,326.9809 Q279.9375,326.9809 279.25,328.0591 Q278.5625,329.1216 278.5625,331.2153 Q278.5625,333.3091 279.25,334.3872 Q279.9375,335.4497 281.2813,335.4497 Q281.9063,335.4497 282.5,335.1841 Q283.0938,334.9028 283.7188,334.3247 L283.7188,337.0434 Z " fill="#000000"/><text fill="#000000" font-family="sans-serif" font-size="12" font-style="italic" lengthAdjust="spacing" textLength="56" x="299.25" y="327.4087">&#171;sealed&#187;</text><text fill="#000000" font-family="sans-serif" font-size="14" lengthAdjust="spacing" textLength="39" x="307.75" y="343.2339">Moon</text><line style="stroke:#181818;stroke-width:0.5;" x1="8" x2="614" y1="351.5356" y2="351.5356"/><ellipse cx="18" cy="365.1841" fill="none" rx="3" ry="3" style="stroke:#038048;stroke-width:1.0;"/><text fill="#000000" font-family="sans-serif" font-size="14" lengthAdjust="spacing" textLength="218" x="27" y="368.5307">&#171;readonly&#187; Name : string &#171;get&#187;</text><ellipse cx="18" cy="381.4809" fill="none" rx="3" ry="3" style="stroke:#038048;stroke-width:1.0;"/><text fill="#000000" font-family="sans-serif" font-size="14" lengthAdjust="spacing" textLength="250" x="27" y="384.8276">&#171;readonly&#187; Diameter : double &#171;get&#187;</text><ellipse cx="18" cy="397.7778" fill="none" rx="3" ry="3" style="stroke:#038048;stroke-width:1.0;"/><text fill="#000000" font-family="sans-serif" font-size="14" lengthAdjust="spacing" textLength="223" x="27" y="401.1245">&#171;readonly&#187; Mass : double &#171;get&#187;</text><ellipse cx="18" cy="414.0747" fill="none" rx="3" ry="3" style="stroke:#038048;stroke-width:1.0;"/><text fill="#000000" font-family="sans-serif" font-size="14" lengthAdjust="spacing" textLength="326" x="27" y="417.4214">&#171;readonly&#187; DistanceFromPlanet : double &#171;get&#187;</text><line style="stroke:#181818;stroke-width:0.5;" x1="8" x2="614" y1="424.7231" y2="424.7231"/><ellipse cx="18" cy="438.3716" fill="#84BE84" rx="3" ry="3" style="stroke:#038048;stroke-width:1.0;"/><text fill="#000000" font-family="sans-serif" font-size="14" lengthAdjust="spacing" textLength="582" x="27" y="441.7182">Moon(name : string, diameter : double, mass : double, distanceFromPlanet : double)</text></g><!--class Earth--><g id="elem_Earth"><rect codeLine="16" fill="#F1F1F1" height="96.8906" id="Earth" rx="2.5" ry="2.5" style="stroke:#181818;stroke-width:0.5;" width="268" x="650" y="331.7"/><ellipse cx="761.75" cy="347.7" fill="#ADD1B2" rx="11" ry="11" style="stroke:#181818;stroke-width:1.0;"/><path d="M764.7188,353.3406 Q764.1406,353.6375 763.5,353.7781 Q762.8594,353.9344 762.1563,353.9344 Q759.6563,353.9344 758.3281,352.2938 Q757.0156,350.6375 757.0156,347.5125 Q757.0156,344.3875 758.3281,342.7313 Q759.6563,341.075 762.1563,341.075 Q762.8594,341.075 763.5,341.2313 Q764.1563,341.3875 764.7188,341.6844 L764.7188,344.4031 Q764.0938,343.825 763.5,343.5594 Q762.9063,343.2781 762.2813,343.2781 Q760.9375,343.2781 760.25,344.3563 Q759.5625,345.4188 759.5625,347.5125 Q759.5625,349.6063 760.25,350.6844 Q760.9375,351.7469 762.2813,351.7469 Q762.9063,351.7469 763.5,351.4813 Q764.0938,351.2 764.7188,350.6219 L764.7188,353.3406 Z " fill="#000000"/><text fill="#000000" font-family="sans-serif" font-size="14" lengthAdjust="spacing" textLength="36" x="782.25" y="352.5467">Earth</text><line style="stroke:#181818;stroke-width:0.5;" x1="651" x2="917" y1="363.7" y2="363.7"/><line style="stroke:#181818;stroke-width:0.5;" x1="651" x2="917" y1="371.7" y2="371.7"/><ellipse cx="661" cy="385.3484" fill="#84BE84" rx="3" ry="3" style="stroke:#038048;stroke-width:1.0;"/><text fill="#000000" font-family="sans-serif" font-size="14" lengthAdjust="spacing" textLength="46" x="670" y="388.6951">Earth()</text><ellipse cx="661" cy="401.6453" fill="#84BE84" rx="3" ry="3" style="stroke:#038048;stroke-width:1.0;"/><text fill="#000000" font-family="sans-serif" font-size="14" lengthAdjust="spacing" textLength="229" x="670" y="404.992">&#171;override&#187; &#171;async&#187; Orbit() : Task</text><ellipse cx="661" cy="417.9422" fill="#84BE84" rx="3" ry="3" style="stroke:#038048;stroke-width:1.0;"/><text fill="#000000" font-family="sans-serif" font-size="14" lengthAdjust="spacing" textLength="242" x="670" y="421.2889">&#171;override&#187; &#171;async&#187; Rotate() : Task</text></g><!--reverse link PlanetBase to Moon--><g id="link_PlanetBase_Moon"><path codeLine="14" d="M312.7856,246.0499 C309.2356,255.8299 310.28,254.46 308,264.27 C304.55,279.14 303.43,295.38 303.55,310.84 " fill="none" id="PlanetBase-backto-Moon" style="stroke:#181818;stroke-width:1.0;"/><polygon fill="#181818" points="316.88,234.77,311.0728,239.0451,312.7856,246.0499,318.5927,241.7747,316.88,234.77" style="stroke:#181818;stroke-width:1.0;"/><text fill="#000000" font-family="sans-serif" font-size="13" lengthAdjust="spacing" textLength="42" x="309" y="277.3369">Moons</text><text fill="#000000" font-family="sans-serif" font-size="13" lengthAdjust="spacing" textLength="7" x="295.4208" y="299.9932">*</text></g><!--link PlanetBase to Moon--><g id="link_PlanetBase_Moon"><path codeLine="15" d="M366.66,234.59 C363.85,250.42 360.35,266.37 356,281.27 C353.14,291.05 351.7599,295.5642 347.7299,305.3242 " fill="none" id="PlanetBase-to-Moon" style="stroke:#181818;stroke-width:1.0;stroke-dasharray:7.0,7.0;"/><polygon fill="#181818" points="345.44,310.87,352.5721,304.0779,347.3483,306.2485,345.1777,301.0246,345.44,310.87" style="stroke:#181818;stroke-width:1.0;"/></g><!--reverse link PlanetBase to Earth--><g id="link_PlanetBase_Earth"><path codeLine="21" d="M571.2796,244.2223 C624.8596,278.2123 665.6,304.05 708.65,331.35 " fill="none" id="PlanetBase-backto-Earth" style="stroke:#181818;stroke-width:1.0;"/><polygon fill="none" points="556.08,234.58,568.0655,249.2888,574.4936,239.1558,556.08,234.58" style="stroke:#181818;stroke-width:1.0;"/></g><!--SRC=[ZLDRJiCm4FplAQpoa_Hr01HL0XKa90eLxGKsyL8i4hkoDvMgahjZ9sbgm479H_pO6U-iFGkf8GqPiIm7OzWc1ubq3mOPEu-O_MwylKX2WUoMMOgG-xYEJzcBlycIP8-qNDhHkB75h8G54MgBuwfCS_Hm1wq8CqBEVCRQoHcCNWb383DyrAhObd8uyLMdWY3Ve1QA3wTjI_qE6UwmEA06AZKEvoQ9Hk1AvYSBMYibNPrFpxQ2nAsMbmFQwx_Zt6r7XVrPe9l7TZmgmTi3pz0-OjMK4xdu3ipdt_YR8Y2y0ggHz-AJ-PoD9-CwHPl9-F75ej4xQhpo09e-BZQPDiiexefKHzHQSAnl0in9PdOMrDU3_LThycN5rYbRDRLePph8aLjsfwk-l1_6dJ7-suupLlX-SuYhePgqNJ0ElMEm2KB0tau8kYFK1E5JU-LsjEeR]--></g></svg>