<?xml version="1.0" encoding="us-ascii" standalone="no"?><svg xmlns="http://www.w3.org/2000/svg" xmlns:xlink="http://www.w3.org/1999/xlink" contentStyleType="text/css" height="151px" preserveAspectRatio="none" style="width:324px;height:151px;background:#FFFFFF;" version="1.1" viewBox="0 0 324 151" width="324px" zoomAndPan="magnify"><defs/><g><path d="M17,8.9688 L17,10.9688 L25,10.9688 L25,9.9688 L20,9.9688 L20,8.9688 L17,8.9688 M17,11.9688 L17,16.4688 C17,16.7488 17.22,16.9688 17.5,16.9688 L24.5,16.9688 C24.78,16.9688 25,16.7488 25,16.4688 L25,11.9688 L17,11.9688 " fill="#000000" style="stroke:;stroke-width:0.0;stroke-dasharray:;"/><text fill="#000000" font-family="sans-serif" font-size="12" lengthAdjust="spacing" textLength="4" x="26" y="17.1387">&#160;</text><text fill="#000000" font-family="sans-serif" font-size="12" font-weight="bold" lengthAdjust="spacing" textLength="70" x="30" y="17.1387">OutputDir</text><path d="M27,22.9375 L27,24.9375 L35,24.9375 L35,23.9375 L30,23.9375 L30,22.9375 L27,22.9375 M27,25.9375 L27,30.4375 C27,30.7175 27.22,30.9375 27.5,30.9375 L34.5,30.9375 C34.78,30.9375 35,30.7175 35,30.4375 L35,25.9375 L27,25.9375 " fill="#000000" style="stroke:;stroke-width:0.0;stroke-dasharray:;"/><text fill="#000000" font-family="sans-serif" font-size="12" lengthAdjust="spacing" textLength="4" x="36" y="31.1074">&#160;</text><text fill="#000000" font-family="sans-serif" font-size="12" font-weight="bold" lengthAdjust="spacing" textLength="99" x="40" y="31.1074">Consoto.App1</text><text fill="#000000" font-family="sans-serif" font-size="12" lengthAdjust="spacing" textLength="120" x="197" y="31.1074">-- [Assembly Name]</text><path d="M37,36.9063 L37,38.9063 L45,38.9063 L45,37.9063 L40,37.9063 L40,36.9063 L37,36.9063 M37,39.9063 L37,44.4063 C37,44.6863 37.22,44.9063 37.5,44.9063 L44.5,44.9063 C44.78,44.9063 45,44.6863 45,44.4063 L45,39.9063 L37,39.9063 " fill="#000000" style="stroke:;stroke-width:0.0;stroke-dasharray:;"/><text fill="#000000" font-family="sans-serif" font-size="12" lengthAdjust="spacing" textLength="4" x="46" y="45.0762">&#160;</text><text fill="#000000" font-family="sans-serif" font-size="12" font-weight="bold" lengthAdjust="spacing" textLength="59" x="50" y="45.0762">Consoto</text><path d="M47,50.875 L47,52.875 L55,52.875 L55,51.875 L50,51.875 L50,50.875 L47,50.875 M47,53.875 L47,58.375 C47,58.655 47.22,58.875 47.5,58.875 L54.5,58.875 C54.78,58.875 55,58.655 55,58.375 L55,53.875 L47,53.875 " fill="#000000" style="stroke:;stroke-width:0.0;stroke-dasharray:;"/><text fill="#000000" font-family="sans-serif" font-size="12" lengthAdjust="spacing" textLength="4" x="56" y="59.0449">&#160;</text><text fill="#000000" font-family="sans-serif" font-size="12" font-weight="bold" lengthAdjust="spacing" textLength="35" x="60" y="59.0449">App1</text><path d="M57,64.8438 L57,72.8438 L64,72.8438 L64,68.8438 L60,68.8438 L60,64.8438 L57,64.8438 M61,64.8438 L61,67.8438 L64,67.8438 L61,64.8438 " fill="#000000" style="stroke:;stroke-width:0.0;stroke-dasharray:;"/><text fill="#000000" font-family="sans-serif" font-size="12" lengthAdjust="spacing" textLength="75" x="70" y="73.0137">ClassA.puml</text><path d="M27,78.8125 L27,80.8125 L35,80.8125 L35,79.8125 L30,79.8125 L30,78.8125 L27,78.8125 M27,81.8125 L27,86.3125 C27,86.5925 27.22,86.8125 27.5,86.8125 L34.5,86.8125 C34.78,86.8125 35,86.5925 35,86.3125 L35,81.8125 L27,81.8125 " fill="#000000" style="stroke:;stroke-width:0.0;stroke-dasharray:;"/><text fill="#000000" font-family="sans-serif" font-size="12" lengthAdjust="spacing" textLength="4" x="36" y="86.9824">&#160;</text><text fill="#000000" font-family="sans-serif" font-size="12" font-weight="bold" lengthAdjust="spacing" textLength="137" x="40" y="86.9824">Consoto.App1.Core</text><text fill="#000000" font-family="sans-serif" font-size="12" lengthAdjust="spacing" textLength="120" x="197" y="86.9824">-- [Assembly Name]</text><path d="M37,92.7813 L37,94.7813 L45,94.7813 L45,93.7813 L40,93.7813 L40,92.7813 L37,92.7813 M37,95.7813 L37,100.2813 C37,100.5613 37.22,100.7813 37.5,100.7813 L44.5,100.7813 C44.78,100.7813 45,100.5613 45,100.2813 L45,95.7813 L37,95.7813 " fill="#000000" style="stroke:;stroke-width:0.0;stroke-dasharray:;"/><text fill="#000000" font-family="sans-serif" font-size="12" lengthAdjust="spacing" textLength="4" x="46" y="100.9512">&#160;</text><text fill="#000000" font-family="sans-serif" font-size="12" font-weight="bold" lengthAdjust="spacing" textLength="59" x="50" y="100.9512">Consoto</text><path d="M47,106.75 L47,108.75 L55,108.75 L55,107.75 L50,107.75 L50,106.75 L47,106.75 M47,109.75 L47,114.25 C47,114.53 47.22,114.75 47.5,114.75 L54.5,114.75 C54.78,114.75 55,114.53 55,114.25 L55,109.75 L47,109.75 " fill="#000000" style="stroke:;stroke-width:0.0;stroke-dasharray:;"/><text fill="#000000" font-family="sans-serif" font-size="12" lengthAdjust="spacing" textLength="4" x="56" y="114.9199">&#160;</text><text fill="#000000" font-family="sans-serif" font-size="12" font-weight="bold" lengthAdjust="spacing" textLength="35" x="60" y="114.9199">App1</text><path d="M57,120.7188 L57,122.7188 L65,122.7188 L65,121.7188 L60,121.7188 L60,120.7188 L57,120.7188 M57,123.7188 L57,128.2188 C57,128.4988 57.22,128.7188 57.5,128.7188 L64.5,128.7188 C64.78,128.7188 65,128.4988 65,128.2188 L65,123.7188 L57,123.7188 " fill="#000000" style="stroke:;stroke-width:0.0;stroke-dasharray:;"/><text fill="#000000" font-family="sans-serif" font-size="12" lengthAdjust="spacing" textLength="4" x="66" y="128.8887">&#160;</text><text fill="#000000" font-family="sans-serif" font-size="12" font-weight="bold" lengthAdjust="spacing" textLength="33" x="70" y="128.8887">Core</text><path d="M67,134.6875 L67,142.6875 L74,142.6875 L74,138.6875 L70,138.6875 L70,134.6875 L67,134.6875 M71,134.6875 L71,137.6875 L74,137.6875 L71,134.6875 " fill="#000000" style="stroke:;stroke-width:0.0;stroke-dasharray:;"/><text fill="#000000" font-family="sans-serif" font-size="12" lengthAdjust="spacing" textLength="107" x="80" y="142.8574">Parameters.puml</text><rect fill="none" height="2" style="stroke:#888888;stroke-width:1.0;" width="2" x="9" y="11.9844"/><rect fill="none" height="2" style="stroke:#888888;stroke-width:1.0;" width="2" x="19" y="25.9531"/><line style="stroke:#888888;stroke-width:1.0;" x1="10" x2="10" y1="14.9844" y2="26.9531"/><line style="stroke:#888888;stroke-width:1.0;" x1="10" x2="18" y1="26.9531" y2="26.9531"/><rect fill="none" height="2" style="stroke:#888888;stroke-width:1.0;" width="2" x="29" y="39.9219"/><line style="stroke:#888888;stroke-width:1.0;" x1="20" x2="20" y1="28.9531" y2="40.9219"/><line style="stroke:#888888;stroke-width:1.0;" x1="20" x2="28" y1="40.9219" y2="40.9219"/><rect fill="none" height="2" style="stroke:#888888;stroke-width:1.0;" width="2" x="39" y="53.8906"/><line style="stroke:#888888;stroke-width:1.0;" x1="30" x2="30" y1="42.9219" y2="54.8906"/><line style="stroke:#888888;stroke-width:1.0;" x1="30" x2="38" y1="54.8906" y2="54.8906"/><line style="stroke:#888888;stroke-width:1.0;" x1="40" x2="40" y1="56.8906" y2="68.8594"/><line style="stroke:#888888;stroke-width:1.0;" x1="40" x2="48" y1="68.8594" y2="68.8594"/><rect fill="none" height="2" style="stroke:#888888;stroke-width:1.0;" width="2" x="19" y="81.8281"/><line style="stroke:#888888;stroke-width:1.0;" x1="10" x2="10" y1="14.9844" y2="82.8281"/><line style="stroke:#888888;stroke-width:1.0;" x1="10" x2="18" y1="82.8281" y2="82.8281"/><rect fill="none" height="2" style="stroke:#888888;stroke-width:1.0;" width="2" x="29" y="95.7969"/><line style="stroke:#888888;stroke-width:1.0;" x1="20" x2="20" y1="84.8281" y2="96.7969"/><line style="stroke:#888888;stroke-width:1.0;" x1="20" x2="28" y1="96.7969" y2="96.7969"/><rect fill="none" height="2" style="stroke:#888888;stroke-width:1.0;" width="2" x="39" y="109.7656"/><line style="stroke:#888888;stroke-width:1.0;" x1="30" x2="30" y1="98.7969" y2="110.7656"/><line style="stroke:#888888;stroke-width:1.0;" x1="30" x2="38" y1="110.7656" y2="110.7656"/><rect fill="none" height="2" style="stroke:#888888;stroke-width:1.0;" width="2" x="49" y="123.7344"/><line style="stroke:#888888;stroke-width:1.0;" x1="40" x2="40" y1="112.7656" y2="124.7344"/><line style="stroke:#888888;stroke-width:1.0;" x1="40" x2="48" y1="124.7344" y2="124.7344"/><line style="stroke:#888888;stroke-width:1.0;" x1="50" x2="50" y1="126.7344" y2="138.7031"/><line style="stroke:#888888;stroke-width:1.0;" x1="50" x2="58" y1="138.7031" y2="138.7031"/><!--SRC=[ZS-_2m8X5C3n_VwADxN46UqY7DTS3MtHe6Hme2a-7UAw_ptl5ua4kJXztlFxa2jVzHL0VuaFm1Revc7KNJe6LB1Jy3RuG-VeJh09H9APrZpHU4CQQ_SZWpVKDLmRHAc5Ui6HQtbRPiVft-F91mlBtBe-GJERNASaWrPnn8ROe5L1AscDa_-3YvEBevFiTESSayd5VcyySnVpl7IutZbKmmS0]--></g></svg>