<?xml version="1.0" encoding="us-ascii" standalone="no"?><svg xmlns="http://www.w3.org/2000/svg" xmlns:xlink="http://www.w3.org/1999/xlink" contentStyleType="text/css" height="738px" preserveAspectRatio="none" style="width:1071px;height:738px;background:#FFFFFF;" version="1.1" viewBox="0 0 1071 738" width="1071px" zoomAndPan="magnify"><defs/><g><!--class ClassA--><g id="elem_ClassA"><rect codeLine="1" fill="#F1F1F1" height="96.8906" id="ClassA" rx="2.5" ry="2.5" style="stroke:#181818;stroke-width:0.5;" width="247" x="78" y="11.14"/><ellipse cx="174.25" cy="27.14" fill="#ADD1B2" rx="11" ry="11" style="stroke:#181818;stroke-width:1.0;"/><path d="M177.2188,32.7806 Q176.6406,33.0775 176,33.2181 Q175.3594,33.3744 174.6563,33.3744 Q172.1563,33.3744 170.8281,31.7337 Q169.5156,30.0775 169.5156,26.9525 Q169.5156,23.8275 170.8281,22.1712 Q172.1563,20.515 174.6563,20.515 Q175.3594,20.515 176,20.6712 Q176.6563,20.8275 177.2188,21.1244 L177.2188,23.8431 Q176.5938,23.265 176,22.9994 Q175.4063,22.7181 174.7813,22.7181 Q173.4375,22.7181 172.75,23.7962 Q172.0625,24.8587 172.0625,26.9525 Q172.0625,29.0462 172.75,30.1244 Q173.4375,31.1869 174.7813,31.1869 Q175.4063,31.1869 176,30.9212 Q176.5938,30.64 177.2188,30.0619 L177.2188,32.7806 Z " fill="#000000"/><text fill="#000000" font-family="sans-serif" font-size="14" lengthAdjust="spacing" textLength="46" x="194.75" y="31.9867">ClassA</text><line style="stroke:#181818;stroke-width:0.5;" x1="79" x2="324" y1="43.14" y2="43.14"/><ellipse cx="89" cy="56.7884" fill="none" rx="3" ry="3" style="stroke:#038048;stroke-width:1.0;"/><text fill="#000000" font-family="sans-serif" font-size="14" lengthAdjust="spacing" textLength="218" x="98" y="60.1351">&#171;readonly&#187; Name : string &#171;get&#187;</text><ellipse cx="89" cy="73.0853" fill="none" rx="3" ry="3" style="stroke:#038048;stroke-width:1.0;"/><text fill="#000000" font-family="sans-serif" font-size="14" lengthAdjust="spacing" textLength="194" x="98" y="76.432">&#171;readonly&#187; Value : int &#171;get&#187;</text><line style="stroke:#181818;stroke-width:0.5;" x1="79" x2="324" y1="83.7337" y2="83.7337"/><ellipse cx="89" cy="97.3822" fill="#84BE84" rx="3" ry="3" style="stroke:#038048;stroke-width:1.0;"/><text fill="#000000" font-family="sans-serif" font-size="14" lengthAdjust="spacing" textLength="221" x="98" y="100.7289">ClassA(name : string, value : int)</text></g><!--class StaticClass--><g id="elem_StaticClass"><rect codeLine="6" fill="#F1F1F1" height="105.1563" id="StaticClass" rx="2.5" ry="2.5" style="stroke:#181818;stroke-width:0.5;" width="186" x="360.5" y="7"/><ellipse cx="411.75" cy="27.1328" fill="#ADD1B2" rx="11" ry="11" style="stroke:#181818;stroke-width:1.0;"/><path d="M414.7188,32.7734 Q414.1406,33.0703 413.5,33.2109 Q412.8594,33.3672 412.1563,33.3672 Q409.6563,33.3672 408.3281,31.7266 Q407.0156,30.0703 407.0156,26.9453 Q407.0156,23.8203 408.3281,22.1641 Q409.6563,20.5078 412.1563,20.5078 Q412.8594,20.5078 413.5,20.6641 Q414.1563,20.8203 414.7188,21.1172 L414.7188,23.8359 Q414.0938,23.2578 413.5,22.9922 Q412.9063,22.7109 412.2813,22.7109 Q410.9375,22.7109 410.25,23.7891 Q409.5625,24.8516 409.5625,26.9453 Q409.5625,29.0391 410.25,30.1172 Q410.9375,31.1797 412.2813,31.1797 Q412.9063,31.1797 413.5,30.9141 Q414.0938,30.6328 414.7188,30.0547 L414.7188,32.7734 Z " fill="#000000"/><text fill="#000000" font-family="sans-serif" font-size="12" font-style="italic" lengthAdjust="spacing" textLength="49" x="445.25" y="23.1387">&#171;static&#187;</text><text fill="#000000" font-family="sans-serif" font-size="14" lengthAdjust="spacing" textLength="75" x="432.25" y="38.9639">StaticClass</text><line style="stroke:#181818;stroke-width:0.5;" x1="361.5" x2="545.5" y1="47.2656" y2="47.2656"/><ellipse cx="371.5" cy="60.9141" fill="none" rx="3" ry="3" style="stroke:#038048;stroke-width:1.0;"/><text fill="#000000" font-family="sans-serif" font-size="14" lengthAdjust="spacing" text-decoration="underline" textLength="145" x="380.5" y="64.2607">SpecificName : string</text><line style="stroke:#181818;stroke-width:0.5;" x1="361.5" x2="545.5" y1="71.5625" y2="71.5625"/><ellipse cx="371.5" cy="85.2109" fill="#84BE84" rx="3" ry="3" style="stroke:#038048;stroke-width:1.0;"/><text fill="#000000" font-family="sans-serif" font-size="14" lengthAdjust="spacing" text-decoration="underline" textLength="160" x="380.5" y="88.5576">Piyo(count : int) : string</text><rect fill="#F24D5C" height="6" style="stroke:#C82930;stroke-width:1.0;" width="6" x="368.5" y="98.5078"/><text fill="#000000" font-family="sans-serif" font-size="14" lengthAdjust="spacing" text-decoration="underline" textLength="85" x="380.5" y="104.8545">StaticClass()</text></g><!--class AbstractClass--><g id="elem_AbstractClass"><rect codeLine="11" fill="#F1F1F1" height="96.8906" id="AbstractClass" rx="2.5" ry="2.5" style="stroke:#181818;stroke-width:0.5;" width="140" x="581.5" y="11.14"/><ellipse cx="602.8" cy="27.14" fill="#A9DCDF" rx="11" ry="11" style="stroke:#181818;stroke-width:1.0;"/><path d="M602.9094,22.4837 L601.7531,27.5619 L604.0813,27.5619 L602.9094,22.4837 Z M601.425,20.2494 L604.4094,20.2494 L607.7688,32.64 L605.3156,32.64 L604.55,29.5775 L601.2688,29.5775 L600.5188,32.64 L598.0813,32.64 L601.425,20.2494 Z " fill="#000000"/><text fill="#000000" font-family="sans-serif" font-size="14" font-style="italic" lengthAdjust="spacing" textLength="94" x="618.2" y="31.9867">AbstractClass</text><line style="stroke:#181818;stroke-width:0.5;" x1="582.5" x2="720.5" y1="43.14" y2="43.14"/><line style="stroke:#181818;stroke-width:0.5;" x1="582.5" x2="720.5" y1="51.14" y2="51.14"/><ellipse cx="592.5" cy="64.7884" fill="#84BE84" rx="3" ry="3" style="stroke:#038048;stroke-width:1.0;"/><text fill="#000000" font-family="sans-serif" font-size="14" font-style="italic" lengthAdjust="spacing" textLength="113" x="601.5" y="68.1351">MethodA() : void</text><ellipse cx="592.5" cy="81.0853" fill="#84BE84" rx="3" ry="3" style="stroke:#038048;stroke-width:1.0;"/><text fill="#000000" font-family="sans-serif" font-size="14" font-style="italic" lengthAdjust="spacing" textLength="114" x="601.5" y="84.432">MethodB() : void</text><polygon fill="#FFFF44" points="592.5,92.3822,596.5,96.3822,592.5,100.3822,588.5,96.3822" style="stroke:#B38D22;stroke-width:1.0;"/><text fill="#000000" font-family="sans-serif" font-size="14" lengthAdjust="spacing" textLength="104" x="601.5" y="100.7289">AbstractClass()</text></g><!--class RecordA--><g id="elem_RecordA"><rect codeLine="16" fill="#F1F1F1" height="268.125" id="RecordA" rx="2.5" ry="2.5" style="stroke:#181818;stroke-width:0.5;" width="385" x="9" y="179.14"/><ellipse cx="167.75" cy="199.2728" fill="#ADD1B2" rx="11" ry="11" style="stroke:#181818;stroke-width:1.0;"/><path d="M170.7188,204.9134 Q170.1406,205.2103 169.5,205.3509 Q168.8594,205.5072 168.1563,205.5072 Q165.6563,205.5072 164.3281,203.8666 Q163.0156,202.2103 163.0156,199.0853 Q163.0156,195.9603 164.3281,194.3041 Q165.6563,192.6478 168.1563,192.6478 Q168.8594,192.6478 169.5,192.8041 Q170.1563,192.9603 170.7188,193.2572 L170.7188,195.9759 Q170.0938,195.3978 169.5,195.1322 Q168.9063,194.8509 168.2813,194.8509 Q166.9375,194.8509 166.25,195.9291 Q165.5625,196.9916 165.5625,199.0853 Q165.5625,201.1791 166.25,202.2572 Q166.9375,203.3197 168.2813,203.3197 Q168.9063,203.3197 169.5,203.0541 Q170.0938,202.7728 170.7188,202.1947 L170.7188,204.9134 Z " fill="#000000"/><text fill="#000000" font-family="sans-serif" font-size="12" font-style="italic" lengthAdjust="spacing" textLength="55" x="190.25" y="195.2787">&#171;record&#187;</text><text fill="#000000" font-family="sans-serif" font-size="14" lengthAdjust="spacing" textLength="59" x="188.25" y="211.1039">RecordA</text><line style="stroke:#181818;stroke-width:0.5;" x1="10" x2="393" y1="219.4056" y2="219.4056"/><polygon fill="none" points="20,228.0541,24,232.0541,20,236.0541,16,232.0541" style="stroke:#B38D22;stroke-width:1.0;"/><text fill="#000000" font-family="sans-serif" font-size="14" lengthAdjust="spacing" textLength="347" x="29" y="236.4007">&#171;readonly&#187; &#171;virtual&#187; EqualityContract : Type &#171;get&#187;</text><ellipse cx="20" cy="249.3509" fill="none" rx="3" ry="3" style="stroke:#038048;stroke-width:1.0;"/><text fill="#000000" font-family="sans-serif" font-size="14" lengthAdjust="spacing" textLength="181" x="29" y="252.6976">Name : string &#171;get&#187; &#171;set&#187;</text><ellipse cx="20" cy="265.6478" fill="none" rx="3" ry="3" style="stroke:#038048;stroke-width:1.0;"/><text fill="#000000" font-family="sans-serif" font-size="14" lengthAdjust="spacing" textLength="157" x="29" y="268.9945">Value : int &#171;get&#187; &#171;set&#187;</text><line style="stroke:#181818;stroke-width:0.5;" x1="10" x2="393" y1="276.2963" y2="276.2963"/><ellipse cx="20" cy="289.9447" fill="#84BE84" rx="3" ry="3" style="stroke:#038048;stroke-width:1.0;"/><text fill="#000000" font-family="sans-serif" font-size="14" lengthAdjust="spacing" textLength="237" x="29" y="293.2914">RecordA(Name : string, Value : int)</text><ellipse cx="20" cy="306.2416" fill="#84BE84" rx="3" ry="3" style="stroke:#038048;stroke-width:1.0;"/><text fill="#000000" font-family="sans-serif" font-size="14" lengthAdjust="spacing" textLength="198" x="29" y="309.5882">&#171;override&#187; ToString() : string</text><polygon fill="#FFFF44" points="20,317.5384,24,321.5384,20,325.5384,16,321.5384" style="stroke:#B38D22;stroke-width:1.0;"/><text fill="#000000" font-family="sans-serif" font-size="14" lengthAdjust="spacing" textLength="359" x="29" y="325.8851">&#171;virtual&#187; PrintMembers(builder : StringBuilder) : bool</text><ellipse cx="20" cy="338.8353" fill="#84BE84" rx="3" ry="3" style="stroke:#038048;stroke-width:1.0;"/><text fill="#000000" font-family="sans-serif" font-size="14" lengthAdjust="spacing" text-decoration="underline" textLength="351" x="29" y="342.182">operator !=(left : RecordA?, right : RecordA?) : bool</text><ellipse cx="20" cy="355.1322" fill="#84BE84" rx="3" ry="3" style="stroke:#038048;stroke-width:1.0;"/><text fill="#000000" font-family="sans-serif" font-size="14" lengthAdjust="spacing" text-decoration="underline" textLength="358" x="29" y="358.4789">operator ==(left : RecordA?, right : RecordA?) : bool</text><ellipse cx="20" cy="371.4291" fill="#84BE84" rx="3" ry="3" style="stroke:#038048;stroke-width:1.0;"/><text fill="#000000" font-family="sans-serif" font-size="14" lengthAdjust="spacing" textLength="215" x="29" y="374.7757">&#171;override&#187; GetHashCode() : int</text><ellipse cx="20" cy="387.7259" fill="#84BE84" rx="3" ry="3" style="stroke:#038048;stroke-width:1.0;"/><text fill="#000000" font-family="sans-serif" font-size="14" lengthAdjust="spacing" textLength="261" x="29" y="391.0726">&#171;override&#187; Equals(obj : object?) : bool</text><ellipse cx="20" cy="404.0228" fill="#84BE84" rx="3" ry="3" style="stroke:#038048;stroke-width:1.0;"/><text fill="#000000" font-family="sans-serif" font-size="14" lengthAdjust="spacing" textLength="277" x="29" y="407.3695">&#171;virtual&#187; Equals(other : RecordA?) : bool</text><polygon fill="#FFFF44" points="20,415.3197,24,419.3197,20,423.3197,16,419.3197" style="stroke:#B38D22;stroke-width:1.0;"/><text fill="#000000" font-family="sans-serif" font-size="14" lengthAdjust="spacing" textLength="190" x="29" y="423.6664">RecordA(original : RecordA)</text><ellipse cx="20" cy="436.6166" fill="#84BE84" rx="3" ry="3" style="stroke:#038048;stroke-width:1.0;"/><text fill="#000000" font-family="sans-serif" font-size="14" lengthAdjust="spacing" textLength="305" x="29" y="439.9632">Deconstruct(Name : string, Value : int) : void</text></g><!--class StructA--><g id="elem_StructA"><rect codeLine="31" fill="#F1F1F1" height="121.4531" id="StructA" rx="2.5" ry="2.5" style="stroke:#181818;stroke-width:0.5;" width="167" x="429" y="252.48"/><ellipse cx="482.25" cy="272.6128" fill="#F1F1F1" rx="11" ry="11" style="stroke:#181818;stroke-width:1.0;"/><path d="M481.7344,273.1753 Q479.875,272.4722 479.2188,271.7066 Q478.5781,270.9253 478.5781,269.6128 Q478.5781,267.9253 479.6563,266.9566 Q480.7344,265.9878 482.6094,265.9878 Q483.4688,265.9878 484.3125,266.1909 Q485.1719,266.3784 486.0156,266.7691 L486.0156,269.1597 Q485.2344,268.5972 484.4063,268.3159 Q483.5938,268.0191 482.7969,268.0191 Q481.9219,268.0191 481.4375,268.3784 Q480.9688,268.7378 480.9688,269.3941 Q480.9688,269.9097 481.3125,270.2534 Q481.6563,270.5816 482.75,270.9878 L483.8125,271.3941 Q485.2969,271.9409 486,272.8472 Q486.7188,273.7534 486.7188,275.1284 Q486.7188,277.0034 485.6094,277.9253 Q484.5,278.8472 482.25,278.8472 Q481.3281,278.8472 480.4063,278.6284 Q479.4844,278.4097 478.625,277.9878 L478.625,275.4566 Q479.5938,276.1441 480.5156,276.4878 Q481.4375,276.8316 482.3281,276.8316 Q483.2344,276.8316 483.7344,276.4253 Q484.2344,276.0034 484.2344,275.2691 Q484.2344,274.7066 483.8906,274.3003 Q483.5625,273.8784 482.9375,273.6284 L481.7344,273.1753 Z " fill="#000000"/><text fill="#000000" font-family="sans-serif" font-size="12" font-style="italic" lengthAdjust="spacing" textLength="56" x="500.75" y="268.6187">&#171;sealed&#187;</text><text fill="#000000" font-family="sans-serif" font-size="14" lengthAdjust="spacing" textLength="50" x="503.75" y="284.4439">StructA</text><line style="stroke:#181818;stroke-width:0.5;" x1="430" x2="595" y1="292.7456" y2="292.7456"/><ellipse cx="440" cy="306.3941" fill="none" rx="3" ry="3" style="stroke:#038048;stroke-width:1.0;"/><text fill="#000000" font-family="sans-serif" font-size="14" lengthAdjust="spacing" textLength="140" x="449" y="309.7407">X : float &#171;get&#187; &#171;set&#187;</text><ellipse cx="440" cy="322.6909" fill="none" rx="3" ry="3" style="stroke:#038048;stroke-width:1.0;"/><text fill="#000000" font-family="sans-serif" font-size="14" lengthAdjust="spacing" textLength="140" x="449" y="326.0376">Y : float &#171;get&#187; &#171;set&#187;</text><ellipse cx="440" cy="338.9878" fill="none" rx="3" ry="3" style="stroke:#038048;stroke-width:1.0;"/><text fill="#000000" font-family="sans-serif" font-size="14" lengthAdjust="spacing" textLength="141" x="449" y="342.3345">Z : float &#171;get&#187; &#171;set&#187;</text><line style="stroke:#181818;stroke-width:0.5;" x1="430" x2="595" y1="349.6362" y2="349.6362"/><ellipse cx="440" cy="363.2847" fill="#84BE84" rx="3" ry="3" style="stroke:#038048;stroke-width:1.0;"/><text fill="#000000" font-family="sans-serif" font-size="14" lengthAdjust="spacing" textLength="60" x="449" y="366.6314">StructA()</text></g><!--class RecordStruct--><g id="elem_RecordStruct"><rect codeLine="37" fill="#F1F1F1" height="282.0938" id="RecordStruct" rx="2.5" ry="2.5" style="stroke:#181818;stroke-width:0.5;" width="434" x="630.5" y="172.16"/><ellipse cx="797.75" cy="199.2772" fill="#F1F1F1" rx="11" ry="11" style="stroke:#181818;stroke-width:1.0;"/><path d="M797.2344,199.8397 Q795.375,199.1366 794.7188,198.3709 Q794.0781,197.5897 794.0781,196.2772 Q794.0781,194.5897 795.1563,193.6209 Q796.2344,192.6522 798.1094,192.6522 Q798.9688,192.6522 799.8125,192.8553 Q800.6719,193.0428 801.5156,193.4334 L801.5156,195.8241 Q800.7344,195.2616 799.9063,194.9803 Q799.0938,194.6834 798.2969,194.6834 Q797.4219,194.6834 796.9375,195.0428 Q796.4688,195.4022 796.4688,196.0584 Q796.4688,196.5741 796.8125,196.9178 Q797.1563,197.2459 798.25,197.6522 L799.3125,198.0584 Q800.7969,198.6053 801.5,199.5116 Q802.2188,200.4178 802.2188,201.7928 Q802.2188,203.6678 801.1094,204.5897 Q800,205.5116 797.75,205.5116 Q796.8281,205.5116 795.9063,205.2928 Q794.9844,205.0741 794.125,204.6522 L794.125,202.1209 Q795.0938,202.8084 796.0156,203.1522 Q796.9375,203.4959 797.8281,203.4959 Q798.7344,203.4959 799.2344,203.0897 Q799.7344,202.6678 799.7344,201.9334 Q799.7344,201.3709 799.3906,200.9647 Q799.0625,200.5428 798.4375,200.2928 L797.2344,199.8397 Z " fill="#000000"/><text fill="#000000" font-family="sans-serif" font-size="12" font-style="italic" lengthAdjust="spacing" textLength="56" x="835.75" y="188.2987">&#171;sealed&#187;</text><text fill="#000000" font-family="sans-serif" font-size="12" font-style="italic" lengthAdjust="spacing" textLength="55" x="836.25" y="202.2674">&#171;record&#187;</text><text fill="#000000" font-family="sans-serif" font-size="14" lengthAdjust="spacing" textLength="91" x="818.25" y="218.0926">RecordStruct</text><line style="stroke:#181818;stroke-width:0.5;" x1="631.5" x2="1063.5" y1="226.3944" y2="226.3944"/><ellipse cx="641.5" cy="240.0428" fill="none" rx="3" ry="3" style="stroke:#038048;stroke-width:1.0;"/><text fill="#000000" font-family="sans-serif" font-size="14" lengthAdjust="spacing" textLength="140" x="650.5" y="243.3895">X : float &#171;get&#187; &#171;set&#187;</text><ellipse cx="641.5" cy="256.3397" fill="none" rx="3" ry="3" style="stroke:#038048;stroke-width:1.0;"/><text fill="#000000" font-family="sans-serif" font-size="14" lengthAdjust="spacing" textLength="140" x="650.5" y="259.6864">Y : float &#171;get&#187; &#171;set&#187;</text><ellipse cx="641.5" cy="272.6366" fill="none" rx="3" ry="3" style="stroke:#038048;stroke-width:1.0;"/><text fill="#000000" font-family="sans-serif" font-size="14" lengthAdjust="spacing" textLength="141" x="650.5" y="275.9832">Z : float &#171;get&#187; &#171;set&#187;</text><line style="stroke:#181818;stroke-width:0.5;" x1="631.5" x2="1063.5" y1="283.285" y2="283.285"/><ellipse cx="641.5" cy="296.9334" fill="#84BE84" rx="3" ry="3" style="stroke:#038048;stroke-width:1.0;"/><text fill="#000000" font-family="sans-serif" font-size="14" lengthAdjust="spacing" textLength="271" x="650.5" y="300.2801">RecordStruct(X : float, Y : float, Z : float)</text><ellipse cx="641.5" cy="313.2303" fill="#84BE84" rx="3" ry="3" style="stroke:#038048;stroke-width:1.0;"/><text fill="#000000" font-family="sans-serif" font-size="14" lengthAdjust="spacing" textLength="279" x="650.5" y="316.577">&#171;readonly&#187; &#171;override&#187; ToString() : string</text><rect fill="#F24D5C" height="6" style="stroke:#C82930;stroke-width:1.0;" width="6" x="638.5" y="326.5272"/><text fill="#000000" font-family="sans-serif" font-size="14" lengthAdjust="spacing" textLength="378" x="650.5" y="332.8739">&#171;readonly&#187; PrintMembers(builder : StringBuilder) : bool</text><ellipse cx="641.5" cy="345.8241" fill="#84BE84" rx="3" ry="3" style="stroke:#038048;stroke-width:1.0;"/><text fill="#000000" font-family="sans-serif" font-size="14" lengthAdjust="spacing" text-decoration="underline" textLength="401" x="650.5" y="349.1707">operator !=(left : RecordStruct, right : RecordStruct) : bool</text><ellipse cx="641.5" cy="362.1209" fill="#84BE84" rx="3" ry="3" style="stroke:#038048;stroke-width:1.0;"/><text fill="#000000" font-family="sans-serif" font-size="14" lengthAdjust="spacing" text-decoration="underline" textLength="408" x="650.5" y="365.4676">operator ==(left : RecordStruct, right : RecordStruct) : bool</text><ellipse cx="641.5" cy="378.4178" fill="#84BE84" rx="3" ry="3" style="stroke:#038048;stroke-width:1.0;"/><text fill="#000000" font-family="sans-serif" font-size="14" lengthAdjust="spacing" textLength="296" x="650.5" y="381.7645">&#171;readonly&#187; &#171;override&#187; GetHashCode() : int</text><ellipse cx="641.5" cy="394.7147" fill="#84BE84" rx="3" ry="3" style="stroke:#038048;stroke-width:1.0;"/><text fill="#000000" font-family="sans-serif" font-size="14" lengthAdjust="spacing" textLength="335" x="650.5" y="398.0614">&#171;readonly&#187; &#171;override&#187; Equals(obj : object) : bool</text><ellipse cx="641.5" cy="411.0116" fill="#84BE84" rx="3" ry="3" style="stroke:#038048;stroke-width:1.0;"/><text fill="#000000" font-family="sans-serif" font-size="14" lengthAdjust="spacing" textLength="321" x="650.5" y="414.3582">&#171;readonly&#187; Equals(other : RecordStruct) : bool</text><ellipse cx="641.5" cy="427.3084" fill="#84BE84" rx="3" ry="3" style="stroke:#038048;stroke-width:1.0;"/><text fill="#000000" font-family="sans-serif" font-size="14" lengthAdjust="spacing" textLength="388" x="650.5" y="430.6551">&#171;readonly&#187; Deconstruct(X : float, Y : float, Z : float) : void</text><ellipse cx="641.5" cy="443.6053" fill="#84BE84" rx="3" ry="3" style="stroke:#038048;stroke-width:1.0;"/><text fill="#000000" font-family="sans-serif" font-size="14" lengthAdjust="spacing" textLength="101" x="650.5" y="446.952">RecordStruct()</text></g><!--class LogLevel--><g id="elem_LogLevel"><rect codeLine="52" fill="#F1F1F1" height="170.3438" id="LogLevel" rx="2.5" ry="2.5" style="stroke:#181818;stroke-width:0.5;" width="96" x="153.5" y="537.54"/><ellipse cx="170.3" cy="557.6728" fill="#EB937F" rx="11" ry="11" style="stroke:#181818;stroke-width:1.0;"/><path d="M174.4094,563.6728 L166.6906,563.6728 L166.6906,551.2822 L174.4094,551.2822 L174.4094,553.4384 L169.1438,553.4384 L169.1438,556.1103 L173.9094,556.1103 L173.9094,558.2666 L169.1438,558.2666 L169.1438,561.5166 L174.4094,561.5166 L174.4094,563.6728 Z " fill="#000000"/><text fill="#000000" font-family="sans-serif" font-size="12" font-style="italic" lengthAdjust="spacing" textLength="56" x="186.7" y="553.6787">&#171;sealed&#187;</text><text fill="#000000" font-family="sans-serif" font-size="14" lengthAdjust="spacing" textLength="60" x="184.7" y="569.5039">LogLevel</text><line style="stroke:#181818;stroke-width:0.5;" x1="154.5" x2="248.5" y1="577.8056" y2="577.8056"/><text fill="#000000" font-family="sans-serif" font-size="14" lengthAdjust="spacing" textLength="68" x="159.5" y="594.8007">Trace = 0</text><text fill="#000000" font-family="sans-serif" font-size="14" lengthAdjust="spacing" textLength="76" x="159.5" y="611.0976">Debug = 1</text><text fill="#000000" font-family="sans-serif" font-size="14" lengthAdjust="spacing" textLength="54" x="159.5" y="627.3945">Info = 2</text><text fill="#000000" font-family="sans-serif" font-size="14" lengthAdjust="spacing" textLength="64" x="159.5" y="643.6914">Warn = 3</text><text fill="#000000" font-family="sans-serif" font-size="14" lengthAdjust="spacing" textLength="62" x="159.5" y="659.9882">Error = 4</text><text fill="#000000" font-family="sans-serif" font-size="14" lengthAdjust="spacing" textLength="61" x="159.5" y="676.2851">Fatal = 5</text><line style="stroke:#181818;stroke-width:0.5;" x1="154.5" x2="248.5" y1="683.5869" y2="683.5869"/><ellipse cx="164.5" cy="697.2353" fill="#84BE84" rx="3" ry="3" style="stroke:#038048;stroke-width:1.0;"/><text fill="#000000" font-family="sans-serif" font-size="14" lengthAdjust="spacing" textLength="70" x="173.5" y="700.582">LogLevel()</text></g><!--class Accessibilities--><g id="elem_Accessibilities"><rect codeLine="61" fill="#F1F1F1" height="216.9063" id="Accessibilities" rx="2.5" ry="2.5" style="stroke:#181818;stroke-width:0.5;" width="551" x="284" y="514.25"/><ellipse cx="507.25" cy="541.3672" fill="#EB937F" rx="11" ry="11" style="stroke:#181818;stroke-width:1.0;"/><path d="M511.3594,547.3672 L503.6406,547.3672 L503.6406,534.9766 L511.3594,534.9766 L511.3594,537.1328 L506.0938,537.1328 L506.0938,539.8047 L510.8594,539.8047 L510.8594,541.9609 L506.0938,541.9609 L506.0938,545.2109 L511.3594,545.2109 L511.3594,547.3672 Z " fill="#000000"/><text fill="#000000" font-family="sans-serif" font-size="12" font-style="italic" lengthAdjust="spacing" textLength="47" x="552.25" y="530.3887">&#171;Flags&#187;</text><text fill="#000000" font-family="sans-serif" font-size="12" font-style="italic" lengthAdjust="spacing" textLength="56" x="547.75" y="544.3574">&#171;sealed&#187;</text><text fill="#000000" font-family="sans-serif" font-size="14" lengthAdjust="spacing" textLength="96" x="527.75" y="560.1826">Accessibilities</text><line style="stroke:#181818;stroke-width:0.5;" x1="285" x2="834" y1="568.4844" y2="568.4844"/><text fill="#000000" font-family="sans-serif" font-size="14" lengthAdjust="spacing" textLength="66" x="290" y="585.4795">None = 0</text><text fill="#000000" font-family="sans-serif" font-size="14" lengthAdjust="spacing" textLength="70" x="290" y="601.7764">Public = 1</text><text fill="#000000" font-family="sans-serif" font-size="14" lengthAdjust="spacing" textLength="97" x="290" y="618.0732">Protected = 2</text><text fill="#000000" font-family="sans-serif" font-size="14" lengthAdjust="spacing" textLength="80" x="290" y="634.3701">Internal = 4</text><text fill="#000000" font-family="sans-serif" font-size="14" lengthAdjust="spacing" textLength="148" x="290" y="650.667">ProtectedInternal = 8</text><text fill="#000000" font-family="sans-serif" font-size="14" lengthAdjust="spacing" textLength="152" x="290" y="666.9639">PrivateProtected = 16</text><text fill="#000000" font-family="sans-serif" font-size="14" lengthAdjust="spacing" textLength="84" x="290" y="683.2607">Private = 32</text><text fill="#000000" font-family="sans-serif" font-size="14" lengthAdjust="spacing" textLength="539" x="290" y="699.5576">All = Public | Protected | Internal | ProtectedInternal | PrivateProtected | Private</text><line style="stroke:#181818;stroke-width:0.5;" x1="285" x2="834" y1="706.8594" y2="706.8594"/><ellipse cx="295" cy="720.5078" fill="#84BE84" rx="3" ry="3" style="stroke:#038048;stroke-width:1.0;"/><text fill="#000000" font-family="sans-serif" font-size="14" lengthAdjust="spacing" textLength="106" x="304" y="723.8545">Accessibilities()</text></g><!--SRC=[jLLRRzem57xdLtZgIwfHQTswQQg0ARrjbLg41kekRuvp04_6Pew3X0h_VSTsIE8qbFMXF8GSdy_V-Nmk3XCqoyYbVSQ4F7O8_jwINay3JPKKwy603Ea2o3d9ZEPoXguPcC6W3VX0HMwHN9e6pFD7iixK9QiAVzpPTfYJCZRKSEOs84dcBEGkfJtwfIqPBu7nAMU1l2PenDSgOYf7HJvEY3ofqLLn8wk69eYZp10lAovCBwnIiuDjoJsOkKhZo8POAPxkGro4YAEGEgeoyHsOqcdiScpVwbaeVD4mpEX3FQEUFQXGhxVYskHKuFlrN_pdPdsff3_eEPcibz2eN6lnRM5gc9QwDn2zdbg1rZm5T4tKsB55ZM8S1V96k6xkOP60pg8avo85ZNY_zSBRbY1HIZIhhfQWgL6QlEb70gRsQ4N2ldI9vhDvVUKWIV_b9C5vluBvHhFvfKh17HdFrGPpzSWYbVn133w1cQUqZV8XtCnTNbg579Lzeb0mbrHKoEE2ymfDYLN8cNckctOjk-ruh2q4_iMkq5H0q9s5Bzh5-8cxfqBHVUtnwu3_zrv_ASUVoWUkQze_F1uRbTgwbOnk5V7rZz1oaVxNk9o4UrvbNdoEcktkLryyDoyWsv-DvuPftvwMoNekNkja7PPP7wH3JHL-8e9-jFS_o7n1xjJi3bOWMYPiWlSra3vvvwmhIF8PMgVEkfLJXSPxP_oWMgBnmHdNMjkga3DdtL23rq6VV2n4xC9L0cB68Cjuml4hmS5-ZMy4dML5wuQAXafMWaPv8ZWh5OsqCfXoI4jPjzA0bYxyMGYfUJuN7hwY1keSfv_g7diypneBkwq8lgc5tLG1DosXDa-3b4j5SXgfi3dw1m00]--></g></svg>