<?xml version="1.0" encoding="us-ascii" standalone="no"?><svg xmlns="http://www.w3.org/2000/svg" xmlns:xlink="http://www.w3.org/1999/xlink" contentStyleType="text/css" height="170px" preserveAspectRatio="none" style="width:124px;height:170px;background:#FFFFFF;" version="1.1" viewBox="0 0 124 170" width="124px" zoomAndPan="magnify"><defs/><g><!--class PlanetBase--><g id="elem_PlanetBase"><rect codeLine="1" fill="#F1F1F1" height="48" id="PlanetBase" rx="2.5" ry="2.5" style="stroke:#181818;stroke-width:0.5;" width="110" x="7" y="7"/><ellipse cx="22" cy="23" fill="#A9DCDF" rx="11" ry="11" style="stroke:#181818;stroke-width:1.0;"/><path d="M22.1094,18.3438 L20.9531,23.4219 L23.2813,23.4219 L22.1094,18.3438 Z M20.625,16.1094 L23.6094,16.1094 L26.9688,28.5 L24.5156,28.5 L23.75,25.4375 L20.4688,25.4375 L19.7188,28.5 L17.2813,28.5 L20.625,16.1094 Z " fill="#000000"/><text fill="#000000" font-family="sans-serif" font-size="14" font-style="italic" lengthAdjust="spacing" textLength="78" x="36" y="27.8467">PlanetBase</text><line style="stroke:#181818;stroke-width:0.5;" x1="8" x2="116" y1="39" y2="39"/><line style="stroke:#181818;stroke-width:0.5;" x1="8" x2="116" y1="47" y2="47"/></g><!--class Earth--><g id="elem_Earth"><rect codeLine="3" fill="#F1F1F1" height="48" id="Earth" rx="2.5" ry="2.5" style="stroke:#181818;stroke-width:0.5;" width="68" x="28" y="115"/><ellipse cx="43" cy="131" fill="#ADD1B2" rx="11" ry="11" style="stroke:#181818;stroke-width:1.0;"/><path d="M45.9688,136.6406 Q45.3906,136.9375 44.75,137.0781 Q44.1094,137.2344 43.4063,137.2344 Q40.9063,137.2344 39.5781,135.5938 Q38.2656,133.9375 38.2656,130.8125 Q38.2656,127.6875 39.5781,126.0313 Q40.9063,124.375 43.4063,124.375 Q44.1094,124.375 44.75,124.5313 Q45.4063,124.6875 45.9688,124.9844 L45.9688,127.7031 Q45.3438,127.125 44.75,126.8594 Q44.1563,126.5781 43.5313,126.5781 Q42.1875,126.5781 41.5,127.6563 Q40.8125,128.7188 40.8125,130.8125 Q40.8125,132.9063 41.5,133.9844 Q42.1875,135.0469 43.5313,135.0469 Q44.1563,135.0469 44.75,134.7813 Q45.3438,134.5 45.9688,133.9219 L45.9688,136.6406 Z " fill="#000000"/><text fill="#000000" font-family="sans-serif" font-size="14" lengthAdjust="spacing" textLength="36" x="57" y="135.8467">Earth</text><line style="stroke:#181818;stroke-width:0.5;" x1="29" x2="95" y1="147" y2="147"/><line style="stroke:#181818;stroke-width:0.5;" x1="29" x2="95" y1="155" y2="155"/></g><!--reverse link PlanetBase to Earth--><g id="link_PlanetBase_Earth"><path codeLine="5" d="M62,73.26 C62,90.94 62,97.13 62,114.79 " fill="none" id="PlanetBase-backto-Earth" style="stroke:#181818;stroke-width:1.0;"/><polygon fill="none" points="62,55.26,56,73.26,68,73.26,62,55.26" style="stroke:#181818;stroke-width:1.0;"/></g><!--SRC=[IqmgBYbAJ2vHICv9B2vM2CX9p4ijSKeiJgtcgkM2YBac5fLaA83u25a5cnfTNOWC0000]--></g></svg>