<?xml version="1.0" encoding="us-ascii" standalone="no"?><svg xmlns="http://www.w3.org/2000/svg" xmlns:xlink="http://www.w3.org/1999/xlink" contentStyleType="text/css" height="236px" preserveAspectRatio="none" style="width:389px;height:236px;background:#FFFFFF;" version="1.1" viewBox="0 0 389 236" width="389px" zoomAndPan="magnify"><defs/><g><!--class SampleModel--><g id="elem_SampleModel"><rect codeLine="1" fill="#F1F1F1" height="96.8906" id="SampleModel" rx="2.5" ry="2.5" style="stroke:#181818;stroke-width:0.5;" width="375" x="7" y="7"/><ellipse cx="143.75" cy="23" fill="#ADD1B2" rx="11" ry="11" style="stroke:#181818;stroke-width:1.0;"/><path d="M146.7188,28.6406 Q146.1406,28.9375 145.5,29.0781 Q144.8594,29.2344 144.1563,29.2344 Q141.6563,29.2344 140.3281,27.5938 Q139.0156,25.9375 139.0156,22.8125 Q139.0156,19.6875 140.3281,18.0313 Q141.6563,16.375 144.1563,16.375 Q144.8594,16.375 145.5,16.5313 Q146.1563,16.6875 146.7188,16.9844 L146.7188,19.7031 Q146.0938,19.125 145.5,18.8594 Q144.9063,18.5781 144.2813,18.5781 Q142.9375,18.5781 142.25,19.6563 Q141.5625,20.7188 141.5625,22.8125 Q141.5625,24.9063 142.25,25.9844 Q142.9375,27.0469 144.2813,27.0469 Q144.9063,27.0469 145.5,26.7813 Q146.0938,26.5 146.7188,25.9219 L146.7188,28.6406 Z " fill="#000000"/><text fill="#000000" font-family="sans-serif" font-size="14" lengthAdjust="spacing" textLength="93" x="164.25" y="27.8467">SampleModel</text><line style="stroke:#181818;stroke-width:0.5;" x1="8" x2="381" y1="39" y2="39"/><rect fill="none" height="6" style="stroke:#C82930;stroke-width:1.0;" width="6" x="15" y="49.6484"/><text fill="#000000" font-family="sans-serif" font-size="14" lengthAdjust="spacing" textLength="189" x="27" y="55.9951">&#171;readonly&#187; logger : ILogger</text><ellipse cx="18" cy="68.9453" fill="none" rx="3" ry="3" style="stroke:#038048;stroke-width:1.0;"/><text fill="#000000" font-family="sans-serif" font-size="14" lengthAdjust="spacing" textLength="349" x="27" y="72.292">&#171;readonly&#187; Items : IDictionary&lt;string, Item&gt; &#171;get&#187;</text><line style="stroke:#181818;stroke-width:0.5;" x1="8" x2="381" y1="79.5938" y2="79.5938"/><ellipse cx="18" cy="93.2422" fill="#84BE84" rx="3" ry="3" style="stroke:#038048;stroke-width:1.0;"/><text fill="#000000" font-family="sans-serif" font-size="14" lengthAdjust="spacing" textLength="211" x="27" y="96.5889">SampleModel(logger : ILogger)</text></g><!--class Item--><g id="elem_Item"><rect fill="#F1F1F1" height="48" id="Item" rx="2.5" ry="2.5" style="stroke:#181818;stroke-width:0.5;" width="62" x="163.5" y="181"/><ellipse cx="178.5" cy="197" fill="#ADD1B2" rx="11" ry="11" style="stroke:#181818;stroke-width:1.0;"/><path d="M181.4688,202.6406 Q180.8906,202.9375 180.25,203.0781 Q179.6094,203.2344 178.9063,203.2344 Q176.4063,203.2344 175.0781,201.5938 Q173.7656,199.9375 173.7656,196.8125 Q173.7656,193.6875 175.0781,192.0313 Q176.4063,190.375 178.9063,190.375 Q179.6094,190.375 180.25,190.5313 Q180.9063,190.6875 181.4688,190.9844 L181.4688,193.7031 Q180.8438,193.125 180.25,192.8594 Q179.6563,192.5781 179.0313,192.5781 Q177.6875,192.5781 177,193.6563 Q176.3125,194.7188 176.3125,196.8125 Q176.3125,198.9063 177,199.9844 Q177.6875,201.0469 179.0313,201.0469 Q179.6563,201.0469 180.25,200.7813 Q180.8438,200.5 181.4688,199.9219 L181.4688,202.6406 Z " fill="#000000"/><text fill="#000000" font-family="sans-serif" font-size="14" lengthAdjust="spacing" textLength="30" x="192.5" y="201.8467">Item</text><line style="stroke:#181818;stroke-width:0.5;" x1="164.5" x2="224.5" y1="213" y2="213"/><line style="stroke:#181818;stroke-width:0.5;" x1="164.5" x2="224.5" y1="221" y2="221"/></g><!--reverse link SampleModel to Item--><g id="link_SampleModel_Item"><path codeLine="6" d="M194.5,118.24 C194.5,140.32 194.5,163.87 194.5,180.7 " fill="none" id="SampleModel-backto-Item" style="stroke:#181818;stroke-width:1.0;"/><polygon fill="#181818" points="194.5,105.39,190.5,111.39,194.5,117.39,198.5,111.39,194.5,105.39" style="stroke:#181818;stroke-width:1.0;"/><text fill="#000000" font-family="sans-serif" font-size="13" lengthAdjust="spacing" textLength="36" x="195.5" y="147.0669">Items</text><text fill="#000000" font-family="sans-serif" font-size="13" lengthAdjust="spacing" textLength="158" x="25.8844" y="124.0506">IDictionary&lt;string,Item&gt;</text><text fill="#000000" font-family="sans-serif" font-size="13" lengthAdjust="spacing" textLength="7" x="186.6469" y="170.0318">*</text></g><!--SRC=[Iyv9B2vM24xCBSX9zSrFISrHKAZcKW02NGKRcwBKn9Jyl9nAEpk5dFpqzDGY1Ii5Jnym2wn66rMDPqbgRZ58YKjcSabcVbvYKQLDSKbHPbww3bZE3gWyFRN4pWwg6SbM3NJpDRbgkP1TfOJ5KB2PIWfQkheAIbfAO2j01e1S0G00]--></g></svg>