<?xml version="1.0" encoding="us-ascii" standalone="no"?><svg xmlns="http://www.w3.org/2000/svg" xmlns:xlink="http://www.w3.org/1999/xlink" contentStyleType="text/css" height="236px" preserveAspectRatio="none" style="width:562px;height:236px;background:#FFFFFF;" version="1.1" viewBox="0 0 562 236" width="562px" zoomAndPan="magnify"><defs/><g><!--class SampleModel--><g id="elem_SampleModel"><rect codeLine="1" fill="#F1F1F1" height="96.8906" id="SampleModel" rx="2.5" ry="2.5" style="stroke:#181818;stroke-width:0.5;" width="375" x="180" y="7"/><ellipse cx="316.75" cy="23" fill="#ADD1B2" rx="11" ry="11" style="stroke:#181818;stroke-width:1.0;"/><path d="M319.7188,28.6406 Q319.1406,28.9375 318.5,29.0781 Q317.8594,29.2344 317.1563,29.2344 Q314.6563,29.2344 313.3281,27.5938 Q312.0156,25.9375 312.0156,22.8125 Q312.0156,19.6875 313.3281,18.0313 Q314.6563,16.375 317.1563,16.375 Q317.8594,16.375 318.5,16.5313 Q319.1563,16.6875 319.7188,16.9844 L319.7188,19.7031 Q319.0938,19.125 318.5,18.8594 Q317.9063,18.5781 317.2813,18.5781 Q315.9375,18.5781 315.25,19.6563 Q314.5625,20.7188 314.5625,22.8125 Q314.5625,24.9063 315.25,25.9844 Q315.9375,27.0469 317.2813,27.0469 Q317.9063,27.0469 318.5,26.7813 Q319.0938,26.5 319.7188,25.9219 L319.7188,28.6406 Z " fill="#000000"/><text fill="#000000" font-family="sans-serif" font-size="14" lengthAdjust="spacing" textLength="93" x="337.25" y="27.8467">SampleModel</text><line style="stroke:#181818;stroke-width:0.5;" x1="181" x2="554" y1="39" y2="39"/><rect fill="none" height="6" style="stroke:#C82930;stroke-width:1.0;" width="6" x="188" y="49.6484"/><text fill="#000000" font-family="sans-serif" font-size="14" lengthAdjust="spacing" textLength="189" x="200" y="55.9951">&#171;readonly&#187; logger : ILogger</text><ellipse cx="191" cy="68.9453" fill="none" rx="3" ry="3" style="stroke:#038048;stroke-width:1.0;"/><text fill="#000000" font-family="sans-serif" font-size="14" lengthAdjust="spacing" textLength="349" x="200" y="72.292">&#171;readonly&#187; Items : IDictionary&lt;string, Item&gt; &#171;get&#187;</text><line style="stroke:#181818;stroke-width:0.5;" x1="181" x2="554" y1="79.5938" y2="79.5938"/><ellipse cx="191" cy="93.2422" fill="#84BE84" rx="3" ry="3" style="stroke:#038048;stroke-width:1.0;"/><text fill="#000000" font-family="sans-serif" font-size="14" lengthAdjust="spacing" textLength="211" x="200" y="96.5889">SampleModel(logger : ILogger)</text></g><!--class ILogger--><g id="elem_ILogger"><rect fill="#F1F1F1" height="48" id="ILogger" rx="2.5" ry="2.5" style="stroke:#181818;stroke-width:0.5;" width="83" x="7" y="31.5"/><ellipse cx="22" cy="47.5" fill="#ADD1B2" rx="11" ry="11" style="stroke:#181818;stroke-width:1.0;"/><path d="M24.9688,53.1406 Q24.3906,53.4375 23.75,53.5781 Q23.1094,53.7344 22.4063,53.7344 Q19.9063,53.7344 18.5781,52.0938 Q17.2656,50.4375 17.2656,47.3125 Q17.2656,44.1875 18.5781,42.5313 Q19.9063,40.875 22.4063,40.875 Q23.1094,40.875 23.75,41.0313 Q24.4063,41.1875 24.9688,41.4844 L24.9688,44.2031 Q24.3438,43.625 23.75,43.3594 Q23.1563,43.0781 22.5313,43.0781 Q21.1875,43.0781 20.5,44.1563 Q19.8125,45.2188 19.8125,47.3125 Q19.8125,49.4063 20.5,50.4844 Q21.1875,51.5469 22.5313,51.5469 Q23.1563,51.5469 23.75,51.2813 Q24.3438,51 24.9688,50.4219 L24.9688,53.1406 Z " fill="#000000"/><text fill="#000000" font-family="sans-serif" font-size="14" lengthAdjust="spacing" textLength="51" x="36" y="52.3467">ILogger</text><line style="stroke:#181818;stroke-width:0.5;" x1="8" x2="89" y1="63.5" y2="63.5"/><line style="stroke:#181818;stroke-width:0.5;" x1="8" x2="89" y1="71.5" y2="71.5"/></g><!--class Item--><g id="elem_Item"><rect fill="#F1F1F1" height="48" id="Item" rx="2.5" ry="2.5" style="stroke:#181818;stroke-width:0.5;" width="62" x="336.5" y="181"/><ellipse cx="351.5" cy="197" fill="#ADD1B2" rx="11" ry="11" style="stroke:#181818;stroke-width:1.0;"/><path d="M354.4688,202.6406 Q353.8906,202.9375 353.25,203.0781 Q352.6094,203.2344 351.9063,203.2344 Q349.4063,203.2344 348.0781,201.5938 Q346.7656,199.9375 346.7656,196.8125 Q346.7656,193.6875 348.0781,192.0313 Q349.4063,190.375 351.9063,190.375 Q352.6094,190.375 353.25,190.5313 Q353.9063,190.6875 354.4688,190.9844 L354.4688,193.7031 Q353.8438,193.125 353.25,192.8594 Q352.6563,192.5781 352.0313,192.5781 Q350.6875,192.5781 350,193.6563 Q349.3125,194.7188 349.3125,196.8125 Q349.3125,198.9063 350,199.9844 Q350.6875,201.0469 352.0313,201.0469 Q352.6563,201.0469 353.25,200.7813 Q353.8438,200.5 354.4688,199.9219 L354.4688,202.6406 Z " fill="#000000"/><text fill="#000000" font-family="sans-serif" font-size="14" lengthAdjust="spacing" textLength="30" x="365.5" y="201.8467">Item</text><line style="stroke:#181818;stroke-width:0.5;" x1="337.5" x2="397.5" y1="213" y2="213"/><line style="stroke:#181818;stroke-width:0.5;" x1="337.5" x2="397.5" y1="221" y2="221"/></g><!--link ILogger to SampleModel--><g id="link_ILogger_SampleModel"><path codeLine="6" d="M90.36,70.28 C98.13,72.45 106.24,74.34 114,75.5 C130.79,78.01 148.26,79.31 165.82,79.71 " fill="none" id="ILogger-to-SampleModel" style="stroke:#181818;stroke-width:1.0;"/><polygon fill="none" points="178.59,79.85,172.6299,75.7909,166.5906,79.7313,172.5507,83.7905,178.59,79.85" style="stroke:#181818;stroke-width:1.0;"/><text fill="#000000" font-family="sans-serif" font-size="13" lengthAdjust="spacing" textLength="40" x="115" y="71.5669">logger</text></g><!--link SampleModel to ILogger--><g id="link_SampleModel_ILogger"><path codeLine="8" d="M179.58,55.5 C148.59,55.5 119.09,55.5 95.95,55.5 " fill="none" id="SampleModel-to-ILogger" style="stroke:#181818;stroke-width:1.0;stroke-dasharray:7.0,7.0;"/><polygon fill="#181818" points="91.2,55.5,100.2,59.5,96.2,55.5,100.2,51.5,91.2,55.5" style="stroke:#181818;stroke-width:1.0;"/><text fill="#000000" font-family="sans-serif" font-size="13" lengthAdjust="spacing" textLength="53" x="108.5" y="48.5669">Injection</text></g><!--reverse link SampleModel to Item--><g id="link_SampleModel_Item"><path codeLine="7" d="M367.5,118.24 C367.5,140.32 367.5,163.87 367.5,180.7 " fill="none" id="SampleModel-backto-Item" style="stroke:#181818;stroke-width:1.0;"/><polygon fill="#181818" points="367.5,105.39,363.5,111.39,367.5,117.39,371.5,111.39,367.5,105.39" style="stroke:#181818;stroke-width:1.0;"/><text fill="#000000" font-family="sans-serif" font-size="13" lengthAdjust="spacing" textLength="36" x="368.5" y="147.0669">Items</text><text fill="#000000" font-family="sans-serif" font-size="13" lengthAdjust="spacing" textLength="158" x="198.8844" y="124.0506">IDictionary&lt;string,Item&gt;</text><text fill="#000000" font-family="sans-serif" font-size="13" lengthAdjust="spacing" textLength="7" x="359.6469" y="170.0318">*</text></g><!--SRC=[ROxD2W8X58NtFiN5LKqv3n3YgeqmhNe2cRc8uMYeco5wzzGADBgh2-SxFxDLCS9LhNUB5x-WXGU1V0mu3wWMx-mc15YlDGOuWPpgLvb3pyY4Qop8sSp9UAV2ncCAnkbZrKJ6DIOXFkQcTFURloTFqexopBAlbgattX7qJsrjfJ0m1dIWTKIfA3ixxpYA9bow6zQa5m00]--></g></svg>