<?xml version="1.0" encoding="us-ascii" standalone="no"?><svg xmlns="http://www.w3.org/2000/svg" xmlns:xlink="http://www.w3.org/1999/xlink" contentStyleType="text/css" height="252px" preserveAspectRatio="none" style="width:422px;height:252px;background:#FFFFFF;" version="1.1" viewBox="0 0 422 252" width="422px" zoomAndPan="magnify"><defs/><g><!--class SampleModel--><g id="elem_SampleModel"><rect codeLine="1" fill="#F1F1F1" height="113.1875" id="SampleModel" rx="2.5" ry="2.5" style="stroke:#181818;stroke-width:0.5;" width="338" x="12" y="7"/><ellipse cx="130.25" cy="23" fill="#ADD1B2" rx="11" ry="11" style="stroke:#181818;stroke-width:1.0;"/><path d="M133.2188,28.6406 Q132.6406,28.9375 132,29.0781 Q131.3594,29.2344 130.6563,29.2344 Q128.1563,29.2344 126.8281,27.5938 Q125.5156,25.9375 125.5156,22.8125 Q125.5156,19.6875 126.8281,18.0313 Q128.1563,16.375 130.6563,16.375 Q131.3594,16.375 132,16.5313 Q132.6563,16.6875 133.2188,16.9844 L133.2188,19.7031 Q132.5938,19.125 132,18.8594 Q131.4063,18.5781 130.7813,18.5781 Q129.4375,18.5781 128.75,19.6563 Q128.0625,20.7188 128.0625,22.8125 Q128.0625,24.9063 128.75,25.9844 Q129.4375,27.0469 130.7813,27.0469 Q131.4063,27.0469 132,26.7813 Q132.5938,26.5 133.2188,25.9219 L133.2188,28.6406 Z " fill="#000000"/><text fill="#000000" font-family="sans-serif" font-size="14" lengthAdjust="spacing" textLength="93" x="150.75" y="27.8467">SampleModel</text><line style="stroke:#181818;stroke-width:0.5;" x1="13" x2="349" y1="39" y2="39"/><rect fill="none" height="6" style="stroke:#C82930;stroke-width:1.0;" width="6" x="20" y="49.6484"/><text fill="#000000" font-family="sans-serif" font-size="14" lengthAdjust="spacing" textLength="148" x="32" y="55.9951">httpClient : HttpClient</text><ellipse cx="23" cy="68.9453" fill="none" rx="3" ry="3" style="stroke:#038048;stroke-width:1.0;"/><text fill="#000000" font-family="sans-serif" font-size="14" lengthAdjust="spacing" textLength="312" x="32" y="72.292">Items : IDictionary&lt;string, Item&gt; &#171;get&#187; &#171;set&#187;</text><line style="stroke:#181818;stroke-width:0.5;" x1="13" x2="349" y1="79.5938" y2="79.5938"/><ellipse cx="23" cy="93.2422" fill="#84BE84" rx="3" ry="3" style="stroke:#038048;stroke-width:1.0;"/><text fill="#000000" font-family="sans-serif" font-size="14" lengthAdjust="spacing" textLength="251" x="32" y="96.5889">SampleModel(httpClient : HttpClient)</text><ellipse cx="23" cy="109.5391" fill="#84BE84" rx="3" ry="3" style="stroke:#038048;stroke-width:1.0;"/><text fill="#000000" font-family="sans-serif" font-size="14" lengthAdjust="spacing" textLength="207" x="32" y="112.8857">Write(writer : TextWriter) : void</text></g><!--class HttpClient--><g id="elem_HttpClient"><rect fill="#F1F1F1" height="48" id="HttpClient" rx="2.5" ry="2.5" style="stroke:#181818;stroke-width:0.5;" width="100" x="7" y="197"/><ellipse cx="22" cy="213" fill="#ADD1B2" rx="11" ry="11" style="stroke:#181818;stroke-width:1.0;"/><path d="M24.9688,218.6406 Q24.3906,218.9375 23.75,219.0781 Q23.1094,219.2344 22.4063,219.2344 Q19.9063,219.2344 18.5781,217.5938 Q17.2656,215.9375 17.2656,212.8125 Q17.2656,209.6875 18.5781,208.0313 Q19.9063,206.375 22.4063,206.375 Q23.1094,206.375 23.75,206.5313 Q24.4063,206.6875 24.9688,206.9844 L24.9688,209.7031 Q24.3438,209.125 23.75,208.8594 Q23.1563,208.5781 22.5313,208.5781 Q21.1875,208.5781 20.5,209.6563 Q19.8125,210.7188 19.8125,212.8125 Q19.8125,214.9063 20.5,215.9844 Q21.1875,217.0469 22.5313,217.0469 Q23.1563,217.0469 23.75,216.7813 Q24.3438,216.5 24.9688,215.9219 L24.9688,218.6406 Z " fill="#000000"/><text fill="#000000" font-family="sans-serif" font-size="14" lengthAdjust="spacing" textLength="68" x="36" y="217.8467">HttpClient</text><line style="stroke:#181818;stroke-width:0.5;" x1="8" x2="106" y1="229" y2="229"/><line style="stroke:#181818;stroke-width:0.5;" x1="8" x2="106" y1="237" y2="237"/></g><!--class KeyValuePair`2--><g id="elem_KeyValuePair`2"><rect fill="#F1F1F1" height="48" id="KeyValuePair`2" rx="2.5" ry="2.5" style="stroke:#181818;stroke-width:0.5;" width="136" x="142" y="197"/><ellipse cx="157" cy="213" fill="#ADD1B2" rx="11" ry="11" style="stroke:#181818;stroke-width:1.0;"/><path d="M159.9688,218.6406 Q159.3906,218.9375 158.75,219.0781 Q158.1094,219.2344 157.4063,219.2344 Q154.9063,219.2344 153.5781,217.5938 Q152.2656,215.9375 152.2656,212.8125 Q152.2656,209.6875 153.5781,208.0313 Q154.9063,206.375 157.4063,206.375 Q158.1094,206.375 158.75,206.5313 Q159.4063,206.6875 159.9688,206.9844 L159.9688,209.7031 Q159.3438,209.125 158.75,208.8594 Q158.1563,208.5781 157.5313,208.5781 Q156.1875,208.5781 155.5,209.6563 Q154.8125,210.7188 154.8125,212.8125 Q154.8125,214.9063 155.5,215.9844 Q156.1875,217.0469 157.5313,217.0469 Q158.1563,217.0469 158.75,216.7813 Q159.3438,216.5 159.9688,215.9219 L159.9688,218.6406 Z " fill="#000000"/><text fill="#000000" font-family="sans-serif" font-size="14" lengthAdjust="spacing" textLength="104" x="171" y="217.8467">KeyValuePair`2</text><line style="stroke:#181818;stroke-width:0.5;" x1="143" x2="277" y1="229" y2="229"/><line style="stroke:#181818;stroke-width:0.5;" x1="143" x2="277" y1="237" y2="237"/></g><!--class TextWriter--><g id="elem_TextWriter"><rect fill="#F1F1F1" height="48" id="TextWriter" rx="2.5" ry="2.5" style="stroke:#181818;stroke-width:0.5;" width="102" x="313" y="197"/><ellipse cx="328" cy="213" fill="#ADD1B2" rx="11" ry="11" style="stroke:#181818;stroke-width:1.0;"/><path d="M330.9688,218.6406 Q330.3906,218.9375 329.75,219.0781 Q329.1094,219.2344 328.4063,219.2344 Q325.9063,219.2344 324.5781,217.5938 Q323.2656,215.9375 323.2656,212.8125 Q323.2656,209.6875 324.5781,208.0313 Q325.9063,206.375 328.4063,206.375 Q329.1094,206.375 329.75,206.5313 Q330.4063,206.6875 330.9688,206.9844 L330.9688,209.7031 Q330.3438,209.125 329.75,208.8594 Q329.1563,208.5781 328.5313,208.5781 Q327.1875,208.5781 326.5,209.6563 Q325.8125,210.7188 325.8125,212.8125 Q325.8125,214.9063 326.5,215.9844 Q327.1875,217.0469 328.5313,217.0469 Q329.1563,217.0469 329.75,216.7813 Q330.3438,216.5 330.9688,215.9219 L330.9688,218.6406 Z " fill="#000000"/><text fill="#000000" font-family="sans-serif" font-size="14" lengthAdjust="spacing" textLength="70" x="342" y="217.8467">TextWriter</text><line style="stroke:#181818;stroke-width:0.5;" x1="314" x2="414" y1="229" y2="229"/><line style="stroke:#181818;stroke-width:0.5;" x1="314" x2="414" y1="237" y2="237"/></g><!--reverse link SampleModel to HttpClient--><g id="link_SampleModel_HttpClient"><path codeLine="7" d="M73.78,130.28 C68.51,136.41 63.83,142.98 60,150 C52.31,164.1 51.76,182.27 53.02,196.56 " fill="none" id="SampleModel-backto-HttpClient" style="stroke:#181818;stroke-width:1.0;"/><polygon fill="none" points="82.16,121.37,75.13,122.9759,73.9085,130.0828,80.9385,128.4769,82.16,121.37" style="stroke:#181818;stroke-width:1.0;"/><text fill="#000000" font-family="sans-serif" font-size="13" lengthAdjust="spacing" textLength="62" x="61" y="163.0669">httpClient</text></g><!--link SampleModel to HttpClient--><g id="link_SampleModel_HttpClient"><path codeLine="9" d="M157.89,120.29 C149.79,136.31 139.73,153.17 128,167 C119.8,176.66 109.53,185.6 99.36,193.27 " fill="none" id="SampleModel-to-HttpClient" style="stroke:#181818;stroke-width:1.0;stroke-dasharray:7.0,7.0;"/><polygon fill="#181818" points="95.71,196.7,105.3237,194.5605,99.7288,193.7252,100.564,188.1304,95.71,196.7" style="stroke:#181818;stroke-width:1.0;"/></g><!--reverse link SampleModel to KeyValuePair`2--><g id="link_SampleModel_KeyValuePair`2"><path codeLine="8" d="M193.91,133.71 C198.12,156.32 202.52,179.9 205.65,196.69 " fill="none" id="SampleModel-backto-KeyValuePair`2" style="stroke:#181818;stroke-width:1.0;"/><polygon fill="#181818" points="191.39,121.2,188.5526,127.8294,193.5807,132.9983,196.4181,126.3689,191.39,121.2" style="stroke:#181818;stroke-width:1.0;"/><text fill="#000000" font-family="sans-serif" font-size="13" lengthAdjust="spacing" textLength="36" x="200" y="163.0669">Items</text><text fill="#000000" font-family="sans-serif" font-size="13" lengthAdjust="spacing" textLength="7" x="196.7366" y="186.0194">*</text></g><!--link SampleModel to TextWriter--><g id="link_SampleModel_TextWriter"><path codeLine="10" d="M246.81,120.42 C275.82,145.07 308.58,172.91 332.07,192.87 " fill="none" id="SampleModel-to-TextWriter" style="stroke:#181818;stroke-width:1.0;stroke-dasharray:7.0,7.0;"/><polygon fill="#181818" points="335.65,196.76,331.3841,187.8829,331.8407,193.5213,326.2023,193.9779,335.65,196.76" style="stroke:#181818;stroke-width:1.0;"/></g><!--SRC=[TOzD2y8m38Rl-nLXfssw7JpAs4KF3X44HQ-MBSn2juusVWpnlzkEuJh171BIzscIjn1CQpYmkXMuaoKAW9S79cAu4hKhmR4XMCBcs_Jg37B2MXiXN_E2k6oOwb9DYZVLlDSoIDCAARDLsphySrO5VpQ40tfMd31usAmCSCGdzKygDDrTyj9xU-xbCewTAOOPvq-uo71-v8E_nUx4n0ttZAlBmhTkhAi9d2IPQ_vN6e_w0000]--></g></svg>