<?xml version="1.0" encoding="us-ascii" standalone="no"?><svg xmlns="http://www.w3.org/2000/svg" xmlns:xlink="http://www.w3.org/1999/xlink" contentStyleType="text/css" height="852px" preserveAspectRatio="none" style="width:1213px;height:852px;background:#FFFFFF;" version="1.1" viewBox="0 0 1213 852" width="1213px" zoomAndPan="magnify"><defs/><g><!--class ILogger--><g id="elem_ILogger"><rect codeLine="1" fill="#F1F1F1" height="162.0781" id="ILogger" rx="2.5" ry="2.5" style="stroke:#181818;stroke-width:0.5;" width="522" x="7" y="213"/><ellipse cx="238.25" cy="229" fill="#B4A7E5" rx="11" ry="11" style="stroke:#181818;stroke-width:1.0;"/><path d="M234.1719,224.7656 L234.1719,222.6094 L241.5625,222.6094 L241.5625,224.7656 L239.0938,224.7656 L239.0938,232.8438 L241.5625,232.8438 L241.5625,235 L234.1719,235 L234.1719,232.8438 L236.6406,232.8438 L236.6406,224.7656 L234.1719,224.7656 Z " fill="#000000"/><text fill="#000000" font-family="sans-serif" font-size="14" font-style="italic" lengthAdjust="spacing" textLength="51" x="258.75" y="233.8467">ILogger</text><line style="stroke:#181818;stroke-width:0.5;" x1="8" x2="528" y1="245" y2="245"/><line style="stroke:#181818;stroke-width:0.5;" x1="8" x2="528" y1="253" y2="253"/><ellipse cx="18" cy="266.6484" fill="#84BE84" rx="3" ry="3" style="stroke:#038048;stroke-width:1.0;"/><text fill="#000000" font-family="sans-serif" font-size="14" lengthAdjust="spacing" textLength="496" x="27" y="269.9951">Write(message : string, logLevel : LogLevel, exception : Exception) : void</text><ellipse cx="18" cy="282.9453" fill="#84BE84" rx="3" ry="3" style="stroke:#038048;stroke-width:1.0;"/><text fill="#000000" font-family="sans-serif" font-size="14" lengthAdjust="spacing" textLength="241" x="27" y="286.292">WriteTrace(message : string) : void</text><ellipse cx="18" cy="299.2422" fill="#84BE84" rx="3" ry="3" style="stroke:#038048;stroke-width:1.0;"/><text fill="#000000" font-family="sans-serif" font-size="14" lengthAdjust="spacing" textLength="249" x="27" y="302.5889">WriteDebug(message : string) : void</text><ellipse cx="18" cy="315.5391" fill="#84BE84" rx="3" ry="3" style="stroke:#038048;stroke-width:1.0;"/><text fill="#000000" font-family="sans-serif" font-size="14" lengthAdjust="spacing" textLength="227" x="27" y="318.8857">WriteInfo(message : string) : void</text><ellipse cx="18" cy="331.8359" fill="#84BE84" rx="3" ry="3" style="stroke:#038048;stroke-width:1.0;"/><text fill="#000000" font-family="sans-serif" font-size="14" lengthAdjust="spacing" textLength="237" x="27" y="335.1826">WriteWarn(message : string) : void</text><ellipse cx="18" cy="348.1328" fill="#84BE84" rx="3" ry="3" style="stroke:#038048;stroke-width:1.0;"/><text fill="#000000" font-family="sans-serif" font-size="14" lengthAdjust="spacing" textLength="392" x="27" y="351.4795">WriteError(message : string, exception : Exception) : void</text><ellipse cx="18" cy="364.4297" fill="#84BE84" rx="3" ry="3" style="stroke:#038048;stroke-width:1.0;"/><text fill="#000000" font-family="sans-serif" font-size="14" lengthAdjust="spacing" textLength="391" x="27" y="367.7764">WriteFatal(message : string, exception : Exception) : void</text></g><!--class LogLevel--><g id="elem_LogLevel"><rect codeLine="11" fill="#F1F1F1" height="170.3438" id="LogLevel" rx="2.5" ry="2.5" style="stroke:#181818;stroke-width:0.5;" width="96" x="220" y="675"/><ellipse cx="236.8" cy="695.1328" fill="#EB937F" rx="11" ry="11" style="stroke:#181818;stroke-width:1.0;"/><path d="M240.9094,701.1328 L233.1906,701.1328 L233.1906,688.7422 L240.9094,688.7422 L240.9094,690.8984 L235.6438,690.8984 L235.6438,693.5703 L240.4094,693.5703 L240.4094,695.7266 L235.6438,695.7266 L235.6438,698.9766 L240.9094,698.9766 L240.9094,701.1328 Z " fill="#000000"/><text fill="#000000" font-family="sans-serif" font-size="12" font-style="italic" lengthAdjust="spacing" textLength="56" x="253.2" y="691.1387">&#171;sealed&#187;</text><text fill="#000000" font-family="sans-serif" font-size="14" lengthAdjust="spacing" textLength="60" x="251.2" y="706.9639">LogLevel</text><line style="stroke:#181818;stroke-width:0.5;" x1="221" x2="315" y1="715.2656" y2="715.2656"/><text fill="#000000" font-family="sans-serif" font-size="14" lengthAdjust="spacing" textLength="68" x="226" y="732.2607">Trace = 0</text><text fill="#000000" font-family="sans-serif" font-size="14" lengthAdjust="spacing" textLength="76" x="226" y="748.5576">Debug = 1</text><text fill="#000000" font-family="sans-serif" font-size="14" lengthAdjust="spacing" textLength="54" x="226" y="764.8545">Info = 2</text><text fill="#000000" font-family="sans-serif" font-size="14" lengthAdjust="spacing" textLength="64" x="226" y="781.1514">Warn = 3</text><text fill="#000000" font-family="sans-serif" font-size="14" lengthAdjust="spacing" textLength="62" x="226" y="797.4482">Error = 4</text><text fill="#000000" font-family="sans-serif" font-size="14" lengthAdjust="spacing" textLength="61" x="226" y="813.7451">Fatal = 5</text><line style="stroke:#181818;stroke-width:0.5;" x1="221" x2="315" y1="821.0469" y2="821.0469"/><ellipse cx="231" cy="834.6953" fill="#84BE84" rx="3" ry="3" style="stroke:#038048;stroke-width:1.0;"/><text fill="#000000" font-family="sans-serif" font-size="14" lengthAdjust="spacing" textLength="70" x="240" y="838.042">LogLevel()</text></g><!--class Item--><g id="elem_Item"><rect codeLine="20" fill="#F1F1F1" height="88.8594" id="Item" rx="2.5" ry="2.5" style="stroke:#181818;stroke-width:0.5;" width="214" x="564" y="249.5"/><ellipse cx="641.25" cy="269.6328" fill="#ADD1B2" rx="11" ry="11" style="stroke:#181818;stroke-width:1.0;"/><path d="M644.2188,275.2734 Q643.6406,275.5703 643,275.7109 Q642.3594,275.8672 641.6563,275.8672 Q639.1563,275.8672 637.8281,274.2266 Q636.5156,272.5703 636.5156,269.4453 Q636.5156,266.3203 637.8281,264.6641 Q639.1563,263.0078 641.6563,263.0078 Q642.3594,263.0078 643,263.1641 Q643.6563,263.3203 644.2188,263.6172 L644.2188,266.3359 Q643.5938,265.7578 643,265.4922 Q642.4063,265.2109 641.7813,265.2109 Q640.4375,265.2109 639.75,266.2891 Q639.0625,267.3516 639.0625,269.4453 Q639.0625,271.5391 639.75,272.6172 Q640.4375,273.6797 641.7813,273.6797 Q642.4063,273.6797 643,273.4141 Q643.5938,273.1328 644.2188,272.5547 L644.2188,275.2734 Z " fill="#000000"/><text fill="#000000" font-family="sans-serif" font-size="12" font-style="italic" lengthAdjust="spacing" textLength="55" x="659.75" y="265.6387">&#171;record&#187;</text><text fill="#000000" font-family="sans-serif" font-size="14" lengthAdjust="spacing" textLength="30" x="672.25" y="281.4639">Item</text><line style="stroke:#181818;stroke-width:0.5;" x1="565" x2="777" y1="289.7656" y2="289.7656"/><ellipse cx="575" cy="303.4141" fill="none" rx="3" ry="3" style="stroke:#038048;stroke-width:1.0;"/><text fill="#000000" font-family="sans-serif" font-size="14" lengthAdjust="spacing" textLength="181" x="584" y="306.7607">Name : string &#171;get&#187; &#171;set&#187;</text><ellipse cx="575" cy="319.7109" fill="none" rx="3" ry="3" style="stroke:#038048;stroke-width:1.0;"/><text fill="#000000" font-family="sans-serif" font-size="14" lengthAdjust="spacing" textLength="188" x="584" y="323.0576">Value : double &#171;get&#187; &#171;set&#187;</text><line style="stroke:#181818;stroke-width:0.5;" x1="565" x2="777" y1="330.3594" y2="330.3594"/></g><!--class StructA--><g id="elem_StructA"><rect codeLine="25" fill="#F1F1F1" height="105.1563" id="StructA" rx="2.5" ry="2.5" style="stroke:#181818;stroke-width:0.5;" width="167" x="813.5" y="241.5"/><ellipse cx="866.75" cy="261.6328" fill="#F1F1F1" rx="11" ry="11" style="stroke:#181818;stroke-width:1.0;"/><path d="M866.2344,262.1953 Q864.375,261.4922 863.7188,260.7266 Q863.0781,259.9453 863.0781,258.6328 Q863.0781,256.9453 864.1563,255.9766 Q865.2344,255.0078 867.1094,255.0078 Q867.9688,255.0078 868.8125,255.2109 Q869.6719,255.3984 870.5156,255.7891 L870.5156,258.1797 Q869.7344,257.6172 868.9063,257.3359 Q868.0938,257.0391 867.2969,257.0391 Q866.4219,257.0391 865.9375,257.3984 Q865.4688,257.7578 865.4688,258.4141 Q865.4688,258.9297 865.8125,259.2734 Q866.1563,259.6016 867.25,260.0078 L868.3125,260.4141 Q869.7969,260.9609 870.5,261.8672 Q871.2188,262.7734 871.2188,264.1484 Q871.2188,266.0234 870.1094,266.9453 Q869,267.8672 866.75,267.8672 Q865.8281,267.8672 864.9063,267.6484 Q863.9844,267.4297 863.125,267.0078 L863.125,264.4766 Q864.0938,265.1641 865.0156,265.5078 Q865.9375,265.8516 866.8281,265.8516 Q867.7344,265.8516 868.2344,265.4453 Q868.7344,265.0234 868.7344,264.2891 Q868.7344,263.7266 868.3906,263.3203 Q868.0625,262.8984 867.4375,262.6484 L866.2344,262.1953 Z " fill="#000000"/><text fill="#000000" font-family="sans-serif" font-size="12" font-style="italic" lengthAdjust="spacing" textLength="56" x="885.25" y="257.6387">&#171;sealed&#187;</text><text fill="#000000" font-family="sans-serif" font-size="14" lengthAdjust="spacing" textLength="50" x="888.25" y="273.4639">StructA</text><line style="stroke:#181818;stroke-width:0.5;" x1="814.5" x2="979.5" y1="281.7656" y2="281.7656"/><ellipse cx="824.5" cy="295.4141" fill="none" rx="3" ry="3" style="stroke:#038048;stroke-width:1.0;"/><text fill="#000000" font-family="sans-serif" font-size="14" lengthAdjust="spacing" textLength="140" x="833.5" y="298.7607">X : float &#171;get&#187; &#171;set&#187;</text><ellipse cx="824.5" cy="311.7109" fill="none" rx="3" ry="3" style="stroke:#038048;stroke-width:1.0;"/><text fill="#000000" font-family="sans-serif" font-size="14" lengthAdjust="spacing" textLength="140" x="833.5" y="315.0576">Y : float &#171;get&#187; &#171;set&#187;</text><ellipse cx="824.5" cy="328.0078" fill="none" rx="3" ry="3" style="stroke:#038048;stroke-width:1.0;"/><text fill="#000000" font-family="sans-serif" font-size="14" lengthAdjust="spacing" textLength="141" x="833.5" y="331.3545">Z : float &#171;get&#187; &#171;set&#187;</text><line style="stroke:#181818;stroke-width:0.5;" x1="814.5" x2="979.5" y1="338.6563" y2="338.6563"/></g><!--class Parameters--><g id="elem_Parameters"><rect codeLine="31" fill="#F1F1F1" height="105.1563" id="Parameters" rx="2.5" ry="2.5" style="stroke:#181818;stroke-width:0.5;" width="191" x="1015.5" y="241.5"/><ellipse cx="1067.25" cy="261.6328" fill="#ADD1B2" rx="11" ry="11" style="stroke:#181818;stroke-width:1.0;"/><path d="M1070.2188,267.2734 Q1069.6406,267.5703 1069,267.7109 Q1068.3594,267.8672 1067.6563,267.8672 Q1065.1563,267.8672 1063.8281,266.2266 Q1062.5156,264.5703 1062.5156,261.4453 Q1062.5156,258.3203 1063.8281,256.6641 Q1065.1563,255.0078 1067.6563,255.0078 Q1068.3594,255.0078 1069,255.1641 Q1069.6563,255.3203 1070.2188,255.6172 L1070.2188,258.3359 Q1069.5938,257.7578 1069,257.4922 Q1068.4063,257.2109 1067.7813,257.2109 Q1066.4375,257.2109 1065.75,258.2891 Q1065.0625,259.3516 1065.0625,261.4453 Q1065.0625,263.5391 1065.75,264.6172 Q1066.4375,265.6797 1067.7813,265.6797 Q1068.4063,265.6797 1069,265.4141 Q1069.5938,265.1328 1070.2188,264.5547 L1070.2188,267.2734 Z " fill="#000000"/><text fill="#000000" font-family="sans-serif" font-size="12" font-style="italic" lengthAdjust="spacing" textLength="55" x="1099.75" y="257.6387">&#171;record&#187;</text><text fill="#000000" font-family="sans-serif" font-size="14" lengthAdjust="spacing" textLength="79" x="1087.75" y="273.4639">Parameters</text><line style="stroke:#181818;stroke-width:0.5;" x1="1016.5" x2="1205.5" y1="281.7656" y2="281.7656"/><ellipse cx="1026.5" cy="295.4141" fill="none" rx="3" ry="3" style="stroke:#038048;stroke-width:1.0;"/><text fill="#000000" font-family="sans-serif" font-size="14" lengthAdjust="spacing" textLength="165" x="1035.5" y="298.7607">&#171;readonly&#187; X : int &#171;get&#187;</text><ellipse cx="1026.5" cy="311.7109" fill="none" rx="3" ry="3" style="stroke:#038048;stroke-width:1.0;"/><text fill="#000000" font-family="sans-serif" font-size="14" lengthAdjust="spacing" textLength="165" x="1035.5" y="315.0576">&#171;readonly&#187; Y : int &#171;get&#187;</text><line style="stroke:#181818;stroke-width:0.5;" x1="1016.5" x2="1205.5" y1="322.3594" y2="322.3594"/><ellipse cx="1026.5" cy="336.0078" fill="#84BE84" rx="3" ry="3" style="stroke:#038048;stroke-width:1.0;"/><text fill="#000000" font-family="sans-serif" font-size="14" lengthAdjust="spacing" textLength="71" x="1035.5" y="339.3545">Area() : int</text></g><!--class SampleModel--><g id="elem_SampleModel"><rect codeLine="36" fill="#F1F1F1" height="129.4844" id="SampleModel" rx="2.5" ry="2.5" style="stroke:#181818;stroke-width:0.5;" width="429" x="456.5" y="7"/><ellipse cx="620.25" cy="23" fill="#ADD1B2" rx="11" ry="11" style="stroke:#181818;stroke-width:1.0;"/><path d="M623.2188,28.6406 Q622.6406,28.9375 622,29.0781 Q621.3594,29.2344 620.6563,29.2344 Q618.1563,29.2344 616.8281,27.5938 Q615.5156,25.9375 615.5156,22.8125 Q615.5156,19.6875 616.8281,18.0313 Q618.1563,16.375 620.6563,16.375 Q621.3594,16.375 622,16.5313 Q622.6563,16.6875 623.2188,16.9844 L623.2188,19.7031 Q622.5938,19.125 622,18.8594 Q621.4063,18.5781 620.7813,18.5781 Q619.4375,18.5781 618.75,19.6563 Q618.0625,20.7188 618.0625,22.8125 Q618.0625,24.9063 618.75,25.9844 Q619.4375,27.0469 620.7813,27.0469 Q621.4063,27.0469 622,26.7813 Q622.5938,26.5 623.2188,25.9219 L623.2188,28.6406 Z " fill="#000000"/><text fill="#000000" font-family="sans-serif" font-size="14" lengthAdjust="spacing" textLength="93" x="640.75" y="27.8467">SampleModel</text><line style="stroke:#181818;stroke-width:0.5;" x1="457.5" x2="884.5" y1="39" y2="39"/><rect fill="none" height="6" style="stroke:#C82930;stroke-width:1.0;" width="6" x="464.5" y="49.6484"/><text fill="#000000" font-family="sans-serif" font-size="14" lengthAdjust="spacing" textLength="189" x="476.5" y="55.9951">&#171;readonly&#187; logger : ILogger</text><rect fill="none" height="6" style="stroke:#C82930;stroke-width:1.0;" width="6" x="464.5" y="65.9453"/><text fill="#000000" font-family="sans-serif" font-size="14" lengthAdjust="spacing" textLength="265" x="476.5" y="72.292">&#171;readonly&#187; structures : IList&lt;StructA&gt;</text><ellipse cx="467.5" cy="85.2422" fill="none" rx="3" ry="3" style="stroke:#038048;stroke-width:1.0;"/><text fill="#000000" font-family="sans-serif" font-size="14" lengthAdjust="spacing" textLength="323" x="476.5" y="88.5889">&#171;readonly&#187; Items : IReadOnlyList&lt;Item&gt; &#171;get&#187;</text><line style="stroke:#181818;stroke-width:0.5;" x1="457.5" x2="884.5" y1="95.8906" y2="95.8906"/><ellipse cx="467.5" cy="109.5391" fill="#84BE84" rx="3" ry="3" style="stroke:#038048;stroke-width:1.0;"/><text fill="#000000" font-family="sans-serif" font-size="14" lengthAdjust="spacing" textLength="403" x="476.5" y="112.8857">SampleModel(logger : ILogger, structures : IList&lt;StructA&gt;)</text><ellipse cx="467.5" cy="125.8359" fill="#84BE84" rx="3" ry="3" style="stroke:#038048;stroke-width:1.0;"/><text fill="#000000" font-family="sans-serif" font-size="14" lengthAdjust="spacing" textLength="383" x="476.5" y="129.1826">&#171;async&#187; Execute(parameters : Parameters) : ValueTask</text></g><!--class Logger--><g id="elem_Logger"><rect codeLine="48" fill="#F1F1F1" height="178.375" id="Logger" rx="2.5" ry="2.5" style="stroke:#181818;stroke-width:0.5;" width="529" x="301.5" y="436"/><ellipse cx="537.75" cy="452" fill="#ADD1B2" rx="11" ry="11" style="stroke:#181818;stroke-width:1.0;"/><path d="M540.7188,457.6406 Q540.1406,457.9375 539.5,458.0781 Q538.8594,458.2344 538.1563,458.2344 Q535.6563,458.2344 534.3281,456.5938 Q533.0156,454.9375 533.0156,451.8125 Q533.0156,448.6875 534.3281,447.0313 Q535.6563,445.375 538.1563,445.375 Q538.8594,445.375 539.5,445.5313 Q540.1563,445.6875 540.7188,445.9844 L540.7188,448.7031 Q540.0938,448.125 539.5,447.8594 Q538.9063,447.5781 538.2813,447.5781 Q536.9375,447.5781 536.25,448.6563 Q535.5625,449.7188 535.5625,451.8125 Q535.5625,453.9063 536.25,454.9844 Q536.9375,456.0469 538.2813,456.0469 Q538.9063,456.0469 539.5,455.7813 Q540.0938,455.5 540.7188,454.9219 L540.7188,457.6406 Z " fill="#000000"/><text fill="#000000" font-family="sans-serif" font-size="14" lengthAdjust="spacing" textLength="48" x="558.25" y="456.8467">Logger</text><line style="stroke:#181818;stroke-width:0.5;" x1="302.5" x2="829.5" y1="468" y2="468"/><line style="stroke:#181818;stroke-width:0.5;" x1="302.5" x2="829.5" y1="476" y2="476"/><ellipse cx="312.5" cy="489.6484" fill="#84BE84" rx="3" ry="3" style="stroke:#038048;stroke-width:1.0;"/><text fill="#000000" font-family="sans-serif" font-size="14" lengthAdjust="spacing" textLength="503" x="321.5" y="492.9951">Write(message : string, logLevel : LogLevel, exception : Exception?) : void</text><ellipse cx="312.5" cy="505.9453" fill="#84BE84" rx="3" ry="3" style="stroke:#038048;stroke-width:1.0;"/><text fill="#000000" font-family="sans-serif" font-size="14" lengthAdjust="spacing" textLength="249" x="321.5" y="509.292">WriteDebug(message : string) : void</text><ellipse cx="312.5" cy="522.2422" fill="#84BE84" rx="3" ry="3" style="stroke:#038048;stroke-width:1.0;"/><text fill="#000000" font-family="sans-serif" font-size="14" lengthAdjust="spacing" textLength="227" x="321.5" y="525.5889">WriteInfo(message : string) : void</text><ellipse cx="312.5" cy="538.5391" fill="#84BE84" rx="3" ry="3" style="stroke:#038048;stroke-width:1.0;"/><text fill="#000000" font-family="sans-serif" font-size="14" lengthAdjust="spacing" textLength="241" x="321.5" y="541.8857">WriteTrace(message : string) : void</text><ellipse cx="312.5" cy="554.8359" fill="#84BE84" rx="3" ry="3" style="stroke:#038048;stroke-width:1.0;"/><text fill="#000000" font-family="sans-serif" font-size="14" lengthAdjust="spacing" textLength="237" x="321.5" y="558.1826">WriteWarn(message : string) : void</text><ellipse cx="312.5" cy="571.1328" fill="#84BE84" rx="3" ry="3" style="stroke:#038048;stroke-width:1.0;"/><text fill="#000000" font-family="sans-serif" font-size="14" lengthAdjust="spacing" textLength="399" x="321.5" y="574.4795">WriteError(message : string, exception : Exception?) : void</text><ellipse cx="312.5" cy="587.4297" fill="#84BE84" rx="3" ry="3" style="stroke:#038048;stroke-width:1.0;"/><text fill="#000000" font-family="sans-serif" font-size="14" lengthAdjust="spacing" textLength="398" x="321.5" y="590.7764">WriteFatal(message : string, exception : Exception?) : void</text><ellipse cx="312.5" cy="603.7266" fill="#84BE84" rx="3" ry="3" style="stroke:#038048;stroke-width:1.0;"/><text fill="#000000" font-family="sans-serif" font-size="14" lengthAdjust="spacing" textLength="58" x="321.5" y="607.0732">Logger()</text></g><!--link ILogger to LogLevel--><g id="link_ILogger_LogLevel"><path codeLine="10" d="M268,375.29 C268,457.06 268,583.61 268,668.79 " fill="none" id="ILogger-to-LogLevel" style="stroke:#181818;stroke-width:1.0;stroke-dasharray:7.0,7.0;"/><polygon fill="#181818" points="268,673.6,272,664.6,268,668.6,264,664.6,268,673.6" style="stroke:#181818;stroke-width:1.0;"/></g><!--reverse link SampleModel to ILogger--><g id="link_SampleModel_ILogger"><path codeLine="43" d="M519.94,142.58 C504.65,150.27 489.44,158.15 475,166 C448.51,180.39 420.67,196.65 394.3,212.61 " fill="none" id="SampleModel-backto-ILogger" style="stroke:#181818;stroke-width:1.0;"/><polygon fill="none" points="531.21,136.47,524.0559,135.565,520.469,141.8207,527.6231,142.7257,531.21,136.47" style="stroke:#181818;stroke-width:1.0;"/><text fill="#000000" font-family="sans-serif" font-size="13" lengthAdjust="spacing" textLength="40" x="476" y="179.0669">logger</text></g><!--link SampleModel to ILogger--><g id="link_SampleModel_ILogger"><path codeLine="46" d="M591.13,136.47 C569.08,152.69 544.68,169.36 521,183 C504.69,192.4 487.42,201.5 469.87,210.18 " fill="none" id="SampleModel-to-ILogger" style="stroke:#181818;stroke-width:1.0;stroke-dasharray:7.0,7.0;"/><polygon fill="#181818" points="465.92,212.61,475.7609,212.2131,470.4035,210.3968,472.2197,205.0395,465.92,212.61" style="stroke:#181818;stroke-width:1.0;"/></g><!--reverse link SampleModel to StructA--><g id="link_SampleModel_StructA"><path codeLine="44" d="M746.15,145.82 C778.18,177.07 814.8,212.8 843.94,241.23 " fill="none" id="SampleModel-backto-StructA" style="stroke:#181818;stroke-width:1.0;"/><polygon fill="none" points="737.37,137.28,738.8721,144.3329,745.9602,145.6591,744.4581,138.6061,737.37,137.28" style="stroke:#181818;stroke-width:1.0;"/><text fill="#000000" font-family="sans-serif" font-size="13" lengthAdjust="spacing" textLength="65" x="785" y="179.0669">structures</text><text fill="#000000" font-family="sans-serif" font-size="13" lengthAdjust="spacing" textLength="7" x="829.6933" y="230.5733">*</text></g><!--reverse link SampleModel to Item--><g id="link_SampleModel_Item"><path codeLine="45" d="M671,150.22 C671,183.45 671,221.02 671,249.27 " fill="none" id="SampleModel-backto-Item" style="stroke:#181818;stroke-width:1.0;"/><polygon fill="#181818" points="671,137.28,667,143.28,671,149.28,675,143.28,671,137.28" style="stroke:#181818;stroke-width:1.0;"/><text fill="#000000" font-family="sans-serif" font-size="13" lengthAdjust="spacing" textLength="36" x="672" y="179.0669">Items</text><text fill="#000000" font-family="sans-serif" font-size="13" lengthAdjust="spacing" textLength="7" x="663.4641" y="238.3601">*</text></g><!--link SampleModel to Parameters--><g id="link_SampleModel_Parameters"><path codeLine="47" d="M838.51,136.49 C890.71,158.53 947.74,184.83 998,213 C1011.26,220.43 1024.86,229.07 1037.83,237.87 " fill="none" id="SampleModel-to-Parameters" style="stroke:#181818;stroke-width:1.0;stroke-dasharray:7.0,7.0;"/><polygon fill="#181818" points="1041.58,241.12,1036.4162,232.7334,1037.4552,238.294,1031.8946,239.3331,1041.58,241.12" style="stroke:#181818;stroke-width:1.0;"/></g><!--reverse link ILogger to Logger--><g id="link_ILogger_Logger"><path codeLine="58" d="M389.19,388.13 C409.59,403.81 430.71,420.04 450.95,435.59 " fill="none" id="ILogger-backto-Logger" style="stroke:#181818;stroke-width:1.0;stroke-dasharray:7.0,7.0;"/><polygon fill="none" points="385.24,393.15,373.64,375.41,393.77,382.05,385.24,393.15" style="stroke:#181818;stroke-width:1.0;"/></g><!--link Logger to LogLevel--><g id="link_Logger_LogLevel"><path codeLine="59" d="M452.91,614.42 C407.5,649.92 357.36,689.13 320.76,717.75 " fill="none" id="Logger-to-LogLevel" style="stroke:#181818;stroke-width:1.0;stroke-dasharray:7.0,7.0;"/><polygon fill="#181818" points="317.37,721.18,326.9281,718.8048,321.3145,718.1073,322.0119,712.4936,317.37,721.18" style="stroke:#181818;stroke-width:1.0;"/></g><!--SRC=[lLJ9JiCm4BtdAonEBLt4UebA4H95gbGM0MAxcMGQHJXsPJi81FmxOyT9qzP044ikoHk_pF9cF2dN8ASq0ZAUY2G1ISXBGF3fa6kPQcXbe1HDW8H4QPdof4kOI2Rm20nD4_VP9V0KmKodWgDrL7wt4JoADAuxl9GORCMhZta8ztdIY3dcKz68U4qbRqGSIIcaf_R6PHvHJTct7Rm5PHVw_M6bRW0ypof41WC5b44y79QzifgIFR9XaTKDqQP5HXi4MnQO-X5iMs1hHBHZaKqOqQwheWpNQcDM4QDAaR663ADBY8IiHU-G4vhDQqH60XgFJPxuTfmhod93YaL-ps25z1O4-7iUQN9XNmUUCZla1XrCcQ3wWo2tNvpVVNYEyOiYpwZ4Ql1IA6-fnaPZmTapMaqwAQ-S-IYtNie1CbhjugYIzu9cCmR78iOUktYzHMUic8smlAi-Jg5YBa5PNghqm2dgpS_qr3BFqNQADlk7iGwNSgwbrrfEfFjPs7OLbwfd7c7GqHD4EUwMsLphi2Qy4SQEooLL3oXFNHZHwrMRAdI2h13MrjUgCGfhgIqGrntHJdLO2B50C5Um57hPFa_MDU_tb-V-F-t4vWlvRxRd_e_NvxA7eXTsSPMZCdZjzvqzy6pOTm00]--></g></svg>