<?xml version="1.0" encoding="us-ascii" standalone="no"?><svg xmlns="http://www.w3.org/2000/svg" xmlns:xlink="http://www.w3.org/1999/xlink" contentStyleType="text/css" height="576px" preserveAspectRatio="none" style="width:939px;height:576px;background:#FFFFFF;" version="1.1" viewBox="0 0 939 576" width="939px" zoomAndPan="magnify"><defs/><g><!--class ClassA--><g id="elem_ClassA"><rect codeLine="1" fill="#F1F1F1" height="96.8906" id="ClassA" rx="2.5" ry="2.5" style="stroke:#181818;stroke-width:0.5;" width="247" x="7" y="11"/><ellipse cx="103.25" cy="27" fill="#ADD1B2" rx="11" ry="11" style="stroke:#181818;stroke-width:1.0;"/><path d="M106.2188,32.6406 Q105.6406,32.9375 105,33.0781 Q104.3594,33.2344 103.6563,33.2344 Q101.1563,33.2344 99.8281,31.5938 Q98.5156,29.9375 98.5156,26.8125 Q98.5156,23.6875 99.8281,22.0313 Q101.1563,20.375 103.6563,20.375 Q104.3594,20.375 105,20.5313 Q105.6563,20.6875 106.2188,20.9844 L106.2188,23.7031 Q105.5938,23.125 105,22.8594 Q104.4063,22.5781 103.7813,22.5781 Q102.4375,22.5781 101.75,23.6563 Q101.0625,24.7188 101.0625,26.8125 Q101.0625,28.9063 101.75,29.9844 Q102.4375,31.0469 103.7813,31.0469 Q104.4063,31.0469 105,30.7813 Q105.5938,30.5 106.2188,29.9219 L106.2188,32.6406 Z " fill="#000000"/><text fill="#000000" font-family="sans-serif" font-size="14" lengthAdjust="spacing" textLength="46" x="123.75" y="31.8467">ClassA</text><line style="stroke:#181818;stroke-width:0.5;" x1="8" x2="253" y1="43" y2="43"/><ellipse cx="18" cy="56.6484" fill="none" rx="3" ry="3" style="stroke:#038048;stroke-width:1.0;"/><text fill="#000000" font-family="sans-serif" font-size="14" lengthAdjust="spacing" textLength="218" x="27" y="59.9951">&#171;readonly&#187; Name : string &#171;get&#187;</text><ellipse cx="18" cy="72.9453" fill="none" rx="3" ry="3" style="stroke:#038048;stroke-width:1.0;"/><text fill="#000000" font-family="sans-serif" font-size="14" lengthAdjust="spacing" textLength="194" x="27" y="76.292">&#171;readonly&#187; Value : int &#171;get&#187;</text><line style="stroke:#181818;stroke-width:0.5;" x1="8" x2="253" y1="83.5938" y2="83.5938"/><ellipse cx="18" cy="97.2422" fill="#84BE84" rx="3" ry="3" style="stroke:#038048;stroke-width:1.0;"/><text fill="#000000" font-family="sans-serif" font-size="14" lengthAdjust="spacing" textLength="221" x="27" y="100.5889">ClassA(name : string, value : int)</text></g><!--class StaticClass--><g id="elem_StaticClass"><rect codeLine="6" fill="#F1F1F1" height="105.1563" id="StaticClass" rx="2.5" ry="2.5" style="stroke:#181818;stroke-width:0.5;" width="186" x="289.5" y="7"/><ellipse cx="340.75" cy="27.1328" fill="#ADD1B2" rx="11" ry="11" style="stroke:#181818;stroke-width:1.0;"/><path d="M343.7188,32.7734 Q343.1406,33.0703 342.5,33.2109 Q341.8594,33.3672 341.1563,33.3672 Q338.6563,33.3672 337.3281,31.7266 Q336.0156,30.0703 336.0156,26.9453 Q336.0156,23.8203 337.3281,22.1641 Q338.6563,20.5078 341.1563,20.5078 Q341.8594,20.5078 342.5,20.6641 Q343.1563,20.8203 343.7188,21.1172 L343.7188,23.8359 Q343.0938,23.2578 342.5,22.9922 Q341.9063,22.7109 341.2813,22.7109 Q339.9375,22.7109 339.25,23.7891 Q338.5625,24.8516 338.5625,26.9453 Q338.5625,29.0391 339.25,30.1172 Q339.9375,31.1797 341.2813,31.1797 Q341.9063,31.1797 342.5,30.9141 Q343.0938,30.6328 343.7188,30.0547 L343.7188,32.7734 Z " fill="#000000"/><text fill="#000000" font-family="sans-serif" font-size="12" font-style="italic" lengthAdjust="spacing" textLength="49" x="374.25" y="23.1387">&#171;static&#187;</text><text fill="#000000" font-family="sans-serif" font-size="14" lengthAdjust="spacing" textLength="75" x="361.25" y="38.9639">StaticClass</text><line style="stroke:#181818;stroke-width:0.5;" x1="290.5" x2="474.5" y1="47.2656" y2="47.2656"/><ellipse cx="300.5" cy="60.9141" fill="none" rx="3" ry="3" style="stroke:#038048;stroke-width:1.0;"/><text fill="#000000" font-family="sans-serif" font-size="14" lengthAdjust="spacing" text-decoration="underline" textLength="145" x="309.5" y="64.2607">SpecificName : string</text><line style="stroke:#181818;stroke-width:0.5;" x1="290.5" x2="474.5" y1="71.5625" y2="71.5625"/><ellipse cx="300.5" cy="85.2109" fill="#84BE84" rx="3" ry="3" style="stroke:#038048;stroke-width:1.0;"/><text fill="#000000" font-family="sans-serif" font-size="14" lengthAdjust="spacing" text-decoration="underline" textLength="160" x="309.5" y="88.5576">Piyo(count : int) : string</text><rect fill="#F24D5C" height="6" style="stroke:#C82930;stroke-width:1.0;" width="6" x="297.5" y="98.5078"/><text fill="#000000" font-family="sans-serif" font-size="14" lengthAdjust="spacing" text-decoration="underline" textLength="85" x="309.5" y="104.8545">StaticClass()</text></g><!--class AbstractClass--><g id="elem_AbstractClass"><rect codeLine="11" fill="#F1F1F1" height="96.8906" id="AbstractClass" rx="2.5" ry="2.5" style="stroke:#181818;stroke-width:0.5;" width="140" x="510.5" y="11"/><ellipse cx="531.8" cy="27" fill="#A9DCDF" rx="11" ry="11" style="stroke:#181818;stroke-width:1.0;"/><path d="M531.9094,22.3438 L530.7531,27.4219 L533.0813,27.4219 L531.9094,22.3438 Z M530.425,20.1094 L533.4094,20.1094 L536.7688,32.5 L534.3156,32.5 L533.55,29.4375 L530.2688,29.4375 L529.5188,32.5 L527.0813,32.5 L530.425,20.1094 Z " fill="#000000"/><text fill="#000000" font-family="sans-serif" font-size="14" font-style="italic" lengthAdjust="spacing" textLength="94" x="547.2" y="31.8467">AbstractClass</text><line style="stroke:#181818;stroke-width:0.5;" x1="511.5" x2="649.5" y1="43" y2="43"/><line style="stroke:#181818;stroke-width:0.5;" x1="511.5" x2="649.5" y1="51" y2="51"/><ellipse cx="521.5" cy="64.6484" fill="#84BE84" rx="3" ry="3" style="stroke:#038048;stroke-width:1.0;"/><text fill="#000000" font-family="sans-serif" font-size="14" font-style="italic" lengthAdjust="spacing" textLength="113" x="530.5" y="67.9951">MethodA() : void</text><ellipse cx="521.5" cy="80.9453" fill="#84BE84" rx="3" ry="3" style="stroke:#038048;stroke-width:1.0;"/><text fill="#000000" font-family="sans-serif" font-size="14" font-style="italic" lengthAdjust="spacing" textLength="114" x="530.5" y="84.292">MethodB() : void</text><polygon fill="#FFFF44" points="521.5,92.2422,525.5,96.2422,521.5,100.2422,517.5,96.2422" style="stroke:#B38D22;stroke-width:1.0;"/><text fill="#000000" font-family="sans-serif" font-size="14" lengthAdjust="spacing" textLength="104" x="530.5" y="100.5889">AbstractClass()</text></g><!--class IInterfaceA--><g id="elem_IInterfaceA"><rect codeLine="16" fill="#F1F1F1" height="64.2969" id="IInterfaceA" rx="2.5" ry="2.5" style="stroke:#181818;stroke-width:0.5;" width="139" x="61" y="200.5"/><ellipse cx="91.75" cy="216.5" fill="#B4A7E5" rx="11" ry="11" style="stroke:#181818;stroke-width:1.0;"/><path d="M87.6719,212.2656 L87.6719,210.1094 L95.0625,210.1094 L95.0625,212.2656 L92.5938,212.2656 L92.5938,220.3438 L95.0625,220.3438 L95.0625,222.5 L87.6719,222.5 L87.6719,220.3438 L90.1406,220.3438 L90.1406,212.2656 L87.6719,212.2656 Z " fill="#000000"/><text fill="#000000" font-family="sans-serif" font-size="14" font-style="italic" lengthAdjust="spacing" textLength="72" x="109.25" y="221.3467">IInterfaceA</text><line style="stroke:#181818;stroke-width:0.5;" x1="62" x2="199" y1="232.5" y2="232.5"/><line style="stroke:#181818;stroke-width:0.5;" x1="62" x2="199" y1="240.5" y2="240.5"/><ellipse cx="72" cy="254.1484" fill="#84BE84" rx="3" ry="3" style="stroke:#038048;stroke-width:1.0;"/><text fill="#000000" font-family="sans-serif" font-size="14" lengthAdjust="spacing" textLength="113" x="81" y="257.4951">MethodA() : void</text></g><!--class RecordA--><g id="elem_RecordA"><rect codeLine="19" fill="#F1F1F1" height="88.8594" id="RecordA" rx="2.5" ry="2.5" style="stroke:#181818;stroke-width:0.5;" width="207" x="235" y="188"/><ellipse cx="304.75" cy="208.1328" fill="#ADD1B2" rx="11" ry="11" style="stroke:#181818;stroke-width:1.0;"/><path d="M307.7188,213.7734 Q307.1406,214.0703 306.5,214.2109 Q305.8594,214.3672 305.1563,214.3672 Q302.6563,214.3672 301.3281,212.7266 Q300.0156,211.0703 300.0156,207.9453 Q300.0156,204.8203 301.3281,203.1641 Q302.6563,201.5078 305.1563,201.5078 Q305.8594,201.5078 306.5,201.6641 Q307.1563,201.8203 307.7188,202.1172 L307.7188,204.8359 Q307.0938,204.2578 306.5,203.9922 Q305.9063,203.7109 305.2813,203.7109 Q303.9375,203.7109 303.25,204.7891 Q302.5625,205.8516 302.5625,207.9453 Q302.5625,210.0391 303.25,211.1172 Q303.9375,212.1797 305.2813,212.1797 Q305.9063,212.1797 306.5,211.9141 Q307.0938,211.6328 307.7188,211.0547 L307.7188,213.7734 Z " fill="#000000"/><text fill="#000000" font-family="sans-serif" font-size="12" font-style="italic" lengthAdjust="spacing" textLength="55" x="327.25" y="204.1387">&#171;record&#187;</text><text fill="#000000" font-family="sans-serif" font-size="14" lengthAdjust="spacing" textLength="59" x="325.25" y="219.9639">RecordA</text><line style="stroke:#181818;stroke-width:0.5;" x1="236" x2="441" y1="228.2656" y2="228.2656"/><ellipse cx="246" cy="241.9141" fill="none" rx="3" ry="3" style="stroke:#038048;stroke-width:1.0;"/><text fill="#000000" font-family="sans-serif" font-size="14" lengthAdjust="spacing" textLength="181" x="255" y="245.2607">Name : string &#171;get&#187; &#171;set&#187;</text><ellipse cx="246" cy="258.2109" fill="none" rx="3" ry="3" style="stroke:#038048;stroke-width:1.0;"/><text fill="#000000" font-family="sans-serif" font-size="14" lengthAdjust="spacing" textLength="157" x="255" y="261.5576">Value : int &#171;get&#187; &#171;set&#187;</text><line style="stroke:#181818;stroke-width:0.5;" x1="236" x2="441" y1="268.8594" y2="268.8594"/></g><!--class StructA--><g id="elem_StructA"><rect codeLine="23" fill="#F1F1F1" height="121.4531" id="StructA" rx="2.5" ry="2.5" style="stroke:#181818;stroke-width:0.5;" width="167" x="477" y="172"/><ellipse cx="530.25" cy="192.1328" fill="#F1F1F1" rx="11" ry="11" style="stroke:#181818;stroke-width:1.0;"/><path d="M529.7344,192.6953 Q527.875,191.9922 527.2188,191.2266 Q526.5781,190.4453 526.5781,189.1328 Q526.5781,187.4453 527.6563,186.4766 Q528.7344,185.5078 530.6094,185.5078 Q531.4688,185.5078 532.3125,185.7109 Q533.1719,185.8984 534.0156,186.2891 L534.0156,188.6797 Q533.2344,188.1172 532.4063,187.8359 Q531.5938,187.5391 530.7969,187.5391 Q529.9219,187.5391 529.4375,187.8984 Q528.9688,188.2578 528.9688,188.9141 Q528.9688,189.4297 529.3125,189.7734 Q529.6563,190.1016 530.75,190.5078 L531.8125,190.9141 Q533.2969,191.4609 534,192.3672 Q534.7188,193.2734 534.7188,194.6484 Q534.7188,196.5234 533.6094,197.4453 Q532.5,198.3672 530.25,198.3672 Q529.3281,198.3672 528.4063,198.1484 Q527.4844,197.9297 526.625,197.5078 L526.625,194.9766 Q527.5938,195.6641 528.5156,196.0078 Q529.4375,196.3516 530.3281,196.3516 Q531.2344,196.3516 531.7344,195.9453 Q532.2344,195.5234 532.2344,194.7891 Q532.2344,194.2266 531.8906,193.8203 Q531.5625,193.3984 530.9375,193.1484 L529.7344,192.6953 Z " fill="#000000"/><text fill="#000000" font-family="sans-serif" font-size="12" font-style="italic" lengthAdjust="spacing" textLength="56" x="548.75" y="188.1387">&#171;sealed&#187;</text><text fill="#000000" font-family="sans-serif" font-size="14" lengthAdjust="spacing" textLength="50" x="551.75" y="203.9639">StructA</text><line style="stroke:#181818;stroke-width:0.5;" x1="478" x2="643" y1="212.2656" y2="212.2656"/><ellipse cx="488" cy="225.9141" fill="none" rx="3" ry="3" style="stroke:#038048;stroke-width:1.0;"/><text fill="#000000" font-family="sans-serif" font-size="14" lengthAdjust="spacing" textLength="140" x="497" y="229.2607">X : float &#171;get&#187; &#171;set&#187;</text><ellipse cx="488" cy="242.2109" fill="none" rx="3" ry="3" style="stroke:#038048;stroke-width:1.0;"/><text fill="#000000" font-family="sans-serif" font-size="14" lengthAdjust="spacing" textLength="140" x="497" y="245.5576">Y : float &#171;get&#187; &#171;set&#187;</text><ellipse cx="488" cy="258.5078" fill="none" rx="3" ry="3" style="stroke:#038048;stroke-width:1.0;"/><text fill="#000000" font-family="sans-serif" font-size="14" lengthAdjust="spacing" textLength="141" x="497" y="261.8545">Z : float &#171;get&#187; &#171;set&#187;</text><line style="stroke:#181818;stroke-width:0.5;" x1="478" x2="643" y1="269.1563" y2="269.1563"/><ellipse cx="488" cy="282.8047" fill="#84BE84" rx="3" ry="3" style="stroke:#038048;stroke-width:1.0;"/><text fill="#000000" font-family="sans-serif" font-size="14" lengthAdjust="spacing" textLength="60" x="497" y="286.1514">StructA()</text></g><!--class RecordStruct--><g id="elem_RecordStruct"><rect codeLine="29" fill="#F1F1F1" height="119.125" id="RecordStruct" rx="2.5" ry="2.5" style="stroke:#181818;stroke-width:0.5;" width="167" x="47" y="402"/><ellipse cx="81.8" cy="429.1172" fill="#F1F1F1" rx="11" ry="11" style="stroke:#181818;stroke-width:1.0;"/><path d="M81.2844,429.6797 Q79.425,428.9766 78.7688,428.2109 Q78.1281,427.4297 78.1281,426.1172 Q78.1281,424.4297 79.2063,423.4609 Q80.2844,422.4922 82.1594,422.4922 Q83.0188,422.4922 83.8625,422.6953 Q84.7219,422.8828 85.5656,423.2734 L85.5656,425.6641 Q84.7844,425.1016 83.9563,424.8203 Q83.1438,424.5234 82.3469,424.5234 Q81.4719,424.5234 80.9875,424.8828 Q80.5188,425.2422 80.5188,425.8984 Q80.5188,426.4141 80.8625,426.7578 Q81.2063,427.0859 82.3,427.4922 L83.3625,427.8984 Q84.8469,428.4453 85.55,429.3516 Q86.2688,430.2578 86.2688,431.6328 Q86.2688,433.5078 85.1594,434.4297 Q84.05,435.3516 81.8,435.3516 Q80.8781,435.3516 79.9563,435.1328 Q79.0344,434.9141 78.175,434.4922 L78.175,431.9609 Q79.1438,432.6484 80.0656,432.9922 Q80.9875,433.3359 81.8781,433.3359 Q82.7844,433.3359 83.2844,432.9297 Q83.7844,432.5078 83.7844,431.7734 Q83.7844,431.2109 83.4406,430.8047 Q83.1125,430.3828 82.4875,430.1328 L81.2844,429.6797 Z " fill="#000000"/><text fill="#000000" font-family="sans-serif" font-size="12" font-style="italic" lengthAdjust="spacing" textLength="56" x="117.7" y="418.1387">&#171;sealed&#187;</text><text fill="#000000" font-family="sans-serif" font-size="12" font-style="italic" lengthAdjust="spacing" textLength="55" x="118.2" y="432.1074">&#171;record&#187;</text><text fill="#000000" font-family="sans-serif" font-size="14" lengthAdjust="spacing" textLength="91" x="100.2" y="447.9326">RecordStruct</text><line style="stroke:#181818;stroke-width:0.5;" x1="48" x2="213" y1="456.2344" y2="456.2344"/><ellipse cx="58" cy="469.8828" fill="none" rx="3" ry="3" style="stroke:#038048;stroke-width:1.0;"/><text fill="#000000" font-family="sans-serif" font-size="14" lengthAdjust="spacing" textLength="140" x="67" y="473.2295">X : float &#171;get&#187; &#171;set&#187;</text><ellipse cx="58" cy="486.1797" fill="none" rx="3" ry="3" style="stroke:#038048;stroke-width:1.0;"/><text fill="#000000" font-family="sans-serif" font-size="14" lengthAdjust="spacing" textLength="140" x="67" y="489.5264">Y : float &#171;get&#187; &#171;set&#187;</text><ellipse cx="58" cy="502.4766" fill="none" rx="3" ry="3" style="stroke:#038048;stroke-width:1.0;"/><text fill="#000000" font-family="sans-serif" font-size="14" lengthAdjust="spacing" textLength="141" x="67" y="505.8232">Z : float &#171;get&#187; &#171;set&#187;</text><line style="stroke:#181818;stroke-width:0.5;" x1="48" x2="213" y1="513.125" y2="513.125"/></g><!--class LogLevel--><g id="elem_LogLevel"><rect codeLine="34" fill="#F1F1F1" height="170.3438" id="LogLevel" rx="2.5" ry="2.5" style="stroke:#181818;stroke-width:0.5;" width="96" x="249.5" y="376.5"/><ellipse cx="266.3" cy="396.6328" fill="#EB937F" rx="11" ry="11" style="stroke:#181818;stroke-width:1.0;"/><path d="M270.4094,402.6328 L262.6906,402.6328 L262.6906,390.2422 L270.4094,390.2422 L270.4094,392.3984 L265.1438,392.3984 L265.1438,395.0703 L269.9094,395.0703 L269.9094,397.2266 L265.1438,397.2266 L265.1438,400.4766 L270.4094,400.4766 L270.4094,402.6328 Z " fill="#000000"/><text fill="#000000" font-family="sans-serif" font-size="12" font-style="italic" lengthAdjust="spacing" textLength="56" x="282.7" y="392.6387">&#171;sealed&#187;</text><text fill="#000000" font-family="sans-serif" font-size="14" lengthAdjust="spacing" textLength="60" x="280.7" y="408.4639">LogLevel</text><line style="stroke:#181818;stroke-width:0.5;" x1="250.5" x2="344.5" y1="416.7656" y2="416.7656"/><text fill="#000000" font-family="sans-serif" font-size="14" lengthAdjust="spacing" textLength="68" x="255.5" y="433.7607">Trace = 0</text><text fill="#000000" font-family="sans-serif" font-size="14" lengthAdjust="spacing" textLength="76" x="255.5" y="450.0576">Debug = 1</text><text fill="#000000" font-family="sans-serif" font-size="14" lengthAdjust="spacing" textLength="54" x="255.5" y="466.3545">Info = 2</text><text fill="#000000" font-family="sans-serif" font-size="14" lengthAdjust="spacing" textLength="64" x="255.5" y="482.6514">Warn = 3</text><text fill="#000000" font-family="sans-serif" font-size="14" lengthAdjust="spacing" textLength="62" x="255.5" y="498.9482">Error = 4</text><text fill="#000000" font-family="sans-serif" font-size="14" lengthAdjust="spacing" textLength="61" x="255.5" y="515.2451">Fatal = 5</text><line style="stroke:#181818;stroke-width:0.5;" x1="250.5" x2="344.5" y1="522.5469" y2="522.5469"/><ellipse cx="260.5" cy="536.1953" fill="#84BE84" rx="3" ry="3" style="stroke:#038048;stroke-width:1.0;"/><text fill="#000000" font-family="sans-serif" font-size="14" lengthAdjust="spacing" textLength="70" x="269.5" y="539.542">LogLevel()</text></g><!--class Accessibilities--><g id="elem_Accessibilities"><rect codeLine="43" fill="#F1F1F1" height="216.9063" id="Accessibilities" rx="2.5" ry="2.5" style="stroke:#181818;stroke-width:0.5;" width="551" x="381" y="353"/><ellipse cx="604.25" cy="380.1172" fill="#EB937F" rx="11" ry="11" style="stroke:#181818;stroke-width:1.0;"/><path d="M608.3594,386.1172 L600.6406,386.1172 L600.6406,373.7266 L608.3594,373.7266 L608.3594,375.8828 L603.0938,375.8828 L603.0938,378.5547 L607.8594,378.5547 L607.8594,380.7109 L603.0938,380.7109 L603.0938,383.9609 L608.3594,383.9609 L608.3594,386.1172 Z " fill="#000000"/><text fill="#000000" font-family="sans-serif" font-size="12" font-style="italic" lengthAdjust="spacing" textLength="47" x="649.25" y="369.1387">&#171;Flags&#187;</text><text fill="#000000" font-family="sans-serif" font-size="12" font-style="italic" lengthAdjust="spacing" textLength="56" x="644.75" y="383.1074">&#171;sealed&#187;</text><text fill="#000000" font-family="sans-serif" font-size="14" lengthAdjust="spacing" textLength="96" x="624.75" y="398.9326">Accessibilities</text><line style="stroke:#181818;stroke-width:0.5;" x1="382" x2="931" y1="407.2344" y2="407.2344"/><text fill="#000000" font-family="sans-serif" font-size="14" lengthAdjust="spacing" textLength="66" x="387" y="424.2295">None = 0</text><text fill="#000000" font-family="sans-serif" font-size="14" lengthAdjust="spacing" textLength="70" x="387" y="440.5264">Public = 1</text><text fill="#000000" font-family="sans-serif" font-size="14" lengthAdjust="spacing" textLength="97" x="387" y="456.8232">Protected = 2</text><text fill="#000000" font-family="sans-serif" font-size="14" lengthAdjust="spacing" textLength="80" x="387" y="473.1201">Internal = 4</text><text fill="#000000" font-family="sans-serif" font-size="14" lengthAdjust="spacing" textLength="148" x="387" y="489.417">ProtectedInternal = 8</text><text fill="#000000" font-family="sans-serif" font-size="14" lengthAdjust="spacing" textLength="152" x="387" y="505.7139">PrivateProtected = 16</text><text fill="#000000" font-family="sans-serif" font-size="14" lengthAdjust="spacing" textLength="84" x="387" y="522.0107">Private = 32</text><text fill="#000000" font-family="sans-serif" font-size="14" lengthAdjust="spacing" textLength="539" x="387" y="538.3076">All = Public | Protected | Internal | ProtectedInternal | PrivateProtected | Private</text><line style="stroke:#181818;stroke-width:0.5;" x1="382" x2="931" y1="545.6094" y2="545.6094"/><ellipse cx="392" cy="559.2578" fill="#84BE84" rx="3" ry="3" style="stroke:#038048;stroke-width:1.0;"/><text fill="#000000" font-family="sans-serif" font-size="14" lengthAdjust="spacing" textLength="106" x="401" y="562.6045">Accessibilities()</text></g><!--SRC=[jPFRQy8m5CRV_Ii2U-dO1dDpOmmdT1T1S29pxFOMqzCk49EHfWMn_k_BfPTKAtkQ3zglvylvVZsd4eRJ53sOxn2XJG_fpmaQ3YNWI72s7etG3Ay0tQ9KISeJNKf0ZKPTnZVCCkEaNEtONF-0-vrEKTxuZtlR7h4e2uKL9VQ0Rf9QfNlNQ1jtQuiMFq1eJ4aBRzSqfsiH495f8fVJTfvvxPhSmD3WfVPXef332alfm1gQohP5pw2-HHG69Y8ND3hak6yxZjgjRRO61HbZ0cWogIwzxUmbLRDx0I9a5Dgjc2j_RfrRD1FsrjInmDgnxUcZcPx7mlw4je0Pj4BAcdu8fpzqivW9h0u4VlvH_pfOht7SCxjWdwbh1l-90pnReQb8ff03wnZEgpJxl4FdLZt2CakqwbiruR7GuiAAToov5fTMF4aff5O3gyPOOQRLLSbJnTcNnWA4X42QqYLbL54m_w0nmqbQahQ9Pe8tGFDioIYfYUPIA20AeXhBleZSnW_Q5gzoKrPeZXNuFVhNViKydkiQCdEi32-ysA89B3gYYlsG-bOvd9rHc1dz0W00]--></g></svg>